G04 EAGLE Gerber RS-274X export*
G75*
%MOMM*%
%FSLAX34Y34*%
%LPD*%
%INBottom Copper*%
%IPPOS*%
%AMOC8*
5,1,8,0,0,1.08239X$1,22.5*%
G01*
%ADD10P,1.429621X8X112.500000*%
%ADD11C,1.320800*%
%ADD12C,1.524000*%
%ADD13C,1.320800*%
%ADD14P,1.429621X8X202.500000*%
%ADD15P,1.429621X8X292.500000*%
%ADD16P,1.429621X8X22.500000*%
%ADD17C,1.676400*%
%ADD18C,2.000000*%
%ADD19C,1.000000*%

G36*
X750381Y10175D02*
X750381Y10175D01*
X750609Y10182D01*
X750696Y10195D01*
X750783Y10201D01*
X751008Y10244D01*
X751234Y10279D01*
X751318Y10303D01*
X751404Y10320D01*
X751621Y10391D01*
X751841Y10455D01*
X751921Y10489D01*
X752005Y10517D01*
X752211Y10615D01*
X752421Y10705D01*
X752497Y10750D01*
X752576Y10787D01*
X752768Y10911D01*
X752965Y11027D01*
X753034Y11081D01*
X753108Y11128D01*
X753284Y11275D01*
X753464Y11415D01*
X753526Y11477D01*
X753593Y11533D01*
X753749Y11701D01*
X753910Y11863D01*
X753964Y11932D01*
X754023Y11997D01*
X754157Y12182D01*
X754296Y12364D01*
X754341Y12439D01*
X754392Y12510D01*
X754500Y12711D01*
X754616Y12909D01*
X754650Y12989D01*
X754692Y13066D01*
X754775Y13280D01*
X754864Y13490D01*
X754888Y13574D01*
X754920Y13656D01*
X754975Y13878D01*
X755037Y14098D01*
X755051Y14185D01*
X755072Y14270D01*
X755098Y14497D01*
X755132Y14723D01*
X755135Y14811D01*
X755145Y14897D01*
X755142Y15126D01*
X755148Y15355D01*
X755139Y15442D01*
X755138Y15530D01*
X755107Y15756D01*
X755083Y15984D01*
X755063Y16069D01*
X755051Y16156D01*
X754992Y16376D01*
X754940Y16599D01*
X754909Y16682D01*
X754887Y16766D01*
X754800Y16977D01*
X754720Y17192D01*
X754675Y17280D01*
X754646Y17350D01*
X754595Y17440D01*
X753039Y23247D01*
X753039Y29213D01*
X754584Y34977D01*
X757567Y40144D01*
X761786Y44363D01*
X766953Y47346D01*
X772717Y48891D01*
X778683Y48891D01*
X784447Y47346D01*
X789614Y44363D01*
X793833Y40144D01*
X796816Y34977D01*
X798361Y29213D01*
X798361Y23247D01*
X796801Y17426D01*
X796708Y17254D01*
X796676Y17172D01*
X796638Y17094D01*
X796563Y16877D01*
X796480Y16664D01*
X796459Y16579D01*
X796430Y16496D01*
X796383Y16272D01*
X796328Y16050D01*
X796318Y15964D01*
X796300Y15878D01*
X796282Y15650D01*
X796255Y15423D01*
X796256Y15335D01*
X796249Y15248D01*
X796260Y15019D01*
X796262Y14790D01*
X796274Y14704D01*
X796278Y14616D01*
X796317Y14390D01*
X796349Y14164D01*
X796371Y14080D01*
X796386Y13994D01*
X796454Y13774D01*
X796513Y13554D01*
X796547Y13473D01*
X796572Y13390D01*
X796667Y13181D01*
X796754Y12970D01*
X796797Y12893D01*
X796833Y12814D01*
X796953Y12619D01*
X797066Y12420D01*
X797119Y12350D01*
X797165Y12276D01*
X797308Y12098D01*
X797445Y11914D01*
X797506Y11851D01*
X797561Y11783D01*
X797726Y11625D01*
X797885Y11460D01*
X797954Y11406D01*
X798017Y11345D01*
X798200Y11209D01*
X798379Y11066D01*
X798454Y11020D01*
X798524Y10968D01*
X798723Y10856D01*
X798919Y10736D01*
X798999Y10701D01*
X799075Y10658D01*
X799286Y10572D01*
X799495Y10478D01*
X799579Y10452D01*
X799660Y10420D01*
X799881Y10361D01*
X800100Y10294D01*
X800187Y10280D01*
X800271Y10257D01*
X800498Y10227D01*
X800723Y10188D01*
X800822Y10183D01*
X800897Y10173D01*
X801032Y10172D01*
X801248Y10161D01*
X954840Y10161D01*
X955025Y10172D01*
X955210Y10174D01*
X955340Y10192D01*
X955471Y10201D01*
X955652Y10236D01*
X955836Y10261D01*
X955962Y10295D01*
X956092Y10320D01*
X956268Y10378D01*
X956446Y10426D01*
X956567Y10476D01*
X956692Y10517D01*
X956860Y10596D01*
X957030Y10666D01*
X957145Y10731D01*
X957263Y10787D01*
X957419Y10887D01*
X957580Y10978D01*
X957685Y11057D01*
X957796Y11128D01*
X957938Y11247D01*
X958086Y11358D01*
X958180Y11449D01*
X958281Y11533D01*
X958407Y11669D01*
X958540Y11798D01*
X958622Y11900D01*
X958711Y11997D01*
X958819Y12147D01*
X958934Y12291D01*
X959003Y12404D01*
X959079Y12510D01*
X959167Y12673D01*
X959264Y12831D01*
X959317Y12951D01*
X959380Y13066D01*
X959446Y13239D01*
X959522Y13408D01*
X959560Y13533D01*
X959608Y13656D01*
X959652Y13836D01*
X959706Y14013D01*
X959728Y14142D01*
X959759Y14270D01*
X959781Y14453D01*
X959812Y14636D01*
X959820Y14789D01*
X959832Y14897D01*
X959831Y15006D01*
X959839Y15160D01*
X959839Y32087D01*
X959823Y32336D01*
X959814Y32587D01*
X959803Y32652D01*
X959799Y32718D01*
X959752Y32963D01*
X959711Y33211D01*
X959692Y33274D01*
X959680Y33338D01*
X959602Y33577D01*
X959530Y33817D01*
X959504Y33877D01*
X959483Y33939D01*
X959376Y34166D01*
X959275Y34395D01*
X959241Y34451D01*
X959213Y34510D01*
X959077Y34722D01*
X958948Y34936D01*
X958907Y34987D01*
X958872Y35043D01*
X958711Y35235D01*
X958556Y35431D01*
X958509Y35477D01*
X958467Y35528D01*
X958283Y35698D01*
X958104Y35873D01*
X958052Y35913D01*
X958003Y35958D01*
X957800Y36104D01*
X957600Y36255D01*
X957543Y36288D01*
X957490Y36326D01*
X957270Y36445D01*
X957052Y36570D01*
X956991Y36595D01*
X956934Y36627D01*
X956700Y36717D01*
X956469Y36813D01*
X956405Y36831D01*
X956344Y36854D01*
X956101Y36915D01*
X955859Y36981D01*
X955794Y36990D01*
X955730Y37006D01*
X955482Y37035D01*
X955234Y37071D01*
X955168Y37072D01*
X955103Y37079D01*
X954853Y37076D01*
X954602Y37080D01*
X954536Y37073D01*
X954470Y37072D01*
X954223Y37038D01*
X953973Y37010D01*
X953909Y36995D01*
X953844Y36986D01*
X953603Y36921D01*
X953359Y36862D01*
X953297Y36838D01*
X953234Y36821D01*
X953003Y36726D01*
X952768Y36637D01*
X952710Y36606D01*
X952650Y36581D01*
X952431Y36457D01*
X952211Y36339D01*
X952157Y36301D01*
X952100Y36268D01*
X951899Y36118D01*
X951695Y35973D01*
X951641Y35924D01*
X951594Y35889D01*
X951494Y35792D01*
X951305Y35622D01*
X938135Y22452D01*
X934459Y20929D01*
X862591Y20929D01*
X858915Y22452D01*
X855399Y25968D01*
X844852Y36515D01*
X843329Y40191D01*
X843329Y57016D01*
X843322Y57135D01*
X843324Y57254D01*
X843302Y57450D01*
X843289Y57647D01*
X843267Y57764D01*
X843254Y57882D01*
X843207Y58074D01*
X843170Y58267D01*
X843133Y58381D01*
X843105Y58497D01*
X843035Y58681D01*
X842973Y58868D01*
X842922Y58976D01*
X842880Y59087D01*
X842787Y59261D01*
X842703Y59439D01*
X842638Y59540D01*
X842582Y59645D01*
X842468Y59805D01*
X842362Y59972D01*
X842285Y60063D01*
X842216Y60160D01*
X842046Y60349D01*
X841957Y60457D01*
X841914Y60496D01*
X841865Y60551D01*
X840613Y61803D01*
X838329Y67316D01*
X838329Y93284D01*
X840613Y98797D01*
X844833Y103017D01*
X846347Y103644D01*
X846543Y103740D01*
X846742Y103828D01*
X846826Y103879D01*
X846915Y103923D01*
X847097Y104042D01*
X847283Y104155D01*
X847360Y104216D01*
X847442Y104270D01*
X847608Y104412D01*
X847778Y104547D01*
X847847Y104618D01*
X847922Y104682D01*
X848068Y104843D01*
X848221Y104999D01*
X848280Y105077D01*
X848346Y105151D01*
X848471Y105329D01*
X848602Y105503D01*
X848651Y105588D01*
X848708Y105669D01*
X848808Y105862D01*
X848917Y106051D01*
X848955Y106142D01*
X849001Y106229D01*
X849077Y106433D01*
X849160Y106634D01*
X849187Y106729D01*
X849221Y106822D01*
X849270Y107033D01*
X849328Y107244D01*
X849342Y107341D01*
X849364Y107437D01*
X849387Y107654D01*
X849418Y107869D01*
X849419Y107968D01*
X849429Y108066D01*
X849424Y108283D01*
X849427Y108501D01*
X849417Y108599D01*
X849414Y108698D01*
X849382Y108913D01*
X849357Y109130D01*
X849334Y109226D01*
X849319Y109323D01*
X849260Y109532D01*
X849209Y109744D01*
X849174Y109836D01*
X849147Y109931D01*
X849061Y110131D01*
X848984Y110335D01*
X848937Y110422D01*
X848899Y110512D01*
X848788Y110700D01*
X848686Y110892D01*
X848629Y110973D01*
X848579Y111058D01*
X848446Y111230D01*
X848320Y111408D01*
X848245Y111491D01*
X848193Y111558D01*
X848103Y111649D01*
X847969Y111798D01*
X839718Y120049D01*
X836202Y123565D01*
X834679Y127241D01*
X834679Y153477D01*
X834672Y153596D01*
X834674Y153715D01*
X834652Y153911D01*
X834639Y154108D01*
X834617Y154225D01*
X834604Y154343D01*
X834557Y154535D01*
X834520Y154728D01*
X834483Y154842D01*
X834455Y154958D01*
X834385Y155142D01*
X834323Y155329D01*
X834272Y155437D01*
X834230Y155548D01*
X834137Y155722D01*
X834053Y155900D01*
X833988Y156001D01*
X833932Y156106D01*
X833818Y156266D01*
X833712Y156433D01*
X833635Y156524D01*
X833566Y156622D01*
X833396Y156810D01*
X833307Y156918D01*
X833264Y156957D01*
X833215Y157012D01*
X824872Y165355D01*
X824782Y165434D01*
X824699Y165520D01*
X824545Y165643D01*
X824397Y165773D01*
X824299Y165840D01*
X824205Y165914D01*
X824037Y166017D01*
X823874Y166127D01*
X823768Y166181D01*
X823666Y166244D01*
X823486Y166324D01*
X823310Y166413D01*
X823198Y166453D01*
X823089Y166502D01*
X822900Y166559D01*
X822715Y166626D01*
X822599Y166651D01*
X822484Y166686D01*
X822290Y166719D01*
X822098Y166761D01*
X821979Y166772D01*
X821861Y166792D01*
X821607Y166805D01*
X821468Y166818D01*
X821410Y166815D01*
X821337Y166819D01*
X773461Y166819D01*
X769785Y168342D01*
X717312Y220815D01*
X715789Y224491D01*
X715789Y471537D01*
X715782Y471656D01*
X715784Y471775D01*
X715762Y471971D01*
X715749Y472168D01*
X715727Y472285D01*
X715714Y472403D01*
X715667Y472595D01*
X715630Y472788D01*
X715593Y472902D01*
X715565Y473018D01*
X715495Y473202D01*
X715433Y473389D01*
X715382Y473497D01*
X715340Y473608D01*
X715247Y473782D01*
X715163Y473960D01*
X715098Y474061D01*
X715042Y474166D01*
X714928Y474326D01*
X714822Y474493D01*
X714745Y474584D01*
X714676Y474682D01*
X714506Y474870D01*
X714417Y474978D01*
X714374Y475017D01*
X714325Y475072D01*
X700642Y488755D01*
X700552Y488834D01*
X700469Y488920D01*
X700315Y489043D01*
X700167Y489173D01*
X700069Y489240D01*
X699975Y489314D01*
X699807Y489417D01*
X699644Y489527D01*
X699538Y489581D01*
X699436Y489644D01*
X699256Y489724D01*
X699080Y489813D01*
X698968Y489853D01*
X698859Y489902D01*
X698670Y489959D01*
X698485Y490026D01*
X698369Y490051D01*
X698254Y490086D01*
X698060Y490119D01*
X697868Y490161D01*
X697749Y490172D01*
X697631Y490192D01*
X697377Y490205D01*
X697238Y490218D01*
X697180Y490215D01*
X697107Y490219D01*
X665291Y490219D01*
X661615Y491742D01*
X636702Y516655D01*
X635179Y520331D01*
X635179Y595414D01*
X635163Y595665D01*
X635154Y595915D01*
X635143Y595980D01*
X635139Y596045D01*
X635092Y596292D01*
X635051Y596539D01*
X635033Y596601D01*
X635020Y596666D01*
X634942Y596904D01*
X634870Y597144D01*
X634844Y597204D01*
X634823Y597267D01*
X634716Y597493D01*
X634615Y597722D01*
X634581Y597778D01*
X634553Y597838D01*
X634417Y598049D01*
X634288Y598263D01*
X634247Y598315D01*
X634212Y598370D01*
X634051Y598562D01*
X633896Y598759D01*
X633849Y598805D01*
X633807Y598855D01*
X633623Y599026D01*
X633444Y599201D01*
X633392Y599241D01*
X633343Y599286D01*
X633140Y599431D01*
X632940Y599583D01*
X632883Y599616D01*
X632830Y599654D01*
X632610Y599773D01*
X632392Y599898D01*
X632331Y599923D01*
X632274Y599954D01*
X632040Y600044D01*
X631809Y600141D01*
X631745Y600158D01*
X631684Y600182D01*
X631441Y600242D01*
X631199Y600309D01*
X631134Y600318D01*
X631070Y600334D01*
X630822Y600363D01*
X630573Y600398D01*
X630508Y600399D01*
X630443Y600407D01*
X630193Y600404D01*
X629941Y600408D01*
X629876Y600401D01*
X629810Y600400D01*
X629562Y600366D01*
X629313Y600338D01*
X629249Y600323D01*
X629184Y600314D01*
X628942Y600248D01*
X628699Y600189D01*
X628637Y600166D01*
X628574Y600149D01*
X628342Y600053D01*
X628108Y599964D01*
X628050Y599933D01*
X627990Y599908D01*
X627772Y599784D01*
X627551Y599666D01*
X627497Y599628D01*
X627440Y599596D01*
X627239Y599446D01*
X627035Y599301D01*
X626980Y599251D01*
X626934Y599217D01*
X626834Y599119D01*
X626645Y598949D01*
X626354Y598658D01*
X622088Y596891D01*
X617472Y596891D01*
X613206Y598658D01*
X610615Y601249D01*
X610476Y601372D01*
X610344Y601501D01*
X610239Y601580D01*
X610141Y601667D01*
X609987Y601771D01*
X609840Y601883D01*
X609726Y601948D01*
X609617Y602022D01*
X609452Y602106D01*
X609292Y602198D01*
X609171Y602248D01*
X609054Y602308D01*
X608879Y602370D01*
X608709Y602441D01*
X608582Y602476D01*
X608458Y602520D01*
X608278Y602560D01*
X608099Y602609D01*
X607969Y602627D01*
X607841Y602655D01*
X607657Y602672D01*
X607474Y602698D01*
X607342Y602700D01*
X607211Y602712D01*
X607026Y602705D01*
X606841Y602708D01*
X606711Y602693D01*
X606580Y602689D01*
X606397Y602658D01*
X606213Y602638D01*
X606085Y602607D01*
X605956Y602586D01*
X605779Y602533D01*
X605599Y602489D01*
X605476Y602442D01*
X605350Y602405D01*
X605181Y602330D01*
X605008Y602264D01*
X604892Y602202D01*
X604772Y602149D01*
X604614Y602054D01*
X604451Y601966D01*
X604344Y601891D01*
X604231Y601823D01*
X604086Y601708D01*
X603935Y601601D01*
X603821Y601498D01*
X603735Y601430D01*
X603659Y601352D01*
X603545Y601249D01*
X600953Y598658D01*
X596688Y596891D01*
X592072Y596891D01*
X587806Y598658D01*
X587515Y598949D01*
X587327Y599115D01*
X587143Y599286D01*
X587090Y599324D01*
X587041Y599367D01*
X586833Y599508D01*
X586630Y599654D01*
X586572Y599685D01*
X586517Y599722D01*
X586294Y599835D01*
X586074Y599954D01*
X586012Y599978D01*
X585954Y600008D01*
X585717Y600092D01*
X585484Y600182D01*
X585420Y600198D01*
X585358Y600220D01*
X585113Y600274D01*
X584870Y600334D01*
X584805Y600341D01*
X584741Y600355D01*
X584491Y600378D01*
X584243Y600407D01*
X584177Y600406D01*
X584111Y600412D01*
X583860Y600403D01*
X583610Y600400D01*
X583545Y600391D01*
X583480Y600389D01*
X583232Y600348D01*
X582984Y600314D01*
X582921Y600296D01*
X582856Y600286D01*
X582616Y600214D01*
X582374Y600149D01*
X582313Y600124D01*
X582250Y600105D01*
X582021Y600004D01*
X581790Y599908D01*
X581732Y599876D01*
X581672Y599849D01*
X581458Y599720D01*
X581240Y599596D01*
X581187Y599557D01*
X581131Y599523D01*
X580934Y599367D01*
X580734Y599217D01*
X580687Y599171D01*
X580636Y599130D01*
X580460Y598951D01*
X580280Y598777D01*
X580239Y598726D01*
X580193Y598679D01*
X580042Y598479D01*
X579886Y598283D01*
X579851Y598227D01*
X579812Y598175D01*
X579687Y597958D01*
X579556Y597744D01*
X579529Y597683D01*
X579497Y597627D01*
X579401Y597396D01*
X579298Y597167D01*
X579279Y597104D01*
X579254Y597043D01*
X579187Y596802D01*
X579114Y596562D01*
X579103Y596497D01*
X579086Y596434D01*
X579050Y596186D01*
X579008Y595939D01*
X579004Y595865D01*
X578996Y595808D01*
X578994Y595669D01*
X578981Y595414D01*
X578981Y569173D01*
X578988Y569054D01*
X578986Y568935D01*
X579008Y568739D01*
X579021Y568542D01*
X579043Y568425D01*
X579056Y568307D01*
X579103Y568115D01*
X579140Y567922D01*
X579177Y567808D01*
X579205Y567692D01*
X579275Y567508D01*
X579337Y567321D01*
X579388Y567213D01*
X579430Y567102D01*
X579523Y566928D01*
X579607Y566750D01*
X579672Y566649D01*
X579728Y566544D01*
X579842Y566384D01*
X579948Y566217D01*
X580025Y566126D01*
X580094Y566028D01*
X580264Y565840D01*
X580353Y565732D01*
X580396Y565693D01*
X580445Y565638D01*
X588108Y557975D01*
X589631Y554299D01*
X589631Y520255D01*
X589636Y520169D01*
X589634Y520082D01*
X589656Y519854D01*
X589671Y519624D01*
X589687Y519539D01*
X589695Y519453D01*
X589747Y519230D01*
X589790Y519004D01*
X589817Y518921D01*
X589836Y518837D01*
X589947Y518523D01*
X589987Y518403D01*
X589999Y518376D01*
X590011Y518342D01*
X591235Y515388D01*
X591235Y510772D01*
X590011Y507818D01*
X589983Y507736D01*
X589948Y507657D01*
X589881Y507437D01*
X589807Y507220D01*
X589789Y507135D01*
X589764Y507052D01*
X589726Y506825D01*
X589679Y506601D01*
X589673Y506515D01*
X589658Y506429D01*
X589641Y506096D01*
X589631Y505970D01*
X589633Y505941D01*
X589631Y505905D01*
X589631Y465322D01*
X589638Y465203D01*
X589636Y465083D01*
X589658Y464887D01*
X589671Y464691D01*
X589693Y464574D01*
X589706Y464455D01*
X589753Y464263D01*
X589790Y464070D01*
X589827Y463956D01*
X589855Y463841D01*
X589925Y463657D01*
X589987Y463469D01*
X590038Y463361D01*
X590080Y463250D01*
X590173Y463076D01*
X590257Y462898D01*
X590322Y462797D01*
X590378Y462692D01*
X590492Y462532D01*
X590598Y462366D01*
X590675Y462274D01*
X590744Y462177D01*
X590914Y461988D01*
X591003Y461881D01*
X591046Y461841D01*
X591095Y461787D01*
X591235Y461647D01*
X591235Y452033D01*
X585137Y445936D01*
X585015Y445797D01*
X584885Y445665D01*
X584806Y445560D01*
X584719Y445461D01*
X584616Y445308D01*
X584504Y445161D01*
X584438Y445046D01*
X584365Y444938D01*
X584281Y444773D01*
X584189Y444613D01*
X584138Y444491D01*
X584079Y444374D01*
X584017Y444200D01*
X583946Y444029D01*
X583911Y443903D01*
X583867Y443779D01*
X583827Y443598D01*
X583778Y443420D01*
X583759Y443290D01*
X583731Y443161D01*
X583715Y442977D01*
X583688Y442794D01*
X583686Y442663D01*
X583675Y442532D01*
X583681Y442347D01*
X583678Y442162D01*
X583693Y442032D01*
X583698Y441900D01*
X583728Y441718D01*
X583748Y441534D01*
X583779Y441406D01*
X583801Y441277D01*
X583854Y441099D01*
X583897Y440919D01*
X583944Y440797D01*
X583982Y440671D01*
X584056Y440502D01*
X584122Y440329D01*
X584184Y440213D01*
X584237Y440093D01*
X584333Y439934D01*
X584420Y439771D01*
X584496Y439664D01*
X584564Y439552D01*
X584679Y439407D01*
X584786Y439256D01*
X584889Y439141D01*
X584956Y439056D01*
X585034Y438980D01*
X585137Y438866D01*
X587563Y436439D01*
X579630Y436439D01*
X571697Y436439D01*
X574123Y438866D01*
X574245Y439004D01*
X574375Y439136D01*
X574454Y439241D01*
X574541Y439340D01*
X574644Y439493D01*
X574756Y439640D01*
X574822Y439755D01*
X574895Y439863D01*
X574979Y440028D01*
X575071Y440188D01*
X575122Y440310D01*
X575181Y440427D01*
X575243Y440601D01*
X575314Y440772D01*
X575349Y440898D01*
X575393Y441022D01*
X575433Y441203D01*
X575482Y441381D01*
X575501Y441512D01*
X575529Y441640D01*
X575545Y441824D01*
X575572Y442007D01*
X575574Y442138D01*
X575585Y442269D01*
X575579Y442454D01*
X575582Y442639D01*
X575567Y442770D01*
X575562Y442901D01*
X575532Y443083D01*
X575512Y443267D01*
X575481Y443395D01*
X575459Y443525D01*
X575406Y443702D01*
X575363Y443882D01*
X575316Y444004D01*
X575278Y444130D01*
X575203Y444300D01*
X575138Y444472D01*
X575076Y444588D01*
X575023Y444708D01*
X574927Y444867D01*
X574840Y445030D01*
X574764Y445137D01*
X574696Y445249D01*
X574581Y445394D01*
X574474Y445545D01*
X574372Y445659D01*
X574304Y445745D01*
X574226Y445822D01*
X574123Y445936D01*
X568025Y452033D01*
X568025Y461647D01*
X568165Y461787D01*
X568244Y461876D01*
X568330Y461959D01*
X568453Y462113D01*
X568583Y462261D01*
X568650Y462360D01*
X568724Y462453D01*
X568827Y462621D01*
X568937Y462784D01*
X568991Y462891D01*
X569054Y462992D01*
X569134Y463172D01*
X569223Y463348D01*
X569263Y463460D01*
X569312Y463569D01*
X569369Y463758D01*
X569436Y463943D01*
X569461Y464060D01*
X569496Y464174D01*
X569529Y464369D01*
X569571Y464561D01*
X569582Y464679D01*
X569602Y464797D01*
X569615Y465051D01*
X569628Y465190D01*
X569625Y465248D01*
X569629Y465322D01*
X569629Y505905D01*
X569624Y505991D01*
X569626Y506078D01*
X569604Y506306D01*
X569589Y506536D01*
X569573Y506621D01*
X569565Y506707D01*
X569513Y506930D01*
X569470Y507156D01*
X569443Y507239D01*
X569424Y507323D01*
X569313Y507637D01*
X569273Y507757D01*
X569261Y507784D01*
X569249Y507818D01*
X568025Y510772D01*
X568025Y515388D01*
X569249Y518342D01*
X569277Y518424D01*
X569312Y518503D01*
X569379Y518723D01*
X569453Y518940D01*
X569471Y519025D01*
X569496Y519108D01*
X569534Y519335D01*
X569581Y519559D01*
X569587Y519645D01*
X569602Y519731D01*
X569619Y520064D01*
X569629Y520190D01*
X569627Y520219D01*
X569629Y520255D01*
X569629Y546097D01*
X569622Y546216D01*
X569624Y546335D01*
X569602Y546531D01*
X569589Y546728D01*
X569567Y546845D01*
X569554Y546963D01*
X569507Y547155D01*
X569470Y547348D01*
X569433Y547462D01*
X569405Y547578D01*
X569335Y547762D01*
X569273Y547949D01*
X569222Y548057D01*
X569180Y548168D01*
X569087Y548342D01*
X569003Y548520D01*
X568938Y548621D01*
X568882Y548726D01*
X568768Y548886D01*
X568662Y549053D01*
X568585Y549144D01*
X568516Y549242D01*
X568346Y549430D01*
X568257Y549538D01*
X568214Y549577D01*
X568165Y549632D01*
X560165Y557631D01*
X560072Y557740D01*
X559936Y557912D01*
X559866Y557980D01*
X559803Y558055D01*
X559641Y558201D01*
X559485Y558354D01*
X559407Y558413D01*
X559334Y558479D01*
X559155Y558604D01*
X558981Y558736D01*
X558896Y558784D01*
X558816Y558840D01*
X558622Y558942D01*
X558433Y559051D01*
X558342Y559088D01*
X558256Y559134D01*
X558051Y559210D01*
X557849Y559294D01*
X557755Y559320D01*
X557663Y559354D01*
X557451Y559404D01*
X557240Y559462D01*
X557143Y559475D01*
X557048Y559498D01*
X556831Y559520D01*
X556614Y559551D01*
X556516Y559553D01*
X556419Y559563D01*
X556201Y559557D01*
X555982Y559561D01*
X555885Y559550D01*
X555787Y559548D01*
X555571Y559515D01*
X555354Y559491D01*
X555259Y559468D01*
X555162Y559453D01*
X554952Y559394D01*
X554740Y559342D01*
X554648Y559307D01*
X554554Y559281D01*
X554353Y559195D01*
X554149Y559117D01*
X554063Y559071D01*
X553973Y559033D01*
X553784Y558922D01*
X553591Y558819D01*
X553512Y558763D01*
X553427Y558713D01*
X553254Y558580D01*
X553076Y558454D01*
X552993Y558379D01*
X552926Y558328D01*
X552834Y558236D01*
X552686Y558102D01*
X548542Y553959D01*
X542835Y548252D01*
X542756Y548162D01*
X542670Y548079D01*
X542547Y547925D01*
X542417Y547777D01*
X542350Y547679D01*
X542276Y547585D01*
X542173Y547417D01*
X542063Y547254D01*
X542009Y547148D01*
X541946Y547046D01*
X541866Y546866D01*
X541777Y546690D01*
X541737Y546578D01*
X541688Y546469D01*
X541631Y546280D01*
X541564Y546095D01*
X541539Y545979D01*
X541504Y545864D01*
X541471Y545670D01*
X541429Y545478D01*
X541418Y545359D01*
X541398Y545241D01*
X541385Y544987D01*
X541372Y544848D01*
X541375Y544790D01*
X541371Y544717D01*
X541371Y520255D01*
X541376Y520169D01*
X541374Y520082D01*
X541396Y519854D01*
X541411Y519624D01*
X541427Y519539D01*
X541435Y519453D01*
X541487Y519230D01*
X541530Y519004D01*
X541557Y518921D01*
X541576Y518837D01*
X541687Y518523D01*
X541727Y518403D01*
X541739Y518376D01*
X541751Y518342D01*
X542975Y515388D01*
X542975Y510772D01*
X541751Y507818D01*
X541723Y507736D01*
X541688Y507657D01*
X541621Y507437D01*
X541547Y507220D01*
X541529Y507135D01*
X541504Y507052D01*
X541466Y506825D01*
X541419Y506601D01*
X541413Y506515D01*
X541398Y506429D01*
X541381Y506096D01*
X541371Y505971D01*
X541373Y505941D01*
X541371Y505905D01*
X541371Y465182D01*
X541378Y465063D01*
X541376Y464943D01*
X541398Y464747D01*
X541411Y464551D01*
X541433Y464434D01*
X541446Y464315D01*
X541493Y464123D01*
X541530Y463930D01*
X541567Y463816D01*
X541595Y463701D01*
X541665Y463517D01*
X541727Y463329D01*
X541778Y463221D01*
X541820Y463110D01*
X541913Y462936D01*
X541997Y462758D01*
X542062Y462657D01*
X542118Y462552D01*
X542232Y462392D01*
X542338Y462226D01*
X542415Y462134D01*
X542484Y462037D01*
X542654Y461848D01*
X542743Y461741D01*
X542786Y461701D01*
X542835Y461647D01*
X542835Y452033D01*
X536737Y445936D01*
X536615Y445797D01*
X536485Y445665D01*
X536406Y445560D01*
X536319Y445461D01*
X536216Y445308D01*
X536104Y445161D01*
X536038Y445046D01*
X535965Y444938D01*
X535881Y444773D01*
X535789Y444613D01*
X535738Y444491D01*
X535679Y444374D01*
X535617Y444200D01*
X535546Y444029D01*
X535511Y443903D01*
X535467Y443779D01*
X535427Y443598D01*
X535378Y443420D01*
X535359Y443290D01*
X535331Y443161D01*
X535315Y442977D01*
X535288Y442794D01*
X535286Y442663D01*
X535275Y442532D01*
X535281Y442347D01*
X535278Y442162D01*
X535293Y442032D01*
X535298Y441900D01*
X535328Y441718D01*
X535348Y441534D01*
X535379Y441406D01*
X535401Y441277D01*
X535454Y441099D01*
X535497Y440919D01*
X535544Y440797D01*
X535582Y440671D01*
X535656Y440502D01*
X535722Y440329D01*
X535784Y440213D01*
X535837Y440093D01*
X535933Y439934D01*
X536020Y439771D01*
X536096Y439664D01*
X536164Y439552D01*
X536279Y439407D01*
X536386Y439256D01*
X536489Y439141D01*
X536556Y439056D01*
X536634Y438980D01*
X536737Y438866D01*
X539163Y436439D01*
X531230Y436439D01*
X523297Y436439D01*
X525723Y438866D01*
X525845Y439004D01*
X525975Y439136D01*
X526054Y439241D01*
X526141Y439340D01*
X526244Y439493D01*
X526356Y439640D01*
X526422Y439755D01*
X526495Y439863D01*
X526579Y440028D01*
X526671Y440188D01*
X526722Y440310D01*
X526781Y440427D01*
X526843Y440601D01*
X526914Y440772D01*
X526949Y440898D01*
X526993Y441022D01*
X527033Y441203D01*
X527082Y441381D01*
X527101Y441512D01*
X527129Y441640D01*
X527145Y441824D01*
X527172Y442007D01*
X527174Y442138D01*
X527185Y442269D01*
X527179Y442454D01*
X527182Y442639D01*
X527167Y442770D01*
X527162Y442901D01*
X527132Y443083D01*
X527112Y443267D01*
X527081Y443395D01*
X527059Y443525D01*
X527006Y443702D01*
X526963Y443882D01*
X526916Y444004D01*
X526878Y444130D01*
X526803Y444300D01*
X526738Y444472D01*
X526676Y444588D01*
X526623Y444708D01*
X526527Y444867D01*
X526440Y445030D01*
X526364Y445137D01*
X526296Y445249D01*
X526181Y445394D01*
X526074Y445545D01*
X525972Y445659D01*
X525904Y445745D01*
X525826Y445822D01*
X525723Y445936D01*
X519625Y452033D01*
X519625Y461647D01*
X519905Y461927D01*
X519984Y462016D01*
X520070Y462099D01*
X520193Y462253D01*
X520323Y462401D01*
X520390Y462500D01*
X520464Y462593D01*
X520567Y462761D01*
X520677Y462924D01*
X520731Y463031D01*
X520794Y463132D01*
X520874Y463312D01*
X520963Y463488D01*
X521003Y463600D01*
X521052Y463709D01*
X521109Y463898D01*
X521176Y464083D01*
X521201Y464200D01*
X521236Y464314D01*
X521269Y464509D01*
X521311Y464701D01*
X521322Y464819D01*
X521342Y464937D01*
X521355Y465191D01*
X521368Y465330D01*
X521365Y465388D01*
X521369Y465462D01*
X521369Y505905D01*
X521364Y505991D01*
X521366Y506078D01*
X521344Y506306D01*
X521329Y506536D01*
X521313Y506621D01*
X521305Y506707D01*
X521253Y506930D01*
X521210Y507156D01*
X521183Y507239D01*
X521164Y507323D01*
X521053Y507636D01*
X521013Y507757D01*
X521001Y507784D01*
X520989Y507818D01*
X519765Y510772D01*
X519765Y515388D01*
X520989Y518342D01*
X521017Y518424D01*
X521052Y518503D01*
X521119Y518723D01*
X521193Y518940D01*
X521211Y519025D01*
X521236Y519108D01*
X521274Y519335D01*
X521321Y519559D01*
X521327Y519645D01*
X521342Y519731D01*
X521359Y520064D01*
X521369Y520190D01*
X521367Y520219D01*
X521369Y520255D01*
X521369Y552919D01*
X522892Y556595D01*
X532115Y565818D01*
X532194Y565908D01*
X532280Y565991D01*
X532403Y566145D01*
X532533Y566293D01*
X532600Y566391D01*
X532674Y566485D01*
X532777Y566653D01*
X532887Y566816D01*
X532941Y566922D01*
X533004Y567024D01*
X533084Y567204D01*
X533173Y567380D01*
X533213Y567492D01*
X533262Y567601D01*
X533319Y567789D01*
X533386Y567975D01*
X533411Y568091D01*
X533446Y568206D01*
X533479Y568400D01*
X533521Y568592D01*
X533532Y568711D01*
X533552Y568829D01*
X533565Y569083D01*
X533578Y569222D01*
X533575Y569280D01*
X533579Y569353D01*
X533579Y598893D01*
X533563Y599143D01*
X533554Y599394D01*
X533543Y599459D01*
X533539Y599524D01*
X533492Y599770D01*
X533451Y600018D01*
X533432Y600081D01*
X533420Y600145D01*
X533342Y600383D01*
X533270Y600623D01*
X533244Y600683D01*
X533223Y600746D01*
X533116Y600972D01*
X533015Y601201D01*
X532981Y601257D01*
X532953Y601317D01*
X532817Y601529D01*
X532688Y601742D01*
X532647Y601794D01*
X532612Y601849D01*
X532451Y602042D01*
X532296Y602238D01*
X532249Y602284D01*
X532207Y602334D01*
X532023Y602505D01*
X531844Y602680D01*
X531792Y602720D01*
X531743Y602764D01*
X531540Y602910D01*
X531340Y603062D01*
X531283Y603095D01*
X531230Y603133D01*
X531009Y603252D01*
X530792Y603377D01*
X530731Y603402D01*
X530674Y603433D01*
X530440Y603523D01*
X530209Y603620D01*
X530145Y603637D01*
X530084Y603661D01*
X529841Y603721D01*
X529599Y603788D01*
X529534Y603797D01*
X529470Y603813D01*
X529222Y603842D01*
X528974Y603877D01*
X528908Y603878D01*
X528843Y603886D01*
X528593Y603883D01*
X528341Y603887D01*
X528276Y603880D01*
X528210Y603879D01*
X527962Y603845D01*
X527713Y603817D01*
X527650Y603802D01*
X527584Y603793D01*
X527342Y603727D01*
X527099Y603668D01*
X527038Y603645D01*
X526974Y603628D01*
X526743Y603533D01*
X526508Y603443D01*
X526450Y603412D01*
X526390Y603387D01*
X526172Y603263D01*
X525951Y603145D01*
X525897Y603107D01*
X525840Y603075D01*
X525639Y602925D01*
X525435Y602780D01*
X525380Y602730D01*
X525334Y602696D01*
X525234Y602599D01*
X525045Y602428D01*
X524137Y601521D01*
X523179Y600825D01*
X523179Y615100D01*
X523179Y629375D01*
X524137Y628679D01*
X525155Y627662D01*
X525214Y627580D01*
X525402Y627353D01*
X525588Y627125D01*
X525604Y627110D01*
X525618Y627093D01*
X525832Y626893D01*
X526045Y626689D01*
X526063Y626676D01*
X526079Y626661D01*
X526316Y626489D01*
X526554Y626314D01*
X526573Y626303D01*
X526591Y626290D01*
X526849Y626150D01*
X527106Y626006D01*
X527126Y625998D01*
X527146Y625988D01*
X527420Y625880D01*
X527693Y625771D01*
X527714Y625765D01*
X527734Y625757D01*
X528020Y625685D01*
X528304Y625611D01*
X528326Y625608D01*
X528347Y625603D01*
X528641Y625567D01*
X528931Y625530D01*
X528953Y625530D01*
X528975Y625527D01*
X529270Y625529D01*
X529563Y625528D01*
X529585Y625531D01*
X529607Y625531D01*
X529899Y625570D01*
X530190Y625607D01*
X530212Y625612D01*
X530234Y625615D01*
X530518Y625690D01*
X530803Y625763D01*
X530823Y625771D01*
X530845Y625777D01*
X531116Y625887D01*
X531390Y625996D01*
X531410Y626007D01*
X531430Y626015D01*
X531686Y626159D01*
X531944Y626301D01*
X531962Y626314D01*
X531981Y626325D01*
X532216Y626500D01*
X532455Y626674D01*
X532471Y626689D01*
X532488Y626702D01*
X532699Y626904D01*
X532914Y627108D01*
X532928Y627125D01*
X532944Y627140D01*
X533128Y627368D01*
X533315Y627596D01*
X533327Y627615D01*
X533341Y627632D01*
X533495Y627881D01*
X533652Y628131D01*
X533662Y628153D01*
X533672Y628170D01*
X533704Y628240D01*
X537006Y631542D01*
X541272Y633309D01*
X545888Y633309D01*
X550153Y631542D01*
X552745Y628951D01*
X552884Y628828D01*
X553016Y628699D01*
X553121Y628620D01*
X553219Y628533D01*
X553372Y628429D01*
X553520Y628317D01*
X553634Y628252D01*
X553743Y628178D01*
X553907Y628095D01*
X554068Y628002D01*
X554189Y627952D01*
X554306Y627892D01*
X554480Y627830D01*
X554651Y627759D01*
X554778Y627724D01*
X554902Y627680D01*
X555082Y627640D01*
X555261Y627591D01*
X555391Y627573D01*
X555519Y627545D01*
X555703Y627528D01*
X555886Y627502D01*
X556018Y627500D01*
X556149Y627488D01*
X556333Y627495D01*
X556518Y627492D01*
X556649Y627507D01*
X556780Y627511D01*
X556963Y627542D01*
X557147Y627562D01*
X557274Y627593D01*
X557404Y627614D01*
X557581Y627667D01*
X557761Y627711D01*
X557884Y627757D01*
X558010Y627795D01*
X558179Y627870D01*
X558352Y627936D01*
X558467Y627998D01*
X558588Y628051D01*
X558746Y628147D01*
X558909Y628234D01*
X559016Y628310D01*
X559129Y628377D01*
X559274Y628492D01*
X559425Y628599D01*
X559539Y628702D01*
X559624Y628770D01*
X559701Y628848D01*
X559815Y628951D01*
X562406Y631542D01*
X566672Y633309D01*
X571288Y633309D01*
X575553Y631542D01*
X578145Y628951D01*
X578284Y628828D01*
X578416Y628699D01*
X578521Y628620D01*
X578619Y628533D01*
X578772Y628429D01*
X578920Y628317D01*
X579034Y628252D01*
X579143Y628178D01*
X579307Y628095D01*
X579468Y628002D01*
X579589Y627952D01*
X579706Y627892D01*
X579880Y627830D01*
X580051Y627759D01*
X580178Y627724D01*
X580302Y627680D01*
X580482Y627640D01*
X580661Y627591D01*
X580791Y627573D01*
X580919Y627545D01*
X581103Y627528D01*
X581286Y627502D01*
X581418Y627500D01*
X581549Y627488D01*
X581733Y627495D01*
X581918Y627492D01*
X582049Y627507D01*
X582180Y627511D01*
X582363Y627542D01*
X582547Y627562D01*
X582674Y627593D01*
X582804Y627614D01*
X582981Y627667D01*
X583161Y627711D01*
X583284Y627757D01*
X583410Y627795D01*
X583579Y627870D01*
X583752Y627936D01*
X583867Y627998D01*
X583988Y628051D01*
X584146Y628147D01*
X584309Y628234D01*
X584416Y628310D01*
X584529Y628377D01*
X584674Y628492D01*
X584825Y628599D01*
X584939Y628702D01*
X585024Y628770D01*
X585101Y628848D01*
X585215Y628951D01*
X587806Y631542D01*
X592072Y633309D01*
X596688Y633309D01*
X600953Y631542D01*
X603545Y628951D01*
X603684Y628828D01*
X603816Y628699D01*
X603921Y628620D01*
X604019Y628533D01*
X604172Y628429D01*
X604320Y628317D01*
X604434Y628252D01*
X604543Y628178D01*
X604707Y628095D01*
X604868Y628002D01*
X604989Y627952D01*
X605106Y627892D01*
X605280Y627830D01*
X605451Y627759D01*
X605578Y627724D01*
X605702Y627680D01*
X605882Y627640D01*
X606061Y627591D01*
X606191Y627573D01*
X606319Y627545D01*
X606503Y627528D01*
X606686Y627502D01*
X606818Y627500D01*
X606949Y627488D01*
X607133Y627495D01*
X607318Y627492D01*
X607449Y627507D01*
X607580Y627511D01*
X607763Y627542D01*
X607947Y627562D01*
X608074Y627593D01*
X608204Y627614D01*
X608381Y627667D01*
X608561Y627711D01*
X608684Y627757D01*
X608810Y627795D01*
X608979Y627870D01*
X609152Y627936D01*
X609267Y627998D01*
X609388Y628051D01*
X609546Y628147D01*
X609709Y628234D01*
X609816Y628310D01*
X609929Y628377D01*
X610074Y628492D01*
X610225Y628599D01*
X610339Y628702D01*
X610424Y628770D01*
X610501Y628848D01*
X610615Y628951D01*
X613206Y631542D01*
X617472Y633309D01*
X622088Y633309D01*
X626353Y631542D01*
X628945Y628951D01*
X629084Y628828D01*
X629216Y628699D01*
X629321Y628620D01*
X629419Y628533D01*
X629572Y628429D01*
X629720Y628317D01*
X629834Y628252D01*
X629943Y628178D01*
X630107Y628095D01*
X630268Y628002D01*
X630389Y627952D01*
X630506Y627892D01*
X630680Y627830D01*
X630851Y627759D01*
X630978Y627724D01*
X631102Y627680D01*
X631282Y627640D01*
X631461Y627591D01*
X631591Y627573D01*
X631719Y627545D01*
X631903Y627528D01*
X632086Y627502D01*
X632218Y627500D01*
X632349Y627488D01*
X632533Y627495D01*
X632718Y627492D01*
X632849Y627507D01*
X632980Y627511D01*
X633163Y627542D01*
X633347Y627562D01*
X633474Y627593D01*
X633604Y627614D01*
X633781Y627667D01*
X633961Y627711D01*
X634084Y627757D01*
X634210Y627795D01*
X634379Y627870D01*
X634552Y627936D01*
X634667Y627998D01*
X634788Y628051D01*
X634946Y628147D01*
X635109Y628234D01*
X635216Y628310D01*
X635329Y628377D01*
X635474Y628492D01*
X635625Y628599D01*
X635739Y628702D01*
X635824Y628770D01*
X635901Y628848D01*
X636015Y628951D01*
X638606Y631542D01*
X642872Y633309D01*
X647488Y633309D01*
X651753Y631542D01*
X654345Y628951D01*
X654484Y628828D01*
X654616Y628699D01*
X654721Y628620D01*
X654819Y628533D01*
X654972Y628429D01*
X655120Y628317D01*
X655234Y628252D01*
X655343Y628178D01*
X655507Y628095D01*
X655668Y628002D01*
X655789Y627952D01*
X655906Y627892D01*
X656080Y627830D01*
X656251Y627759D01*
X656378Y627724D01*
X656502Y627680D01*
X656682Y627640D01*
X656861Y627591D01*
X656991Y627573D01*
X657119Y627545D01*
X657303Y627528D01*
X657486Y627502D01*
X657618Y627500D01*
X657749Y627488D01*
X657933Y627495D01*
X658118Y627492D01*
X658249Y627507D01*
X658380Y627511D01*
X658563Y627542D01*
X658747Y627562D01*
X658874Y627593D01*
X659004Y627614D01*
X659181Y627667D01*
X659361Y627711D01*
X659484Y627757D01*
X659610Y627795D01*
X659779Y627870D01*
X659952Y627936D01*
X660067Y627998D01*
X660188Y628051D01*
X660346Y628147D01*
X660509Y628234D01*
X660616Y628310D01*
X660729Y628377D01*
X660874Y628492D01*
X661025Y628599D01*
X661139Y628702D01*
X661224Y628770D01*
X661301Y628848D01*
X661415Y628951D01*
X664006Y631542D01*
X668272Y633309D01*
X672888Y633309D01*
X677154Y631542D01*
X680418Y628278D01*
X682185Y624012D01*
X682185Y606188D01*
X680418Y601922D01*
X677154Y598658D01*
X672888Y596891D01*
X668272Y596891D01*
X664006Y598658D01*
X663715Y598949D01*
X663527Y599115D01*
X663343Y599286D01*
X663290Y599324D01*
X663241Y599367D01*
X663033Y599508D01*
X662830Y599654D01*
X662772Y599685D01*
X662717Y599722D01*
X662494Y599835D01*
X662274Y599954D01*
X662212Y599978D01*
X662154Y600008D01*
X661917Y600092D01*
X661684Y600182D01*
X661620Y600198D01*
X661558Y600220D01*
X661313Y600274D01*
X661070Y600334D01*
X661005Y600341D01*
X660941Y600355D01*
X660691Y600378D01*
X660443Y600407D01*
X660377Y600406D01*
X660311Y600412D01*
X660060Y600403D01*
X659810Y600400D01*
X659745Y600391D01*
X659680Y600389D01*
X659432Y600348D01*
X659184Y600314D01*
X659121Y600296D01*
X659056Y600286D01*
X658816Y600214D01*
X658574Y600149D01*
X658513Y600124D01*
X658450Y600105D01*
X658221Y600004D01*
X657990Y599908D01*
X657932Y599876D01*
X657872Y599849D01*
X657658Y599720D01*
X657440Y599596D01*
X657387Y599557D01*
X657331Y599523D01*
X657134Y599367D01*
X656934Y599217D01*
X656887Y599171D01*
X656836Y599130D01*
X656660Y598951D01*
X656480Y598777D01*
X656439Y598726D01*
X656393Y598679D01*
X656242Y598479D01*
X656086Y598283D01*
X656051Y598227D01*
X656012Y598175D01*
X655887Y597958D01*
X655756Y597744D01*
X655729Y597683D01*
X655697Y597627D01*
X655601Y597396D01*
X655498Y597167D01*
X655479Y597104D01*
X655454Y597043D01*
X655387Y596802D01*
X655314Y596562D01*
X655303Y596497D01*
X655286Y596434D01*
X655250Y596186D01*
X655208Y595939D01*
X655204Y595865D01*
X655196Y595808D01*
X655194Y595669D01*
X655181Y595414D01*
X655181Y528533D01*
X655188Y528414D01*
X655186Y528295D01*
X655208Y528099D01*
X655221Y527902D01*
X655243Y527785D01*
X655256Y527667D01*
X655303Y527475D01*
X655340Y527282D01*
X655377Y527168D01*
X655405Y527052D01*
X655475Y526868D01*
X655537Y526681D01*
X655588Y526573D01*
X655630Y526462D01*
X655723Y526288D01*
X655807Y526110D01*
X655872Y526009D01*
X655928Y525904D01*
X656042Y525744D01*
X656148Y525577D01*
X656225Y525486D01*
X656294Y525388D01*
X656464Y525200D01*
X656553Y525092D01*
X656596Y525053D01*
X656645Y524998D01*
X669958Y511685D01*
X670048Y511606D01*
X670131Y511520D01*
X670285Y511397D01*
X670433Y511267D01*
X670531Y511200D01*
X670625Y511126D01*
X670793Y511023D01*
X670956Y510913D01*
X671062Y510859D01*
X671164Y510796D01*
X671344Y510716D01*
X671520Y510627D01*
X671632Y510587D01*
X671741Y510538D01*
X671930Y510481D01*
X672115Y510414D01*
X672231Y510389D01*
X672346Y510354D01*
X672540Y510321D01*
X672732Y510279D01*
X672851Y510268D01*
X672969Y510248D01*
X673223Y510235D01*
X673362Y510222D01*
X673420Y510225D01*
X673493Y510221D01*
X705309Y510221D01*
X708985Y508698D01*
X734268Y483415D01*
X735791Y479739D01*
X735791Y232693D01*
X735798Y232574D01*
X735796Y232455D01*
X735818Y232259D01*
X735831Y232062D01*
X735853Y231945D01*
X735866Y231827D01*
X735913Y231635D01*
X735950Y231442D01*
X735987Y231328D01*
X736015Y231212D01*
X736085Y231028D01*
X736147Y230841D01*
X736198Y230733D01*
X736240Y230622D01*
X736333Y230448D01*
X736417Y230270D01*
X736482Y230169D01*
X736538Y230064D01*
X736652Y229904D01*
X736758Y229737D01*
X736835Y229646D01*
X736904Y229548D01*
X737074Y229360D01*
X737163Y229252D01*
X737206Y229213D01*
X737255Y229158D01*
X778128Y188285D01*
X778218Y188206D01*
X778301Y188120D01*
X778455Y187997D01*
X778603Y187867D01*
X778701Y187800D01*
X778795Y187726D01*
X778963Y187623D01*
X779126Y187513D01*
X779232Y187459D01*
X779334Y187396D01*
X779514Y187316D01*
X779690Y187227D01*
X779802Y187187D01*
X779911Y187138D01*
X780100Y187081D01*
X780285Y187014D01*
X780401Y186989D01*
X780516Y186954D01*
X780710Y186921D01*
X780902Y186879D01*
X781021Y186868D01*
X781139Y186848D01*
X781393Y186835D01*
X781532Y186822D01*
X781590Y186825D01*
X781663Y186821D01*
X821337Y186821D01*
X821456Y186828D01*
X821575Y186826D01*
X821771Y186848D01*
X821968Y186861D01*
X822085Y186883D01*
X822203Y186896D01*
X822395Y186943D01*
X822588Y186980D01*
X822702Y187017D01*
X822818Y187045D01*
X823002Y187115D01*
X823189Y187177D01*
X823297Y187228D01*
X823408Y187270D01*
X823582Y187363D01*
X823760Y187447D01*
X823861Y187512D01*
X823966Y187568D01*
X824126Y187682D01*
X824293Y187788D01*
X824384Y187865D01*
X824482Y187934D01*
X824670Y188104D01*
X824778Y188193D01*
X824817Y188236D01*
X824872Y188285D01*
X832245Y195658D01*
X832324Y195748D01*
X832410Y195831D01*
X832533Y195985D01*
X832663Y196133D01*
X832730Y196231D01*
X832804Y196325D01*
X832907Y196493D01*
X833017Y196656D01*
X833071Y196762D01*
X833134Y196864D01*
X833214Y197044D01*
X833303Y197220D01*
X833343Y197332D01*
X833392Y197441D01*
X833449Y197630D01*
X833516Y197815D01*
X833541Y197931D01*
X833576Y198046D01*
X833609Y198240D01*
X833651Y198432D01*
X833662Y198551D01*
X833682Y198669D01*
X833695Y198923D01*
X833708Y199062D01*
X833705Y199120D01*
X833709Y199193D01*
X833709Y245608D01*
X833702Y245727D01*
X833704Y245847D01*
X833682Y246043D01*
X833669Y246239D01*
X833647Y246356D01*
X833634Y246475D01*
X833587Y246667D01*
X833550Y246860D01*
X833513Y246974D01*
X833485Y247089D01*
X833415Y247273D01*
X833353Y247461D01*
X833302Y247569D01*
X833260Y247680D01*
X833167Y247854D01*
X833083Y248032D01*
X833018Y248133D01*
X832962Y248238D01*
X832848Y248398D01*
X832742Y248564D01*
X832665Y248656D01*
X832596Y248753D01*
X832426Y248942D01*
X832337Y249049D01*
X832294Y249089D01*
X832245Y249143D01*
X832105Y249283D01*
X832105Y258897D01*
X838903Y265695D01*
X848517Y265695D01*
X855315Y258897D01*
X855315Y249283D01*
X855175Y249143D01*
X855096Y249054D01*
X855010Y248971D01*
X854887Y248817D01*
X854757Y248669D01*
X854690Y248570D01*
X854616Y248477D01*
X854513Y248309D01*
X854403Y248146D01*
X854349Y248039D01*
X854286Y247938D01*
X854206Y247758D01*
X854117Y247582D01*
X854077Y247470D01*
X854028Y247361D01*
X853971Y247172D01*
X853904Y246987D01*
X853879Y246870D01*
X853844Y246756D01*
X853811Y246561D01*
X853769Y246369D01*
X853758Y246251D01*
X853738Y246133D01*
X853725Y245879D01*
X853712Y245740D01*
X853715Y245682D01*
X853711Y245608D01*
X853711Y190991D01*
X852188Y187315D01*
X845228Y180355D01*
X845106Y180216D01*
X844977Y180084D01*
X844897Y179979D01*
X844810Y179881D01*
X844707Y179728D01*
X844595Y179580D01*
X844529Y179466D01*
X844456Y179357D01*
X844372Y179193D01*
X844280Y179032D01*
X844229Y178911D01*
X844170Y178794D01*
X844108Y178619D01*
X844037Y178449D01*
X844002Y178322D01*
X843958Y178198D01*
X843918Y178018D01*
X843869Y177839D01*
X843850Y177709D01*
X843822Y177581D01*
X843806Y177397D01*
X843779Y177214D01*
X843777Y177082D01*
X843766Y176951D01*
X843773Y176766D01*
X843770Y176582D01*
X843784Y176451D01*
X843789Y176320D01*
X843819Y176137D01*
X843840Y175953D01*
X843871Y175826D01*
X843892Y175696D01*
X843945Y175519D01*
X843988Y175339D01*
X844035Y175216D01*
X844073Y175090D01*
X844148Y174921D01*
X844213Y174748D01*
X844275Y174632D01*
X844328Y174512D01*
X844424Y174354D01*
X844511Y174191D01*
X844587Y174084D01*
X844655Y173971D01*
X844770Y173826D01*
X844877Y173675D01*
X844980Y173561D01*
X845047Y173476D01*
X845125Y173399D01*
X845228Y173285D01*
X849642Y168871D01*
X853158Y165355D01*
X854681Y161679D01*
X854681Y141934D01*
X854697Y141685D01*
X854706Y141434D01*
X854717Y141369D01*
X854721Y141303D01*
X854768Y141058D01*
X854809Y140810D01*
X854828Y140747D01*
X854840Y140683D01*
X854918Y140444D01*
X854990Y140204D01*
X855016Y140144D01*
X855037Y140082D01*
X855144Y139855D01*
X855245Y139626D01*
X855279Y139570D01*
X855307Y139511D01*
X855443Y139299D01*
X855572Y139085D01*
X855613Y139034D01*
X855648Y138978D01*
X855809Y138786D01*
X855964Y138590D01*
X856011Y138544D01*
X856053Y138493D01*
X856237Y138323D01*
X856416Y138148D01*
X856468Y138108D01*
X856517Y138063D01*
X856720Y137917D01*
X856920Y137766D01*
X856977Y137733D01*
X857030Y137695D01*
X857251Y137576D01*
X857468Y137451D01*
X857529Y137426D01*
X857586Y137394D01*
X857820Y137304D01*
X858051Y137208D01*
X858115Y137190D01*
X858176Y137167D01*
X858419Y137106D01*
X858661Y137040D01*
X858726Y137031D01*
X858790Y137015D01*
X859038Y136986D01*
X859286Y136950D01*
X859352Y136949D01*
X859417Y136942D01*
X859667Y136945D01*
X859918Y136941D01*
X859984Y136948D01*
X860050Y136949D01*
X860297Y136983D01*
X860547Y137011D01*
X860611Y137026D01*
X860676Y137035D01*
X860917Y137100D01*
X861161Y137159D01*
X861223Y137183D01*
X861286Y137200D01*
X861517Y137295D01*
X861752Y137384D01*
X861810Y137415D01*
X861870Y137440D01*
X862088Y137564D01*
X862309Y137682D01*
X862363Y137720D01*
X862420Y137753D01*
X862620Y137903D01*
X862825Y138048D01*
X862880Y138097D01*
X862926Y138132D01*
X863026Y138229D01*
X863215Y138399D01*
X865833Y141017D01*
X871346Y143301D01*
X897314Y143301D01*
X902827Y141017D01*
X907047Y136797D01*
X909331Y131284D01*
X909331Y125316D01*
X907047Y119803D01*
X902827Y115583D01*
X897314Y113299D01*
X886823Y113299D01*
X886574Y113283D01*
X886323Y113274D01*
X886258Y113263D01*
X886192Y113259D01*
X885947Y113212D01*
X885699Y113171D01*
X885636Y113152D01*
X885572Y113140D01*
X885333Y113062D01*
X885093Y112990D01*
X885033Y112964D01*
X884971Y112943D01*
X884744Y112836D01*
X884515Y112735D01*
X884459Y112701D01*
X884400Y112673D01*
X884188Y112537D01*
X883974Y112408D01*
X883923Y112367D01*
X883867Y112332D01*
X883675Y112171D01*
X883479Y112016D01*
X883433Y111969D01*
X883382Y111927D01*
X883212Y111743D01*
X883037Y111564D01*
X882997Y111512D01*
X882952Y111463D01*
X882806Y111260D01*
X882655Y111060D01*
X882622Y111003D01*
X882584Y110950D01*
X882465Y110729D01*
X882340Y110512D01*
X882315Y110451D01*
X882283Y110394D01*
X882193Y110159D01*
X882097Y109929D01*
X882079Y109865D01*
X882056Y109804D01*
X881995Y109561D01*
X881929Y109319D01*
X881920Y109254D01*
X881904Y109190D01*
X881875Y108942D01*
X881839Y108694D01*
X881838Y108628D01*
X881831Y108563D01*
X881834Y108313D01*
X881830Y108062D01*
X881837Y107996D01*
X881838Y107930D01*
X881872Y107683D01*
X881900Y107433D01*
X881915Y107369D01*
X881924Y107304D01*
X881989Y107063D01*
X882048Y106819D01*
X882072Y106757D01*
X882089Y106694D01*
X882184Y106463D01*
X882273Y106228D01*
X882304Y106170D01*
X882329Y106110D01*
X882453Y105892D01*
X882571Y105671D01*
X882609Y105617D01*
X882642Y105560D01*
X882792Y105360D01*
X882937Y105155D01*
X882986Y105100D01*
X883021Y105054D01*
X883118Y104954D01*
X883288Y104765D01*
X885268Y102785D01*
X886791Y99109D01*
X886791Y66613D01*
X886798Y66494D01*
X886796Y66375D01*
X886818Y66179D01*
X886831Y65982D01*
X886853Y65865D01*
X886866Y65747D01*
X886913Y65555D01*
X886950Y65362D01*
X886987Y65248D01*
X887015Y65132D01*
X887085Y64948D01*
X887147Y64761D01*
X887198Y64653D01*
X887240Y64542D01*
X887333Y64368D01*
X887417Y64190D01*
X887482Y64089D01*
X887538Y63984D01*
X887652Y63824D01*
X887758Y63657D01*
X887835Y63566D01*
X887904Y63468D01*
X888074Y63280D01*
X888163Y63172D01*
X888206Y63133D01*
X888255Y63078D01*
X891828Y59505D01*
X891918Y59426D01*
X892001Y59340D01*
X892155Y59217D01*
X892303Y59087D01*
X892401Y59020D01*
X892495Y58946D01*
X892663Y58843D01*
X892826Y58733D01*
X892932Y58679D01*
X893034Y58616D01*
X893214Y58536D01*
X893390Y58447D01*
X893502Y58407D01*
X893611Y58358D01*
X893800Y58301D01*
X893985Y58234D01*
X894101Y58209D01*
X894216Y58174D01*
X894410Y58141D01*
X894602Y58099D01*
X894721Y58088D01*
X894839Y58068D01*
X895093Y58055D01*
X895232Y58042D01*
X895290Y58045D01*
X895363Y58041D01*
X898352Y58041D01*
X898569Y58055D01*
X898787Y58060D01*
X898885Y58074D01*
X898983Y58081D01*
X899197Y58122D01*
X899412Y58154D01*
X899507Y58181D01*
X899604Y58200D01*
X899811Y58268D01*
X900020Y58327D01*
X900111Y58366D01*
X900204Y58397D01*
X900402Y58490D01*
X900601Y58575D01*
X900686Y58625D01*
X900776Y58667D01*
X900959Y58785D01*
X901147Y58895D01*
X901225Y58955D01*
X901308Y59008D01*
X901475Y59148D01*
X901648Y59281D01*
X901717Y59350D01*
X901793Y59413D01*
X901941Y59573D01*
X902096Y59727D01*
X902156Y59804D01*
X902223Y59877D01*
X902350Y60053D01*
X902484Y60225D01*
X902534Y60310D01*
X902591Y60390D01*
X902695Y60582D01*
X902806Y60769D01*
X902845Y60860D01*
X902892Y60946D01*
X902970Y61149D01*
X903057Y61349D01*
X903084Y61444D01*
X903120Y61536D01*
X903172Y61747D01*
X903233Y61957D01*
X903248Y62054D01*
X903271Y62150D01*
X903297Y62366D01*
X903330Y62581D01*
X903333Y62679D01*
X903344Y62777D01*
X903342Y62995D01*
X903348Y63213D01*
X903339Y63311D01*
X903338Y63410D01*
X903308Y63625D01*
X903287Y63842D01*
X903265Y63938D01*
X903251Y64036D01*
X903194Y64246D01*
X903146Y64458D01*
X903108Y64564D01*
X903086Y64646D01*
X903037Y64765D01*
X902971Y64953D01*
X902429Y66260D01*
X902004Y67848D01*
X901789Y69478D01*
X901789Y75301D01*
X914330Y75301D01*
X914514Y75312D01*
X914699Y75314D01*
X914829Y75332D01*
X914960Y75341D01*
X915142Y75375D01*
X915325Y75401D01*
X915452Y75435D01*
X915581Y75460D01*
X915757Y75517D01*
X915936Y75566D01*
X916057Y75615D01*
X916182Y75656D01*
X916349Y75736D01*
X916520Y75806D01*
X916634Y75871D01*
X916753Y75927D01*
X916909Y76027D01*
X917070Y76118D01*
X917175Y76197D01*
X917285Y76268D01*
X917428Y76387D01*
X917575Y76498D01*
X917670Y76589D01*
X917771Y76673D01*
X917771Y76674D01*
X917896Y76809D01*
X918029Y76937D01*
X918029Y76938D01*
X918030Y76938D01*
X918112Y77041D01*
X918201Y77137D01*
X918309Y77287D01*
X918424Y77432D01*
X918493Y77544D01*
X918569Y77651D01*
X918657Y77813D01*
X918754Y77971D01*
X918808Y78091D01*
X918870Y78207D01*
X918937Y78379D01*
X919012Y78548D01*
X919050Y78674D01*
X919098Y78796D01*
X919142Y78976D01*
X919196Y79153D01*
X919218Y79283D01*
X919249Y79410D01*
X919271Y79593D01*
X919302Y79776D01*
X919310Y79930D01*
X919322Y80038D01*
X919321Y80147D01*
X919329Y80300D01*
X919329Y101803D01*
X919403Y101773D01*
X919609Y101702D01*
X919812Y101624D01*
X919908Y101600D01*
X920001Y101568D01*
X920214Y101524D01*
X920426Y101472D01*
X920524Y101461D01*
X920620Y101441D01*
X920837Y101424D01*
X921053Y101399D01*
X921152Y101400D01*
X921250Y101393D01*
X921468Y101404D01*
X921686Y101406D01*
X921783Y101419D01*
X921882Y101424D01*
X922096Y101463D01*
X922312Y101492D01*
X922407Y101518D01*
X922504Y101535D01*
X922712Y101600D01*
X922922Y101657D01*
X923013Y101695D01*
X923107Y101724D01*
X923305Y101815D01*
X923506Y101898D01*
X923592Y101946D01*
X923682Y101987D01*
X923867Y102102D01*
X924056Y102210D01*
X924135Y102269D01*
X924219Y102321D01*
X924388Y102459D01*
X924562Y102589D01*
X924632Y102658D01*
X924709Y102720D01*
X924859Y102877D01*
X925016Y103029D01*
X925077Y103106D01*
X925145Y103177D01*
X925274Y103352D01*
X925410Y103523D01*
X925462Y103607D01*
X925520Y103686D01*
X925626Y103876D01*
X925740Y104062D01*
X925780Y104152D01*
X925828Y104238D01*
X925909Y104440D01*
X925998Y104639D01*
X926027Y104734D01*
X926063Y104825D01*
X926118Y105035D01*
X926182Y105244D01*
X926198Y105341D01*
X926223Y105436D01*
X926251Y105652D01*
X926288Y105867D01*
X926294Y105979D01*
X926304Y106063D01*
X926305Y106192D01*
X926315Y106391D01*
X926315Y214405D01*
X926308Y214524D01*
X926310Y214643D01*
X926288Y214839D01*
X926275Y215036D01*
X926253Y215153D01*
X926240Y215271D01*
X926193Y215463D01*
X926156Y215656D01*
X926119Y215770D01*
X926091Y215886D01*
X926021Y216070D01*
X925959Y216257D01*
X925908Y216365D01*
X925866Y216476D01*
X925773Y216650D01*
X925689Y216828D01*
X925624Y216929D01*
X925568Y217034D01*
X925454Y217194D01*
X925348Y217361D01*
X925271Y217452D01*
X925202Y217550D01*
X925032Y217738D01*
X924985Y217794D01*
X923455Y221489D01*
X923455Y257518D01*
X923450Y257604D01*
X923452Y257691D01*
X923430Y257919D01*
X923415Y258149D01*
X923399Y258234D01*
X923391Y258320D01*
X923339Y258544D01*
X923296Y258769D01*
X923269Y258852D01*
X923250Y258936D01*
X923139Y259249D01*
X923099Y259370D01*
X923087Y259397D01*
X923075Y259431D01*
X920835Y264838D01*
X920835Y285098D01*
X923075Y290505D01*
X923103Y290587D01*
X923138Y290666D01*
X923205Y290886D01*
X923279Y291103D01*
X923297Y291188D01*
X923322Y291271D01*
X923360Y291498D01*
X923407Y291722D01*
X923413Y291808D01*
X923428Y291894D01*
X923445Y292227D01*
X923455Y292352D01*
X923453Y292382D01*
X923455Y292418D01*
X923455Y322542D01*
X923450Y322628D01*
X923452Y322715D01*
X923430Y322943D01*
X923415Y323173D01*
X923399Y323258D01*
X923391Y323344D01*
X923339Y323568D01*
X923296Y323793D01*
X923269Y323876D01*
X923250Y323960D01*
X923139Y324274D01*
X923099Y324394D01*
X923087Y324421D01*
X923075Y324455D01*
X920835Y329862D01*
X920835Y350122D01*
X922757Y354761D01*
X926307Y358311D01*
X930946Y360233D01*
X936212Y360233D01*
X936340Y360201D01*
X936437Y360190D01*
X936534Y360170D01*
X936751Y360153D01*
X936967Y360128D01*
X937066Y360129D01*
X937164Y360122D01*
X937382Y360133D01*
X937600Y360135D01*
X937697Y360148D01*
X937795Y360153D01*
X938010Y360192D01*
X938226Y360221D01*
X938321Y360247D01*
X938418Y360264D01*
X938626Y360330D01*
X938836Y360386D01*
X938927Y360424D01*
X939021Y360453D01*
X939219Y360544D01*
X939420Y360627D01*
X939506Y360675D01*
X939596Y360716D01*
X939780Y360831D01*
X939970Y360939D01*
X940049Y360998D01*
X940132Y361050D01*
X940301Y361187D01*
X940476Y361318D01*
X940547Y361387D01*
X940623Y361449D01*
X940773Y361606D01*
X940930Y361758D01*
X940991Y361835D01*
X941059Y361906D01*
X941188Y362082D01*
X941324Y362252D01*
X941376Y362336D01*
X941434Y362415D01*
X941540Y362605D01*
X941654Y362791D01*
X941694Y362881D01*
X941742Y362967D01*
X941823Y363169D01*
X941912Y363368D01*
X941941Y363462D01*
X941977Y363554D01*
X942033Y363765D01*
X942096Y363973D01*
X942112Y364070D01*
X942137Y364165D01*
X942165Y364381D01*
X942202Y364596D01*
X942208Y364708D01*
X942218Y364792D01*
X942219Y364921D01*
X942229Y365120D01*
X942229Y686657D01*
X942222Y686776D01*
X942224Y686895D01*
X942202Y687091D01*
X942189Y687288D01*
X942167Y687405D01*
X942154Y687523D01*
X942107Y687715D01*
X942070Y687908D01*
X942033Y688022D01*
X942005Y688138D01*
X941935Y688322D01*
X941873Y688509D01*
X941822Y688617D01*
X941780Y688728D01*
X941687Y688902D01*
X941603Y689080D01*
X941538Y689181D01*
X941482Y689286D01*
X941368Y689446D01*
X941262Y689613D01*
X941185Y689704D01*
X941116Y689802D01*
X940946Y689990D01*
X940857Y690098D01*
X940814Y690137D01*
X940765Y690192D01*
X917985Y712972D01*
X917797Y713137D01*
X917613Y713308D01*
X917560Y713346D01*
X917511Y713390D01*
X917303Y713531D01*
X917100Y713676D01*
X917042Y713707D01*
X916987Y713744D01*
X916763Y713858D01*
X916544Y713977D01*
X916482Y714000D01*
X916424Y714030D01*
X916188Y714114D01*
X915954Y714204D01*
X915890Y714220D01*
X915828Y714242D01*
X915584Y714296D01*
X915340Y714356D01*
X915275Y714364D01*
X915211Y714378D01*
X914961Y714400D01*
X914713Y714429D01*
X914647Y714428D01*
X914581Y714434D01*
X914330Y714425D01*
X914080Y714422D01*
X914016Y714413D01*
X913950Y714411D01*
X913702Y714370D01*
X913454Y714336D01*
X913391Y714319D01*
X913326Y714308D01*
X913086Y714236D01*
X912844Y714171D01*
X912783Y714146D01*
X912720Y714127D01*
X912491Y714026D01*
X912260Y713931D01*
X912202Y713898D01*
X912142Y713872D01*
X911928Y713742D01*
X911710Y713618D01*
X911657Y713579D01*
X911601Y713545D01*
X911404Y713389D01*
X911204Y713239D01*
X911157Y713193D01*
X911105Y713153D01*
X910930Y712974D01*
X910750Y712799D01*
X910709Y712748D01*
X910663Y712701D01*
X910512Y712501D01*
X910356Y712305D01*
X910321Y712249D01*
X910282Y712197D01*
X910157Y711980D01*
X910026Y711766D01*
X910000Y711706D01*
X909967Y711649D01*
X909870Y711418D01*
X909768Y711189D01*
X909749Y711126D01*
X909723Y711066D01*
X909657Y710824D01*
X909584Y710584D01*
X909573Y710520D01*
X909556Y710456D01*
X909520Y710208D01*
X909478Y709961D01*
X909474Y709888D01*
X909466Y709830D01*
X909464Y709690D01*
X909451Y709437D01*
X909451Y705026D01*
X907167Y699513D01*
X902947Y695293D01*
X897434Y693009D01*
X871466Y693009D01*
X865953Y695293D01*
X861733Y699513D01*
X859449Y705026D01*
X859449Y710994D01*
X861733Y716507D01*
X865953Y720727D01*
X871466Y723011D01*
X895877Y723011D01*
X896126Y723027D01*
X896377Y723036D01*
X896442Y723047D01*
X896508Y723051D01*
X896754Y723098D01*
X897001Y723139D01*
X897064Y723157D01*
X897128Y723170D01*
X897367Y723248D01*
X897607Y723320D01*
X897667Y723346D01*
X897729Y723367D01*
X897956Y723474D01*
X898185Y723575D01*
X898241Y723609D01*
X898300Y723637D01*
X898511Y723772D01*
X898726Y723902D01*
X898777Y723943D01*
X898833Y723978D01*
X899025Y724139D01*
X899221Y724294D01*
X899267Y724341D01*
X899318Y724383D01*
X899488Y724567D01*
X899663Y724746D01*
X899703Y724798D01*
X899748Y724847D01*
X899894Y725050D01*
X900045Y725250D01*
X900078Y725307D01*
X900116Y725360D01*
X900235Y725580D01*
X900360Y725798D01*
X900385Y725859D01*
X900417Y725916D01*
X900507Y726150D01*
X900603Y726381D01*
X900621Y726445D01*
X900644Y726506D01*
X900705Y726749D01*
X900771Y726991D01*
X900780Y727056D01*
X900796Y727120D01*
X900825Y727368D01*
X900861Y727616D01*
X900862Y727682D01*
X900869Y727747D01*
X900866Y727997D01*
X900870Y728248D01*
X900863Y728314D01*
X900862Y728380D01*
X900828Y728627D01*
X900800Y728877D01*
X900785Y728941D01*
X900776Y729006D01*
X900711Y729247D01*
X900652Y729491D01*
X900628Y729553D01*
X900611Y729616D01*
X900516Y729848D01*
X900427Y730082D01*
X900396Y730140D01*
X900371Y730200D01*
X900247Y730419D01*
X900129Y730639D01*
X900091Y730693D01*
X900058Y730750D01*
X899908Y730951D01*
X899763Y731155D01*
X899714Y731209D01*
X899679Y731256D01*
X899582Y731356D01*
X899412Y731545D01*
X892662Y738295D01*
X892572Y738374D01*
X892489Y738460D01*
X892335Y738583D01*
X892187Y738713D01*
X892089Y738780D01*
X891995Y738854D01*
X891827Y738957D01*
X891664Y739067D01*
X891558Y739121D01*
X891456Y739184D01*
X891276Y739264D01*
X891100Y739353D01*
X890988Y739393D01*
X890879Y739442D01*
X890691Y739499D01*
X890505Y739566D01*
X890389Y739591D01*
X890274Y739626D01*
X890080Y739659D01*
X889888Y739701D01*
X889769Y739712D01*
X889651Y739732D01*
X889397Y739745D01*
X889258Y739758D01*
X889200Y739755D01*
X889127Y739759D01*
X423963Y739759D01*
X423844Y739752D01*
X423725Y739754D01*
X423529Y739732D01*
X423332Y739719D01*
X423215Y739697D01*
X423097Y739684D01*
X422905Y739637D01*
X422712Y739600D01*
X422598Y739563D01*
X422482Y739535D01*
X422298Y739465D01*
X422111Y739403D01*
X422003Y739352D01*
X421892Y739310D01*
X421718Y739217D01*
X421540Y739133D01*
X421439Y739068D01*
X421334Y739012D01*
X421174Y738898D01*
X421007Y738792D01*
X420916Y738715D01*
X420818Y738646D01*
X420630Y738476D01*
X420522Y738387D01*
X420483Y738344D01*
X420428Y738295D01*
X402645Y720512D01*
X402566Y720422D01*
X402480Y720339D01*
X402357Y720185D01*
X402227Y720037D01*
X402160Y719939D01*
X402086Y719845D01*
X401983Y719677D01*
X401873Y719514D01*
X401819Y719408D01*
X401756Y719306D01*
X401676Y719126D01*
X401587Y718950D01*
X401547Y718838D01*
X401498Y718729D01*
X401441Y718540D01*
X401374Y718355D01*
X401349Y718239D01*
X401314Y718124D01*
X401281Y717930D01*
X401239Y717738D01*
X401228Y717619D01*
X401208Y717501D01*
X401195Y717247D01*
X401182Y717108D01*
X401185Y717050D01*
X401181Y716977D01*
X401181Y710986D01*
X401197Y710735D01*
X401206Y710485D01*
X401217Y710420D01*
X401221Y710355D01*
X401268Y710108D01*
X401309Y709861D01*
X401327Y709799D01*
X401340Y709734D01*
X401418Y709496D01*
X401490Y709256D01*
X401516Y709196D01*
X401537Y709133D01*
X401644Y708907D01*
X401745Y708678D01*
X401779Y708622D01*
X401807Y708562D01*
X401943Y708351D01*
X402072Y708137D01*
X402113Y708085D01*
X402148Y708030D01*
X402309Y707838D01*
X402464Y707641D01*
X402511Y707595D01*
X402553Y707545D01*
X402737Y707374D01*
X402916Y707199D01*
X402968Y707159D01*
X403017Y707114D01*
X403220Y706969D01*
X403420Y706817D01*
X403477Y706784D01*
X403530Y706746D01*
X403750Y706627D01*
X403968Y706502D01*
X404029Y706477D01*
X404086Y706446D01*
X404320Y706356D01*
X404551Y706259D01*
X404615Y706242D01*
X404676Y706218D01*
X404919Y706158D01*
X405161Y706091D01*
X405226Y706082D01*
X405290Y706066D01*
X405538Y706037D01*
X405787Y706002D01*
X405852Y706001D01*
X405917Y705993D01*
X406167Y705996D01*
X406419Y705992D01*
X406484Y705999D01*
X406550Y706000D01*
X406798Y706034D01*
X407047Y706062D01*
X407111Y706077D01*
X407176Y706086D01*
X407418Y706152D01*
X407661Y706211D01*
X407723Y706234D01*
X407786Y706251D01*
X408018Y706347D01*
X408252Y706436D01*
X408310Y706467D01*
X408370Y706492D01*
X408588Y706616D01*
X408809Y706734D01*
X408863Y706772D01*
X408920Y706804D01*
X409120Y706954D01*
X409325Y707099D01*
X409380Y707149D01*
X409426Y707183D01*
X409526Y707281D01*
X409715Y707451D01*
X410006Y707742D01*
X414272Y709509D01*
X418888Y709509D01*
X423154Y707742D01*
X425745Y705151D01*
X425884Y705028D01*
X426016Y704899D01*
X426121Y704820D01*
X426219Y704733D01*
X426373Y704629D01*
X426520Y704517D01*
X426634Y704452D01*
X426743Y704378D01*
X426908Y704294D01*
X427068Y704202D01*
X427189Y704152D01*
X427306Y704092D01*
X427481Y704030D01*
X427651Y703959D01*
X427778Y703924D01*
X427902Y703880D01*
X428082Y703840D01*
X428261Y703791D01*
X428391Y703773D01*
X428519Y703745D01*
X428703Y703728D01*
X428886Y703702D01*
X429018Y703700D01*
X429149Y703688D01*
X429334Y703695D01*
X429519Y703692D01*
X429649Y703707D01*
X429780Y703711D01*
X429963Y703742D01*
X430147Y703762D01*
X430275Y703793D01*
X430404Y703814D01*
X430581Y703867D01*
X430761Y703911D01*
X430884Y703958D01*
X431010Y703995D01*
X431179Y704070D01*
X431352Y704136D01*
X431468Y704198D01*
X431588Y704251D01*
X431746Y704346D01*
X431909Y704434D01*
X432016Y704509D01*
X432129Y704577D01*
X432274Y704692D01*
X432425Y704799D01*
X432539Y704902D01*
X432625Y704970D01*
X432701Y705048D01*
X432815Y705151D01*
X435407Y707742D01*
X439672Y709509D01*
X444288Y709509D01*
X448554Y707742D01*
X451145Y705151D01*
X451284Y705028D01*
X451416Y704899D01*
X451521Y704820D01*
X451619Y704733D01*
X451773Y704629D01*
X451920Y704517D01*
X452034Y704452D01*
X452143Y704378D01*
X452308Y704294D01*
X452468Y704202D01*
X452589Y704152D01*
X452706Y704092D01*
X452881Y704030D01*
X453051Y703959D01*
X453178Y703924D01*
X453302Y703880D01*
X453482Y703840D01*
X453661Y703791D01*
X453791Y703773D01*
X453919Y703745D01*
X454103Y703728D01*
X454286Y703702D01*
X454418Y703700D01*
X454549Y703688D01*
X454734Y703695D01*
X454919Y703692D01*
X455049Y703707D01*
X455180Y703711D01*
X455363Y703742D01*
X455547Y703762D01*
X455675Y703793D01*
X455804Y703814D01*
X455981Y703867D01*
X456161Y703911D01*
X456284Y703958D01*
X456410Y703995D01*
X456579Y704070D01*
X456752Y704136D01*
X456868Y704198D01*
X456988Y704251D01*
X457146Y704346D01*
X457309Y704434D01*
X457416Y704509D01*
X457529Y704577D01*
X457674Y704692D01*
X457825Y704799D01*
X457939Y704902D01*
X458025Y704970D01*
X458101Y705048D01*
X458215Y705151D01*
X460807Y707742D01*
X465072Y709509D01*
X469688Y709509D01*
X473954Y707742D01*
X477265Y704431D01*
X477339Y704276D01*
X477351Y704258D01*
X477361Y704238D01*
X477522Y703992D01*
X477682Y703745D01*
X477696Y703728D01*
X477708Y703710D01*
X477899Y703487D01*
X478089Y703262D01*
X478106Y703247D01*
X478120Y703230D01*
X478338Y703032D01*
X478554Y702834D01*
X478572Y702821D01*
X478589Y702806D01*
X478831Y702637D01*
X479070Y702468D01*
X479089Y702457D01*
X479107Y702445D01*
X479368Y702308D01*
X479627Y702170D01*
X479648Y702162D01*
X479667Y702151D01*
X479942Y702049D01*
X480218Y701944D01*
X480239Y701939D01*
X480260Y701931D01*
X480546Y701865D01*
X480832Y701795D01*
X480854Y701793D01*
X480875Y701788D01*
X481169Y701757D01*
X481460Y701725D01*
X481482Y701725D01*
X481504Y701723D01*
X481799Y701730D01*
X482092Y701734D01*
X482114Y701737D01*
X482136Y701738D01*
X482428Y701782D01*
X482718Y701824D01*
X482739Y701829D01*
X482761Y701833D01*
X483044Y701913D01*
X483327Y701991D01*
X483348Y701999D01*
X483369Y702005D01*
X483639Y702121D01*
X483911Y702234D01*
X483930Y702245D01*
X483950Y702254D01*
X484203Y702402D01*
X484459Y702549D01*
X484477Y702562D01*
X484496Y702573D01*
X484727Y702752D01*
X484963Y702930D01*
X484979Y702945D01*
X484996Y702959D01*
X485204Y703165D01*
X485415Y703372D01*
X485430Y703391D01*
X485444Y703405D01*
X485511Y703490D01*
X485746Y703780D01*
X485805Y703862D01*
X486823Y704879D01*
X487781Y705575D01*
X487781Y691300D01*
X487792Y691116D01*
X487794Y690931D01*
X487812Y690801D01*
X487821Y690670D01*
X487855Y690488D01*
X487881Y690305D01*
X487915Y690178D01*
X487940Y690049D01*
X487997Y689873D01*
X488046Y689694D01*
X488095Y689573D01*
X488136Y689448D01*
X488216Y689281D01*
X488286Y689110D01*
X488351Y688996D01*
X488407Y688877D01*
X488507Y688721D01*
X488598Y688560D01*
X488677Y688455D01*
X488748Y688345D01*
X488867Y688202D01*
X488978Y688055D01*
X489069Y687960D01*
X489153Y687859D01*
X489289Y687734D01*
X489417Y687601D01*
X489520Y687519D01*
X489616Y687429D01*
X489766Y687322D01*
X489911Y687206D01*
X490024Y687137D01*
X490130Y687061D01*
X490293Y686973D01*
X490451Y686877D01*
X490571Y686823D01*
X490686Y686761D01*
X490859Y686694D01*
X491028Y686618D01*
X491153Y686580D01*
X491276Y686533D01*
X491455Y686488D01*
X491632Y686435D01*
X491762Y686413D01*
X491889Y686381D01*
X492073Y686360D01*
X492256Y686329D01*
X492409Y686321D01*
X492517Y686308D01*
X492518Y686308D01*
X492626Y686309D01*
X492780Y686301D01*
X492965Y686313D01*
X493150Y686315D01*
X493280Y686333D01*
X493411Y686341D01*
X493593Y686376D01*
X493776Y686401D01*
X493903Y686435D01*
X494032Y686460D01*
X494208Y686518D01*
X494386Y686566D01*
X494507Y686616D01*
X494632Y686657D01*
X494800Y686736D01*
X494971Y686807D01*
X495085Y686871D01*
X495204Y686928D01*
X495359Y687028D01*
X495520Y687119D01*
X495625Y687198D01*
X495736Y687268D01*
X495878Y687387D01*
X496026Y687498D01*
X496120Y687589D01*
X496221Y687674D01*
X496347Y687809D01*
X496480Y687938D01*
X496562Y688041D01*
X496651Y688137D01*
X496759Y688287D01*
X496874Y688432D01*
X496943Y688544D01*
X497019Y688651D01*
X497107Y688813D01*
X497204Y688971D01*
X497258Y689091D01*
X497320Y689207D01*
X497387Y689379D01*
X497462Y689548D01*
X497500Y689674D01*
X497548Y689796D01*
X497592Y689976D01*
X497646Y690153D01*
X497668Y690283D01*
X497699Y690410D01*
X497721Y690593D01*
X497752Y690776D01*
X497760Y690930D01*
X497772Y691038D01*
X497771Y691147D01*
X497779Y691300D01*
X497779Y705575D01*
X498737Y704879D01*
X499755Y703862D01*
X499814Y703780D01*
X500003Y703552D01*
X500188Y703325D01*
X500204Y703310D01*
X500218Y703293D01*
X500432Y703093D01*
X500645Y702889D01*
X500663Y702876D01*
X500679Y702861D01*
X500916Y702689D01*
X501154Y702514D01*
X501173Y702503D01*
X501191Y702490D01*
X501449Y702350D01*
X501706Y702206D01*
X501726Y702198D01*
X501746Y702188D01*
X502020Y702080D01*
X502293Y701971D01*
X502314Y701965D01*
X502334Y701957D01*
X502620Y701885D01*
X502904Y701811D01*
X502926Y701808D01*
X502947Y701803D01*
X503241Y701767D01*
X503531Y701730D01*
X503553Y701730D01*
X503575Y701727D01*
X503870Y701729D01*
X504163Y701728D01*
X504185Y701731D01*
X504207Y701731D01*
X504499Y701770D01*
X504790Y701807D01*
X504812Y701812D01*
X504834Y701815D01*
X505118Y701890D01*
X505403Y701963D01*
X505423Y701971D01*
X505445Y701977D01*
X505716Y702087D01*
X505990Y702196D01*
X506010Y702207D01*
X506030Y702215D01*
X506286Y702359D01*
X506544Y702501D01*
X506562Y702514D01*
X506581Y702525D01*
X506816Y702700D01*
X507055Y702874D01*
X507071Y702889D01*
X507088Y702902D01*
X507299Y703105D01*
X507514Y703308D01*
X507528Y703325D01*
X507544Y703340D01*
X507728Y703568D01*
X507915Y703796D01*
X507927Y703815D01*
X507941Y703832D01*
X508095Y704081D01*
X508252Y704331D01*
X508262Y704353D01*
X508272Y704370D01*
X508304Y704440D01*
X511606Y707742D01*
X515872Y709509D01*
X520488Y709509D01*
X524754Y707742D01*
X527345Y705151D01*
X527484Y705028D01*
X527616Y704899D01*
X527721Y704820D01*
X527819Y704733D01*
X527973Y704629D01*
X528120Y704517D01*
X528234Y704452D01*
X528343Y704378D01*
X528508Y704294D01*
X528668Y704202D01*
X528789Y704152D01*
X528906Y704092D01*
X529081Y704030D01*
X529251Y703959D01*
X529378Y703924D01*
X529502Y703880D01*
X529682Y703840D01*
X529861Y703791D01*
X529991Y703773D01*
X530119Y703745D01*
X530303Y703728D01*
X530486Y703702D01*
X530618Y703700D01*
X530749Y703688D01*
X530934Y703695D01*
X531119Y703692D01*
X531249Y703707D01*
X531380Y703711D01*
X531563Y703742D01*
X531747Y703762D01*
X531875Y703793D01*
X532004Y703814D01*
X532181Y703867D01*
X532361Y703911D01*
X532484Y703958D01*
X532610Y703995D01*
X532779Y704070D01*
X532952Y704136D01*
X533068Y704198D01*
X533188Y704251D01*
X533346Y704346D01*
X533509Y704434D01*
X533616Y704509D01*
X533729Y704577D01*
X533874Y704692D01*
X534025Y704799D01*
X534139Y704902D01*
X534225Y704970D01*
X534301Y705048D01*
X534415Y705151D01*
X537007Y707742D01*
X541272Y709509D01*
X545888Y709509D01*
X550154Y707742D01*
X552745Y705151D01*
X552884Y705028D01*
X553016Y704899D01*
X553121Y704820D01*
X553219Y704733D01*
X553373Y704629D01*
X553520Y704517D01*
X553634Y704452D01*
X553743Y704378D01*
X553908Y704294D01*
X554068Y704202D01*
X554189Y704152D01*
X554306Y704092D01*
X554481Y704030D01*
X554651Y703959D01*
X554778Y703924D01*
X554902Y703880D01*
X555082Y703840D01*
X555261Y703791D01*
X555391Y703773D01*
X555519Y703745D01*
X555703Y703728D01*
X555886Y703702D01*
X556018Y703700D01*
X556149Y703688D01*
X556334Y703695D01*
X556519Y703692D01*
X556649Y703707D01*
X556780Y703711D01*
X556963Y703742D01*
X557147Y703762D01*
X557275Y703793D01*
X557404Y703814D01*
X557581Y703867D01*
X557761Y703911D01*
X557884Y703958D01*
X558010Y703995D01*
X558179Y704070D01*
X558352Y704136D01*
X558468Y704198D01*
X558588Y704251D01*
X558746Y704346D01*
X558909Y704434D01*
X559016Y704509D01*
X559129Y704577D01*
X559274Y704692D01*
X559425Y704799D01*
X559539Y704902D01*
X559625Y704970D01*
X559701Y705048D01*
X559815Y705151D01*
X562407Y707742D01*
X566672Y709509D01*
X571288Y709509D01*
X575554Y707742D01*
X578145Y705151D01*
X578284Y705028D01*
X578416Y704899D01*
X578521Y704820D01*
X578619Y704733D01*
X578773Y704629D01*
X578920Y704517D01*
X579034Y704452D01*
X579143Y704378D01*
X579308Y704294D01*
X579468Y704202D01*
X579589Y704152D01*
X579706Y704092D01*
X579881Y704030D01*
X580051Y703959D01*
X580178Y703924D01*
X580302Y703880D01*
X580482Y703840D01*
X580661Y703791D01*
X580791Y703773D01*
X580919Y703745D01*
X581103Y703728D01*
X581286Y703702D01*
X581418Y703700D01*
X581549Y703688D01*
X581734Y703695D01*
X581919Y703692D01*
X582049Y703707D01*
X582180Y703711D01*
X582363Y703742D01*
X582547Y703762D01*
X582675Y703793D01*
X582804Y703814D01*
X582981Y703867D01*
X583161Y703911D01*
X583284Y703958D01*
X583410Y703995D01*
X583579Y704070D01*
X583752Y704136D01*
X583868Y704198D01*
X583988Y704251D01*
X584146Y704346D01*
X584309Y704434D01*
X584416Y704509D01*
X584529Y704577D01*
X584674Y704692D01*
X584825Y704799D01*
X584939Y704902D01*
X585025Y704970D01*
X585101Y705048D01*
X585215Y705151D01*
X587807Y707742D01*
X592072Y709509D01*
X596688Y709509D01*
X600954Y707742D01*
X603545Y705151D01*
X603684Y705028D01*
X603816Y704899D01*
X603921Y704820D01*
X604019Y704733D01*
X604173Y704629D01*
X604320Y704517D01*
X604434Y704452D01*
X604543Y704378D01*
X604708Y704294D01*
X604868Y704202D01*
X604989Y704152D01*
X605106Y704092D01*
X605281Y704030D01*
X605451Y703959D01*
X605578Y703924D01*
X605702Y703880D01*
X605882Y703840D01*
X606061Y703791D01*
X606191Y703773D01*
X606319Y703745D01*
X606503Y703728D01*
X606686Y703702D01*
X606818Y703700D01*
X606949Y703688D01*
X607134Y703695D01*
X607319Y703692D01*
X607449Y703707D01*
X607580Y703711D01*
X607763Y703742D01*
X607947Y703762D01*
X608075Y703793D01*
X608204Y703814D01*
X608381Y703867D01*
X608561Y703911D01*
X608684Y703958D01*
X608810Y703995D01*
X608979Y704070D01*
X609152Y704136D01*
X609268Y704198D01*
X609388Y704251D01*
X609546Y704346D01*
X609709Y704434D01*
X609816Y704509D01*
X609929Y704577D01*
X610074Y704692D01*
X610225Y704799D01*
X610339Y704902D01*
X610425Y704970D01*
X610501Y705048D01*
X610615Y705151D01*
X613207Y707742D01*
X617472Y709509D01*
X622088Y709509D01*
X626354Y707742D01*
X628945Y705151D01*
X629084Y705028D01*
X629216Y704899D01*
X629321Y704820D01*
X629419Y704733D01*
X629573Y704629D01*
X629720Y704517D01*
X629834Y704452D01*
X629943Y704378D01*
X630108Y704294D01*
X630268Y704202D01*
X630389Y704152D01*
X630506Y704092D01*
X630681Y704030D01*
X630851Y703959D01*
X630978Y703924D01*
X631102Y703880D01*
X631282Y703840D01*
X631461Y703791D01*
X631591Y703773D01*
X631719Y703745D01*
X631903Y703728D01*
X632086Y703702D01*
X632218Y703700D01*
X632349Y703688D01*
X632534Y703695D01*
X632719Y703692D01*
X632849Y703707D01*
X632980Y703711D01*
X633163Y703742D01*
X633347Y703762D01*
X633475Y703793D01*
X633604Y703814D01*
X633781Y703867D01*
X633961Y703911D01*
X634084Y703958D01*
X634210Y703995D01*
X634379Y704070D01*
X634552Y704136D01*
X634668Y704198D01*
X634788Y704251D01*
X634946Y704346D01*
X635109Y704434D01*
X635216Y704509D01*
X635329Y704577D01*
X635474Y704692D01*
X635625Y704799D01*
X635739Y704902D01*
X635825Y704970D01*
X635901Y705048D01*
X636015Y705151D01*
X638607Y707742D01*
X642872Y709509D01*
X647488Y709509D01*
X651754Y707742D01*
X654345Y705151D01*
X654484Y705028D01*
X654616Y704899D01*
X654721Y704820D01*
X654819Y704733D01*
X654973Y704629D01*
X655120Y704517D01*
X655234Y704452D01*
X655343Y704378D01*
X655508Y704294D01*
X655668Y704202D01*
X655789Y704152D01*
X655906Y704092D01*
X656081Y704030D01*
X656251Y703959D01*
X656378Y703924D01*
X656502Y703880D01*
X656682Y703840D01*
X656861Y703791D01*
X656991Y703773D01*
X657119Y703745D01*
X657303Y703728D01*
X657486Y703702D01*
X657618Y703700D01*
X657749Y703688D01*
X657934Y703695D01*
X658119Y703692D01*
X658249Y703707D01*
X658380Y703711D01*
X658563Y703742D01*
X658747Y703762D01*
X658875Y703793D01*
X659004Y703814D01*
X659181Y703867D01*
X659361Y703911D01*
X659484Y703958D01*
X659610Y703995D01*
X659779Y704070D01*
X659952Y704136D01*
X660068Y704198D01*
X660188Y704251D01*
X660346Y704346D01*
X660509Y704434D01*
X660616Y704509D01*
X660729Y704577D01*
X660874Y704692D01*
X661025Y704799D01*
X661139Y704902D01*
X661225Y704970D01*
X661301Y705048D01*
X661415Y705151D01*
X664007Y707742D01*
X668272Y709509D01*
X672888Y709509D01*
X677153Y707742D01*
X680233Y704662D01*
X680397Y704518D01*
X680554Y704368D01*
X680634Y704310D01*
X680708Y704244D01*
X680888Y704122D01*
X681063Y703993D01*
X681149Y703945D01*
X681231Y703890D01*
X681425Y703791D01*
X681615Y703685D01*
X681707Y703649D01*
X681795Y703604D01*
X682000Y703531D01*
X682202Y703450D01*
X682297Y703425D01*
X682390Y703392D01*
X682602Y703345D01*
X682813Y703290D01*
X682911Y703277D01*
X683007Y703256D01*
X683224Y703237D01*
X683440Y703209D01*
X683539Y703208D01*
X683637Y703200D01*
X683855Y703208D01*
X684072Y703207D01*
X684170Y703219D01*
X684269Y703223D01*
X684484Y703258D01*
X684700Y703285D01*
X684795Y703310D01*
X684892Y703326D01*
X685101Y703388D01*
X685312Y703442D01*
X685403Y703478D01*
X685498Y703507D01*
X685697Y703595D01*
X685900Y703675D01*
X685986Y703723D01*
X686076Y703762D01*
X686263Y703875D01*
X686453Y703980D01*
X686533Y704038D01*
X686617Y704089D01*
X686788Y704224D01*
X686964Y704353D01*
X687036Y704420D01*
X687113Y704481D01*
X687265Y704637D01*
X687423Y704787D01*
X687486Y704863D01*
X687555Y704933D01*
X687687Y705107D01*
X687825Y705275D01*
X687877Y705358D01*
X687937Y705437D01*
X688045Y705626D01*
X688161Y705810D01*
X688209Y705912D01*
X688252Y705985D01*
X688301Y706104D01*
X688387Y706284D01*
X688922Y707575D01*
X708515Y727168D01*
X712191Y728691D01*
X785139Y728691D01*
X788815Y727168D01*
X792331Y723652D01*
X799932Y716051D01*
X803448Y712535D01*
X804971Y708859D01*
X804971Y696878D01*
X804978Y696759D01*
X804976Y696640D01*
X804998Y696444D01*
X805011Y696248D01*
X805033Y696131D01*
X805046Y696012D01*
X805093Y695820D01*
X805130Y695627D01*
X805167Y695513D01*
X805195Y695397D01*
X805265Y695214D01*
X805327Y695026D01*
X805378Y694918D01*
X805420Y694807D01*
X805513Y694633D01*
X805597Y694455D01*
X805662Y694354D01*
X805718Y694249D01*
X805832Y694089D01*
X805938Y693923D01*
X806015Y693831D01*
X806084Y693734D01*
X806254Y693545D01*
X806343Y693438D01*
X806386Y693398D01*
X806418Y693362D01*
X808341Y688720D01*
X808341Y668460D01*
X806419Y663821D01*
X802869Y660271D01*
X798230Y658349D01*
X793210Y658349D01*
X788571Y660271D01*
X784816Y664026D01*
X784677Y664148D01*
X784544Y664278D01*
X784440Y664357D01*
X784341Y664444D01*
X784188Y664548D01*
X784041Y664659D01*
X783927Y664725D01*
X783818Y664798D01*
X783653Y664882D01*
X783493Y664974D01*
X783371Y665025D01*
X783254Y665084D01*
X783080Y665146D01*
X782909Y665218D01*
X782783Y665252D01*
X782659Y665297D01*
X782478Y665336D01*
X782300Y665385D01*
X782170Y665404D01*
X782041Y665432D01*
X781857Y665449D01*
X781674Y665475D01*
X781543Y665477D01*
X781412Y665489D01*
X781227Y665482D01*
X781042Y665485D01*
X780911Y665470D01*
X780780Y665465D01*
X780597Y665435D01*
X780414Y665415D01*
X780286Y665384D01*
X780157Y665362D01*
X779979Y665309D01*
X779799Y665266D01*
X779677Y665219D01*
X779551Y665182D01*
X779381Y665107D01*
X779209Y665041D01*
X779093Y664979D01*
X778973Y664926D01*
X778814Y664830D01*
X778651Y664743D01*
X778544Y664667D01*
X778432Y664599D01*
X778287Y664484D01*
X778136Y664377D01*
X778022Y664275D01*
X777936Y664207D01*
X777860Y664129D01*
X777745Y664026D01*
X776939Y663220D01*
X775645Y662280D01*
X775319Y662114D01*
X775319Y678590D01*
X775319Y695066D01*
X775645Y694900D01*
X777031Y693893D01*
X777179Y693800D01*
X777320Y693698D01*
X777445Y693631D01*
X777565Y693555D01*
X777723Y693481D01*
X777876Y693398D01*
X778009Y693347D01*
X778138Y693286D01*
X778303Y693233D01*
X778466Y693170D01*
X778604Y693136D01*
X778739Y693092D01*
X778911Y693060D01*
X779080Y693018D01*
X779221Y693002D01*
X779360Y692976D01*
X779535Y692965D01*
X779707Y692945D01*
X779849Y692947D01*
X779991Y692938D01*
X780166Y692950D01*
X780340Y692952D01*
X780480Y692971D01*
X780622Y692981D01*
X780793Y693015D01*
X780966Y693039D01*
X781103Y693076D01*
X781242Y693103D01*
X781408Y693158D01*
X781576Y693203D01*
X781707Y693257D01*
X781842Y693302D01*
X781999Y693378D01*
X782160Y693444D01*
X782284Y693514D01*
X782412Y693575D01*
X782559Y693670D01*
X782710Y693756D01*
X782824Y693841D01*
X782943Y693918D01*
X783076Y694031D01*
X783216Y694135D01*
X783318Y694234D01*
X783426Y694326D01*
X783545Y694454D01*
X783670Y694575D01*
X783758Y694686D01*
X783855Y694791D01*
X783955Y694933D01*
X784064Y695069D01*
X784138Y695190D01*
X784221Y695306D01*
X784303Y695460D01*
X784394Y695609D01*
X784452Y695738D01*
X784519Y695863D01*
X784581Y696026D01*
X784652Y696185D01*
X784693Y696321D01*
X784744Y696454D01*
X784785Y696623D01*
X784836Y696790D01*
X784860Y696930D01*
X784893Y697068D01*
X784913Y697241D01*
X784942Y697413D01*
X784951Y697581D01*
X784963Y697696D01*
X784962Y697798D01*
X784969Y697938D01*
X784969Y700657D01*
X784962Y700776D01*
X784964Y700895D01*
X784942Y701091D01*
X784929Y701288D01*
X784907Y701405D01*
X784894Y701523D01*
X784847Y701715D01*
X784810Y701908D01*
X784773Y702022D01*
X784745Y702138D01*
X784675Y702322D01*
X784613Y702509D01*
X784562Y702617D01*
X784520Y702728D01*
X784427Y702902D01*
X784343Y703080D01*
X784278Y703181D01*
X784222Y703286D01*
X784108Y703446D01*
X784002Y703613D01*
X783925Y703704D01*
X783856Y703802D01*
X783686Y703990D01*
X783597Y704098D01*
X783554Y704137D01*
X783505Y704192D01*
X780472Y707225D01*
X780382Y707304D01*
X780299Y707390D01*
X780145Y707513D01*
X779997Y707643D01*
X779899Y707710D01*
X779805Y707784D01*
X779637Y707887D01*
X779474Y707997D01*
X779368Y708051D01*
X779266Y708114D01*
X779086Y708194D01*
X778910Y708283D01*
X778798Y708323D01*
X778689Y708372D01*
X778500Y708429D01*
X778315Y708496D01*
X778199Y708521D01*
X778084Y708556D01*
X777890Y708589D01*
X777698Y708631D01*
X777579Y708642D01*
X777461Y708662D01*
X777207Y708675D01*
X777068Y708688D01*
X777010Y708685D01*
X776937Y708689D01*
X748763Y708689D01*
X748481Y708671D01*
X748197Y708657D01*
X748165Y708651D01*
X748132Y708649D01*
X747854Y708596D01*
X747575Y708546D01*
X747544Y708536D01*
X747511Y708530D01*
X747241Y708442D01*
X746972Y708357D01*
X746942Y708344D01*
X746910Y708333D01*
X746654Y708212D01*
X746397Y708094D01*
X746369Y708077D01*
X746339Y708063D01*
X746101Y707910D01*
X745860Y707760D01*
X745835Y707740D01*
X745807Y707722D01*
X745590Y707541D01*
X745370Y707362D01*
X745347Y707338D01*
X745322Y707317D01*
X745129Y707109D01*
X744934Y706904D01*
X744919Y706884D01*
X744880Y706936D01*
X744857Y706959D01*
X744837Y706985D01*
X744637Y707186D01*
X744440Y707390D01*
X744414Y707410D01*
X744391Y707433D01*
X744167Y707608D01*
X743946Y707784D01*
X743918Y707801D01*
X743892Y707822D01*
X743648Y707966D01*
X743406Y708114D01*
X743376Y708127D01*
X743348Y708144D01*
X743089Y708256D01*
X742830Y708372D01*
X742798Y708382D01*
X742768Y708395D01*
X742496Y708473D01*
X742225Y708556D01*
X742192Y708561D01*
X742161Y708570D01*
X741881Y708614D01*
X741602Y708662D01*
X741565Y708664D01*
X741536Y708668D01*
X741410Y708672D01*
X741077Y708689D01*
X720393Y708689D01*
X720274Y708682D01*
X720155Y708684D01*
X719959Y708662D01*
X719762Y708649D01*
X719645Y708627D01*
X719527Y708614D01*
X719335Y708567D01*
X719142Y708530D01*
X719028Y708493D01*
X718912Y708465D01*
X718728Y708395D01*
X718541Y708333D01*
X718433Y708282D01*
X718322Y708240D01*
X718148Y708147D01*
X717970Y708063D01*
X717869Y707998D01*
X717764Y707942D01*
X717604Y707828D01*
X717437Y707722D01*
X717346Y707645D01*
X717248Y707576D01*
X717060Y707406D01*
X716952Y707317D01*
X716913Y707274D01*
X716858Y707225D01*
X708865Y699232D01*
X708786Y699142D01*
X708700Y699059D01*
X708577Y698905D01*
X708447Y698757D01*
X708380Y698659D01*
X708306Y698565D01*
X708203Y698397D01*
X708093Y698234D01*
X708039Y698128D01*
X707976Y698026D01*
X707896Y697846D01*
X707807Y697670D01*
X707767Y697558D01*
X707718Y697449D01*
X707661Y697260D01*
X707594Y697075D01*
X707569Y696959D01*
X707534Y696844D01*
X707501Y696650D01*
X707459Y696458D01*
X707448Y696339D01*
X707428Y696221D01*
X707415Y695967D01*
X707402Y695828D01*
X707405Y695770D01*
X707401Y695697D01*
X707401Y663861D01*
X705878Y660185D01*
X704368Y658675D01*
X704246Y658536D01*
X704117Y658404D01*
X704037Y658299D01*
X703950Y658201D01*
X703847Y658048D01*
X703735Y657900D01*
X703669Y657786D01*
X703596Y657677D01*
X703512Y657512D01*
X703420Y657352D01*
X703369Y657231D01*
X703310Y657114D01*
X703248Y656939D01*
X703177Y656769D01*
X703142Y656642D01*
X703098Y656518D01*
X703058Y656338D01*
X703009Y656159D01*
X702990Y656029D01*
X702962Y655901D01*
X702946Y655717D01*
X702919Y655534D01*
X702917Y655402D01*
X702906Y655271D01*
X702913Y655086D01*
X702910Y654902D01*
X702924Y654771D01*
X702929Y654640D01*
X702959Y654457D01*
X702980Y654273D01*
X703011Y654146D01*
X703032Y654016D01*
X703085Y653839D01*
X703128Y653659D01*
X703175Y653536D01*
X703213Y653410D01*
X703288Y653241D01*
X703353Y653068D01*
X703415Y652952D01*
X703468Y652832D01*
X703564Y652674D01*
X703651Y652511D01*
X703727Y652404D01*
X703795Y652291D01*
X703910Y652146D01*
X704017Y651995D01*
X704120Y651881D01*
X704187Y651795D01*
X704265Y651719D01*
X704368Y651605D01*
X709262Y646711D01*
X712778Y643195D01*
X714301Y639519D01*
X714301Y557563D01*
X714308Y557444D01*
X714306Y557325D01*
X714328Y557129D01*
X714341Y556932D01*
X714363Y556815D01*
X714376Y556697D01*
X714423Y556505D01*
X714460Y556312D01*
X714497Y556198D01*
X714525Y556082D01*
X714595Y555898D01*
X714657Y555711D01*
X714708Y555603D01*
X714750Y555492D01*
X714843Y555318D01*
X714927Y555140D01*
X714992Y555039D01*
X715048Y554934D01*
X715162Y554774D01*
X715268Y554607D01*
X715345Y554516D01*
X715414Y554418D01*
X715584Y554230D01*
X715673Y554122D01*
X715716Y554083D01*
X715765Y554028D01*
X718528Y551265D01*
X718618Y551186D01*
X718701Y551100D01*
X718855Y550977D01*
X719003Y550847D01*
X719101Y550780D01*
X719195Y550706D01*
X719363Y550603D01*
X719526Y550493D01*
X719632Y550439D01*
X719734Y550376D01*
X719914Y550296D01*
X720090Y550207D01*
X720202Y550167D01*
X720311Y550118D01*
X720500Y550061D01*
X720685Y549994D01*
X720801Y549969D01*
X720916Y549934D01*
X721110Y549901D01*
X721302Y549859D01*
X721421Y549848D01*
X721539Y549828D01*
X721793Y549815D01*
X721932Y549802D01*
X721990Y549805D01*
X722063Y549801D01*
X772127Y549801D01*
X772246Y549808D01*
X772365Y549806D01*
X772561Y549828D01*
X772758Y549841D01*
X772875Y549863D01*
X772993Y549876D01*
X773185Y549923D01*
X773378Y549960D01*
X773492Y549997D01*
X773608Y550025D01*
X773792Y550095D01*
X773979Y550157D01*
X774087Y550208D01*
X774198Y550250D01*
X774372Y550343D01*
X774550Y550427D01*
X774651Y550492D01*
X774756Y550548D01*
X774916Y550662D01*
X775083Y550768D01*
X775174Y550845D01*
X775272Y550914D01*
X775460Y551084D01*
X775568Y551173D01*
X775607Y551216D01*
X775662Y551265D01*
X784255Y559858D01*
X784334Y559948D01*
X784420Y560031D01*
X784543Y560185D01*
X784673Y560333D01*
X784740Y560431D01*
X784814Y560525D01*
X784917Y560693D01*
X785027Y560856D01*
X785081Y560962D01*
X785144Y561064D01*
X785224Y561244D01*
X785313Y561420D01*
X785353Y561532D01*
X785402Y561641D01*
X785459Y561829D01*
X785526Y562015D01*
X785551Y562131D01*
X785586Y562246D01*
X785619Y562440D01*
X785661Y562632D01*
X785672Y562751D01*
X785692Y562869D01*
X785705Y563123D01*
X785718Y563262D01*
X785715Y563320D01*
X785719Y563393D01*
X785719Y575348D01*
X785712Y575467D01*
X785714Y575587D01*
X785692Y575783D01*
X785679Y575979D01*
X785657Y576097D01*
X785644Y576215D01*
X785597Y576406D01*
X785560Y576600D01*
X785523Y576714D01*
X785495Y576830D01*
X785425Y577013D01*
X785363Y577201D01*
X785312Y577309D01*
X785270Y577420D01*
X785177Y577594D01*
X785093Y577772D01*
X785028Y577872D01*
X784972Y577978D01*
X784858Y578138D01*
X784752Y578304D01*
X784675Y578396D01*
X784606Y578493D01*
X784436Y578682D01*
X784347Y578789D01*
X784304Y578829D01*
X784255Y578883D01*
X784096Y579043D01*
X784090Y579194D01*
X784079Y579258D01*
X784075Y579324D01*
X784028Y579569D01*
X783987Y579817D01*
X783968Y579880D01*
X783956Y579944D01*
X783878Y580183D01*
X783806Y580423D01*
X783780Y580483D01*
X783759Y580545D01*
X783652Y580772D01*
X783551Y581001D01*
X783517Y581057D01*
X783489Y581116D01*
X783353Y581328D01*
X783224Y581542D01*
X783183Y581593D01*
X783148Y581649D01*
X782987Y581841D01*
X782832Y582038D01*
X782785Y582083D01*
X782743Y582134D01*
X782559Y582304D01*
X782380Y582480D01*
X782328Y582519D01*
X782279Y582564D01*
X782076Y582710D01*
X781876Y582861D01*
X781819Y582894D01*
X781766Y582932D01*
X781545Y583051D01*
X781328Y583176D01*
X781267Y583201D01*
X781210Y583233D01*
X780976Y583323D01*
X780744Y583419D01*
X780681Y583437D01*
X780620Y583460D01*
X780377Y583521D01*
X780135Y583587D01*
X780070Y583596D01*
X780006Y583612D01*
X779758Y583641D01*
X779509Y583677D01*
X779444Y583678D01*
X779379Y583685D01*
X779128Y583682D01*
X778877Y583686D01*
X778812Y583679D01*
X778746Y583678D01*
X778498Y583644D01*
X778249Y583616D01*
X778185Y583601D01*
X778120Y583592D01*
X777879Y583527D01*
X777635Y583468D01*
X777573Y583444D01*
X777510Y583427D01*
X777278Y583332D01*
X777044Y583242D01*
X776986Y583212D01*
X776926Y583187D01*
X776708Y583063D01*
X776486Y582945D01*
X776433Y582907D01*
X776376Y582874D01*
X776176Y582724D01*
X775971Y582579D01*
X775916Y582530D01*
X775870Y582495D01*
X775770Y582398D01*
X775581Y582228D01*
X775342Y581988D01*
X772221Y578868D01*
X768705Y575352D01*
X765029Y573829D01*
X753402Y573829D01*
X753283Y573822D01*
X753163Y573824D01*
X752967Y573802D01*
X752771Y573789D01*
X752653Y573767D01*
X752535Y573754D01*
X752344Y573707D01*
X752150Y573670D01*
X752036Y573633D01*
X751920Y573605D01*
X751737Y573535D01*
X751549Y573473D01*
X751441Y573422D01*
X751330Y573380D01*
X751156Y573287D01*
X750978Y573203D01*
X750878Y573138D01*
X750772Y573082D01*
X750612Y572968D01*
X750446Y572862D01*
X750354Y572785D01*
X750257Y572716D01*
X750068Y572546D01*
X749961Y572457D01*
X749921Y572414D01*
X749867Y572365D01*
X749727Y572225D01*
X740113Y572225D01*
X733315Y579023D01*
X733315Y588637D01*
X739413Y594734D01*
X739535Y594873D01*
X739665Y595005D01*
X739744Y595110D01*
X739831Y595209D01*
X739934Y595362D01*
X740046Y595509D01*
X740112Y595624D01*
X740185Y595732D01*
X740269Y595897D01*
X740361Y596057D01*
X740412Y596179D01*
X740471Y596296D01*
X740533Y596470D01*
X740604Y596641D01*
X740639Y596767D01*
X740683Y596891D01*
X740723Y597072D01*
X740772Y597250D01*
X740791Y597380D01*
X740819Y597509D01*
X740835Y597693D01*
X740862Y597876D01*
X740864Y598007D01*
X740875Y598138D01*
X740869Y598323D01*
X740872Y598508D01*
X740857Y598638D01*
X740852Y598770D01*
X740822Y598952D01*
X740802Y599136D01*
X740771Y599264D01*
X740749Y599393D01*
X740696Y599571D01*
X740653Y599751D01*
X740606Y599873D01*
X740568Y599999D01*
X740494Y600168D01*
X740428Y600341D01*
X740366Y600457D01*
X740313Y600577D01*
X740217Y600736D01*
X740130Y600899D01*
X740054Y601006D01*
X739986Y601118D01*
X739871Y601263D01*
X739764Y601414D01*
X739661Y601529D01*
X739594Y601614D01*
X739516Y601690D01*
X739413Y601804D01*
X736987Y604231D01*
X744920Y604231D01*
X745104Y604242D01*
X745289Y604244D01*
X745419Y604262D01*
X745550Y604271D01*
X745732Y604305D01*
X745915Y604331D01*
X746042Y604365D01*
X746171Y604390D01*
X746347Y604447D01*
X746526Y604496D01*
X746647Y604545D01*
X746772Y604586D01*
X746939Y604666D01*
X747110Y604736D01*
X747224Y604801D01*
X747343Y604857D01*
X747499Y604957D01*
X747660Y605048D01*
X747765Y605127D01*
X747875Y605198D01*
X748018Y605317D01*
X748165Y605428D01*
X748260Y605519D01*
X748361Y605603D01*
X748361Y605604D01*
X748486Y605739D01*
X748619Y605867D01*
X748619Y605868D01*
X748620Y605868D01*
X748702Y605971D01*
X748791Y606067D01*
X748899Y606217D01*
X749014Y606362D01*
X749083Y606474D01*
X749159Y606581D01*
X749247Y606743D01*
X749344Y606901D01*
X749398Y607021D01*
X749460Y607137D01*
X749527Y607309D01*
X749602Y607478D01*
X749640Y607604D01*
X749688Y607726D01*
X749732Y607906D01*
X749786Y608083D01*
X749808Y608213D01*
X749839Y608340D01*
X749861Y608523D01*
X749892Y608706D01*
X749900Y608860D01*
X749912Y608968D01*
X749911Y609077D01*
X749919Y609230D01*
X749919Y618934D01*
X749931Y618939D01*
X749987Y618973D01*
X750046Y619001D01*
X750258Y619137D01*
X750472Y619266D01*
X750523Y619307D01*
X750579Y619342D01*
X750771Y619503D01*
X750967Y619658D01*
X751013Y619705D01*
X751064Y619747D01*
X751234Y619931D01*
X751409Y620110D01*
X751449Y620162D01*
X751494Y620211D01*
X751640Y620414D01*
X751791Y620614D01*
X751824Y620671D01*
X751862Y620724D01*
X751981Y620944D01*
X752106Y621162D01*
X752131Y621223D01*
X752163Y621280D01*
X752253Y621514D01*
X752349Y621745D01*
X752367Y621809D01*
X752390Y621870D01*
X752451Y622113D01*
X752517Y622355D01*
X752526Y622420D01*
X752542Y622484D01*
X752571Y622732D01*
X752607Y622980D01*
X752608Y623046D01*
X752615Y623111D01*
X752612Y623361D01*
X752616Y623612D01*
X752609Y623678D01*
X752608Y623744D01*
X752574Y623991D01*
X752546Y624241D01*
X752531Y624305D01*
X752522Y624370D01*
X752457Y624611D01*
X752398Y624855D01*
X752374Y624917D01*
X752357Y624980D01*
X752262Y625211D01*
X752173Y625446D01*
X752142Y625504D01*
X752117Y625564D01*
X751993Y625783D01*
X751875Y626003D01*
X751837Y626057D01*
X751804Y626114D01*
X751654Y626315D01*
X751509Y626519D01*
X751460Y626573D01*
X751425Y626620D01*
X751328Y626720D01*
X751158Y626909D01*
X736442Y641625D01*
X734919Y645301D01*
X734919Y661140D01*
X734914Y661226D01*
X734916Y661313D01*
X734894Y661541D01*
X734879Y661771D01*
X734863Y661856D01*
X734855Y661942D01*
X734803Y662166D01*
X734760Y662391D01*
X734733Y662474D01*
X734714Y662558D01*
X734603Y662871D01*
X734563Y662992D01*
X734551Y663019D01*
X734539Y663053D01*
X732299Y668460D01*
X732299Y688720D01*
X734221Y693359D01*
X737771Y696909D01*
X742990Y699071D01*
X743244Y699196D01*
X743501Y699317D01*
X743529Y699335D01*
X743558Y699350D01*
X743794Y699505D01*
X744033Y699658D01*
X744058Y699679D01*
X744086Y699697D01*
X744301Y699882D01*
X744518Y700063D01*
X744541Y700088D01*
X744566Y700109D01*
X744755Y700318D01*
X744918Y700494D01*
X744941Y700471D01*
X744960Y700444D01*
X745158Y700240D01*
X745352Y700035D01*
X745377Y700014D01*
X745400Y699990D01*
X745622Y699813D01*
X745841Y699634D01*
X745868Y699616D01*
X745894Y699596D01*
X746137Y699448D01*
X746376Y699297D01*
X746408Y699282D01*
X746434Y699266D01*
X746549Y699215D01*
X746850Y699071D01*
X752069Y696909D01*
X755824Y693154D01*
X755963Y693032D01*
X756096Y692902D01*
X756200Y692823D01*
X756299Y692736D01*
X756452Y692632D01*
X756599Y692521D01*
X756713Y692455D01*
X756822Y692382D01*
X756987Y692298D01*
X757147Y692206D01*
X757269Y692155D01*
X757386Y692096D01*
X757560Y692034D01*
X757731Y691962D01*
X757857Y691928D01*
X757981Y691883D01*
X758162Y691844D01*
X758340Y691795D01*
X758470Y691776D01*
X758599Y691748D01*
X758783Y691731D01*
X758966Y691705D01*
X759097Y691703D01*
X759228Y691691D01*
X759413Y691698D01*
X759598Y691695D01*
X759729Y691710D01*
X759860Y691715D01*
X760043Y691745D01*
X760226Y691765D01*
X760354Y691796D01*
X760483Y691818D01*
X760661Y691871D01*
X760841Y691914D01*
X760963Y691961D01*
X761089Y691998D01*
X761259Y692073D01*
X761431Y692139D01*
X761547Y692201D01*
X761667Y692254D01*
X761826Y692350D01*
X761989Y692437D01*
X762096Y692513D01*
X762208Y692581D01*
X762353Y692696D01*
X762504Y692803D01*
X762618Y692905D01*
X762704Y692973D01*
X762780Y693051D01*
X762895Y693154D01*
X763701Y693960D01*
X764995Y694900D01*
X765321Y695066D01*
X765321Y678590D01*
X765321Y662114D01*
X764995Y662280D01*
X763701Y663220D01*
X763455Y663465D01*
X763267Y663631D01*
X763083Y663802D01*
X763030Y663840D01*
X762981Y663883D01*
X762773Y664024D01*
X762570Y664170D01*
X762512Y664201D01*
X762458Y664238D01*
X762234Y664351D01*
X762014Y664470D01*
X761952Y664494D01*
X761894Y664524D01*
X761658Y664608D01*
X761424Y664698D01*
X761360Y664714D01*
X761298Y664736D01*
X761053Y664790D01*
X760810Y664850D01*
X760745Y664857D01*
X760681Y664872D01*
X760431Y664894D01*
X760183Y664923D01*
X760117Y664922D01*
X760051Y664928D01*
X759801Y664919D01*
X759550Y664916D01*
X759485Y664907D01*
X759420Y664905D01*
X759173Y664864D01*
X758924Y664830D01*
X758861Y664813D01*
X758796Y664802D01*
X758556Y664730D01*
X758314Y664665D01*
X758253Y664640D01*
X758190Y664621D01*
X757961Y664520D01*
X757730Y664424D01*
X757672Y664392D01*
X757612Y664365D01*
X757398Y664236D01*
X757180Y664112D01*
X757127Y664073D01*
X757071Y664039D01*
X756875Y663883D01*
X756674Y663733D01*
X756627Y663687D01*
X756576Y663646D01*
X756401Y663468D01*
X756220Y663293D01*
X756179Y663242D01*
X756133Y663195D01*
X755982Y662995D01*
X755826Y662799D01*
X755791Y662743D01*
X755752Y662691D01*
X755627Y662474D01*
X755496Y662260D01*
X755469Y662200D01*
X755437Y662143D01*
X755341Y661912D01*
X755238Y661683D01*
X755219Y661620D01*
X755194Y661559D01*
X755127Y661318D01*
X755054Y661078D01*
X755043Y661013D01*
X755026Y660950D01*
X754990Y660702D01*
X754948Y660455D01*
X754944Y660381D01*
X754936Y660324D01*
X754934Y660185D01*
X754921Y659931D01*
X754921Y653503D01*
X754928Y653384D01*
X754926Y653265D01*
X754948Y653069D01*
X754961Y652872D01*
X754983Y652755D01*
X754996Y652637D01*
X755043Y652445D01*
X755080Y652252D01*
X755117Y652138D01*
X755145Y652022D01*
X755215Y651838D01*
X755277Y651651D01*
X755328Y651543D01*
X755370Y651432D01*
X755463Y651258D01*
X755547Y651080D01*
X755612Y650979D01*
X755668Y650874D01*
X755782Y650714D01*
X755888Y650547D01*
X755965Y650456D01*
X756034Y650358D01*
X756204Y650170D01*
X756293Y650062D01*
X756336Y650023D01*
X756385Y649968D01*
X766845Y639508D01*
X766984Y639386D01*
X767116Y639257D01*
X767221Y639177D01*
X767319Y639090D01*
X767472Y638987D01*
X767620Y638875D01*
X767734Y638809D01*
X767843Y638736D01*
X768008Y638652D01*
X768168Y638560D01*
X768289Y638509D01*
X768406Y638450D01*
X768581Y638388D01*
X768751Y638317D01*
X768878Y638282D01*
X769002Y638238D01*
X769182Y638198D01*
X769361Y638149D01*
X769491Y638130D01*
X769619Y638102D01*
X769803Y638086D01*
X769986Y638059D01*
X770118Y638057D01*
X770249Y638046D01*
X770434Y638053D01*
X770618Y638050D01*
X770749Y638064D01*
X770880Y638069D01*
X771063Y638099D01*
X771247Y638120D01*
X771375Y638151D01*
X771504Y638172D01*
X771681Y638225D01*
X771861Y638268D01*
X771984Y638315D01*
X772110Y638353D01*
X772279Y638428D01*
X772452Y638493D01*
X772568Y638555D01*
X772688Y638608D01*
X772846Y638704D01*
X773009Y638791D01*
X773116Y638867D01*
X773229Y638935D01*
X773374Y639050D01*
X773525Y639157D01*
X773639Y639260D01*
X773725Y639327D01*
X773801Y639405D01*
X773915Y639508D01*
X777805Y643398D01*
X781481Y644921D01*
X833450Y644921D01*
X833635Y644932D01*
X833820Y644934D01*
X833950Y644952D01*
X834081Y644961D01*
X834262Y644996D01*
X834446Y645021D01*
X834572Y645055D01*
X834702Y645080D01*
X834878Y645138D01*
X835056Y645186D01*
X835177Y645236D01*
X835302Y645277D01*
X835470Y645356D01*
X835640Y645426D01*
X835755Y645491D01*
X835873Y645547D01*
X836029Y645647D01*
X836190Y645738D01*
X836295Y645817D01*
X836406Y645888D01*
X836548Y646007D01*
X836696Y646118D01*
X836790Y646209D01*
X836891Y646293D01*
X837017Y646429D01*
X837150Y646558D01*
X837232Y646660D01*
X837321Y646757D01*
X837429Y646907D01*
X837544Y647051D01*
X837613Y647164D01*
X837689Y647270D01*
X837777Y647433D01*
X837874Y647591D01*
X837927Y647711D01*
X837990Y647826D01*
X838056Y647999D01*
X838132Y648168D01*
X838170Y648293D01*
X838218Y648416D01*
X838262Y648596D01*
X838316Y648773D01*
X838338Y648902D01*
X838369Y649030D01*
X838391Y649213D01*
X838422Y649396D01*
X838430Y649549D01*
X838442Y649657D01*
X838441Y649766D01*
X838449Y649920D01*
X838449Y672994D01*
X840733Y678507D01*
X844953Y682727D01*
X850466Y685011D01*
X856434Y685011D01*
X861947Y682727D01*
X866167Y678507D01*
X868451Y672994D01*
X868451Y647026D01*
X866167Y641513D01*
X863495Y638841D01*
X863438Y638776D01*
X863375Y638716D01*
X863230Y638539D01*
X863077Y638367D01*
X863029Y638295D01*
X862974Y638228D01*
X862852Y638034D01*
X862723Y637843D01*
X862684Y637766D01*
X862637Y637693D01*
X862494Y637392D01*
X862437Y637279D01*
X862427Y637252D01*
X862411Y637219D01*
X861958Y636125D01*
X852275Y626442D01*
X848599Y624919D01*
X805033Y624919D01*
X804783Y624903D01*
X804532Y624894D01*
X804467Y624883D01*
X804402Y624879D01*
X804156Y624832D01*
X803909Y624791D01*
X803846Y624772D01*
X803781Y624760D01*
X803542Y624682D01*
X803303Y624610D01*
X803243Y624584D01*
X803180Y624563D01*
X802953Y624456D01*
X802725Y624355D01*
X802669Y624321D01*
X802609Y624293D01*
X802398Y624157D01*
X802184Y624028D01*
X802132Y623987D01*
X802077Y623952D01*
X801884Y623791D01*
X801688Y623636D01*
X801642Y623589D01*
X801592Y623547D01*
X801421Y623363D01*
X801246Y623184D01*
X801206Y623131D01*
X801161Y623083D01*
X801016Y622880D01*
X800864Y622680D01*
X800831Y622623D01*
X800793Y622570D01*
X800675Y622350D01*
X800549Y622132D01*
X800524Y622071D01*
X800493Y622014D01*
X800402Y621780D01*
X800306Y621549D01*
X800289Y621485D01*
X800265Y621424D01*
X800205Y621181D01*
X800138Y620939D01*
X800129Y620874D01*
X800113Y620810D01*
X800084Y620562D01*
X800049Y620314D01*
X800048Y620248D01*
X800040Y620183D01*
X800043Y619933D01*
X800039Y619682D01*
X800046Y619616D01*
X800047Y619550D01*
X800081Y619303D01*
X800109Y619053D01*
X800124Y618989D01*
X800133Y618924D01*
X800199Y618683D01*
X800258Y618439D01*
X800281Y618377D01*
X800298Y618314D01*
X800393Y618083D01*
X800483Y617848D01*
X800514Y617790D01*
X800539Y617730D01*
X800663Y617511D01*
X800781Y617291D01*
X800819Y617237D01*
X800851Y617180D01*
X801001Y616980D01*
X801146Y616775D01*
X801196Y616720D01*
X801230Y616674D01*
X801328Y616574D01*
X801498Y616385D01*
X803653Y614229D01*
X795720Y614229D01*
X795536Y614218D01*
X795351Y614216D01*
X795221Y614198D01*
X795090Y614189D01*
X794908Y614155D01*
X794725Y614129D01*
X794598Y614095D01*
X794469Y614070D01*
X794293Y614013D01*
X794114Y613964D01*
X793993Y613915D01*
X793868Y613874D01*
X793701Y613794D01*
X793530Y613724D01*
X793416Y613659D01*
X793297Y613603D01*
X793141Y613503D01*
X792980Y613412D01*
X792875Y613333D01*
X792765Y613262D01*
X792622Y613143D01*
X792475Y613032D01*
X792380Y612941D01*
X792279Y612857D01*
X792154Y612721D01*
X792021Y612593D01*
X791939Y612490D01*
X791849Y612394D01*
X791742Y612243D01*
X791626Y612099D01*
X791557Y611986D01*
X791481Y611880D01*
X791393Y611717D01*
X791297Y611559D01*
X791243Y611439D01*
X791181Y611324D01*
X791114Y611151D01*
X791038Y610982D01*
X791000Y610857D01*
X790953Y610734D01*
X790908Y610555D01*
X790855Y610378D01*
X790833Y610248D01*
X790801Y610121D01*
X790780Y609937D01*
X790749Y609754D01*
X790741Y609601D01*
X790728Y609493D01*
X790729Y609384D01*
X790721Y609230D01*
X790733Y609045D01*
X790735Y608860D01*
X790753Y608730D01*
X790761Y608599D01*
X790796Y608417D01*
X790821Y608234D01*
X790855Y608107D01*
X790880Y607978D01*
X790938Y607802D01*
X790986Y607624D01*
X791036Y607503D01*
X791077Y607378D01*
X791156Y607210D01*
X791227Y607039D01*
X791291Y606925D01*
X791348Y606806D01*
X791448Y606650D01*
X791539Y606490D01*
X791618Y606385D01*
X791688Y606274D01*
X791807Y606132D01*
X791918Y605984D01*
X792009Y605890D01*
X792094Y605789D01*
X792229Y605663D01*
X792358Y605530D01*
X792461Y605448D01*
X792557Y605359D01*
X792707Y605251D01*
X792852Y605136D01*
X792964Y605067D01*
X793071Y604991D01*
X793233Y604903D01*
X793391Y604806D01*
X793511Y604752D01*
X793627Y604690D01*
X793799Y604623D01*
X793968Y604548D01*
X794094Y604510D01*
X794216Y604462D01*
X794396Y604418D01*
X794573Y604364D01*
X794703Y604342D01*
X794830Y604311D01*
X795013Y604289D01*
X795196Y604258D01*
X795350Y604250D01*
X795458Y604237D01*
X795567Y604239D01*
X795720Y604231D01*
X803653Y604231D01*
X801227Y601804D01*
X801105Y601666D01*
X800975Y601534D01*
X800896Y601429D01*
X800809Y601330D01*
X800706Y601177D01*
X800594Y601030D01*
X800528Y600915D01*
X800455Y600807D01*
X800371Y600642D01*
X800279Y600482D01*
X800228Y600360D01*
X800169Y600243D01*
X800107Y600069D01*
X800036Y599898D01*
X800001Y599772D01*
X799957Y599648D01*
X799917Y599467D01*
X799868Y599289D01*
X799849Y599158D01*
X799821Y599030D01*
X799805Y598846D01*
X799778Y598663D01*
X799776Y598532D01*
X799765Y598401D01*
X799771Y598216D01*
X799768Y598031D01*
X799783Y597900D01*
X799788Y597769D01*
X799818Y597587D01*
X799838Y597403D01*
X799869Y597275D01*
X799891Y597145D01*
X799944Y596968D01*
X799987Y596788D01*
X800034Y596666D01*
X800072Y596540D01*
X800147Y596370D01*
X800212Y596198D01*
X800274Y596082D01*
X800327Y595962D01*
X800423Y595803D01*
X800510Y595640D01*
X800586Y595533D01*
X800654Y595421D01*
X800769Y595276D01*
X800876Y595125D01*
X800978Y595011D01*
X801046Y594925D01*
X801124Y594848D01*
X801227Y594734D01*
X807325Y588637D01*
X807325Y579023D01*
X807185Y578883D01*
X807106Y578794D01*
X807020Y578711D01*
X806897Y578557D01*
X806767Y578409D01*
X806700Y578310D01*
X806626Y578217D01*
X806523Y578049D01*
X806413Y577886D01*
X806359Y577780D01*
X806296Y577678D01*
X806216Y577498D01*
X806127Y577322D01*
X806087Y577210D01*
X806038Y577101D01*
X805981Y576912D01*
X805914Y576727D01*
X805889Y576610D01*
X805854Y576496D01*
X805821Y576302D01*
X805779Y576109D01*
X805768Y575991D01*
X805748Y575873D01*
X805735Y575619D01*
X805722Y575480D01*
X805725Y575422D01*
X805721Y575348D01*
X805721Y555191D01*
X804198Y551515D01*
X800682Y547999D01*
X798288Y545605D01*
X798166Y545466D01*
X798037Y545334D01*
X797957Y545229D01*
X797870Y545131D01*
X797767Y544978D01*
X797655Y544830D01*
X797589Y544716D01*
X797516Y544607D01*
X797432Y544443D01*
X797340Y544282D01*
X797289Y544161D01*
X797230Y544044D01*
X797168Y543870D01*
X797097Y543699D01*
X797062Y543572D01*
X797018Y543448D01*
X796978Y543268D01*
X796929Y543089D01*
X796910Y542959D01*
X796882Y542831D01*
X796866Y542647D01*
X796839Y542464D01*
X796837Y542332D01*
X796826Y542201D01*
X796833Y542016D01*
X796830Y541832D01*
X796844Y541701D01*
X796849Y541570D01*
X796879Y541387D01*
X796900Y541203D01*
X796931Y541076D01*
X796952Y540946D01*
X797005Y540769D01*
X797048Y540589D01*
X797095Y540466D01*
X797133Y540340D01*
X797208Y540171D01*
X797273Y539998D01*
X797335Y539883D01*
X797388Y539762D01*
X797484Y539604D01*
X797571Y539441D01*
X797647Y539334D01*
X797715Y539221D01*
X797830Y539076D01*
X797937Y538925D01*
X798040Y538811D01*
X798107Y538725D01*
X798185Y538649D01*
X798288Y538535D01*
X804472Y532351D01*
X807988Y528835D01*
X809511Y525159D01*
X809511Y446943D01*
X809518Y446824D01*
X809516Y446705D01*
X809538Y446509D01*
X809551Y446312D01*
X809573Y446195D01*
X809586Y446077D01*
X809633Y445885D01*
X809670Y445692D01*
X809707Y445578D01*
X809735Y445462D01*
X809805Y445278D01*
X809867Y445091D01*
X809918Y444983D01*
X809960Y444872D01*
X810053Y444698D01*
X810137Y444520D01*
X810202Y444419D01*
X810258Y444314D01*
X810372Y444154D01*
X810478Y443987D01*
X810555Y443896D01*
X810624Y443798D01*
X810794Y443610D01*
X810883Y443502D01*
X810926Y443463D01*
X810975Y443408D01*
X836848Y417535D01*
X836938Y417456D01*
X837021Y417370D01*
X837175Y417247D01*
X837323Y417117D01*
X837421Y417050D01*
X837515Y416976D01*
X837683Y416873D01*
X837846Y416763D01*
X837952Y416709D01*
X838054Y416646D01*
X838234Y416566D01*
X838410Y416477D01*
X838522Y416437D01*
X838631Y416388D01*
X838820Y416331D01*
X839005Y416264D01*
X839121Y416239D01*
X839236Y416204D01*
X839430Y416171D01*
X839622Y416129D01*
X839741Y416118D01*
X839859Y416098D01*
X840113Y416085D01*
X840252Y416072D01*
X840310Y416075D01*
X840383Y416071D01*
X871839Y416071D01*
X875515Y414548D01*
X896722Y393341D01*
X898245Y389665D01*
X898245Y357442D01*
X898250Y357356D01*
X898248Y357269D01*
X898270Y357040D01*
X898285Y356811D01*
X898301Y356726D01*
X898309Y356640D01*
X898361Y356416D01*
X898404Y356191D01*
X898431Y356108D01*
X898450Y356024D01*
X898561Y355710D01*
X898601Y355590D01*
X898613Y355563D01*
X898625Y355529D01*
X900865Y350122D01*
X900865Y329862D01*
X898625Y324455D01*
X898597Y324373D01*
X898562Y324294D01*
X898495Y324074D01*
X898421Y323857D01*
X898403Y323772D01*
X898378Y323689D01*
X898340Y323462D01*
X898293Y323238D01*
X898287Y323152D01*
X898272Y323066D01*
X898255Y322733D01*
X898245Y322608D01*
X898247Y322578D01*
X898245Y322542D01*
X898245Y292418D01*
X898250Y292332D01*
X898248Y292245D01*
X898270Y292017D01*
X898285Y291787D01*
X898301Y291702D01*
X898309Y291616D01*
X898361Y291392D01*
X898404Y291167D01*
X898431Y291084D01*
X898450Y291000D01*
X898561Y290686D01*
X898601Y290566D01*
X898613Y290539D01*
X898625Y290505D01*
X900865Y285098D01*
X900865Y264838D01*
X898943Y260199D01*
X895393Y256649D01*
X890754Y254727D01*
X885734Y254727D01*
X881095Y256649D01*
X877545Y260199D01*
X875623Y264838D01*
X875623Y285098D01*
X877863Y290505D01*
X877891Y290587D01*
X877926Y290666D01*
X877993Y290886D01*
X878067Y291103D01*
X878085Y291188D01*
X878110Y291271D01*
X878148Y291498D01*
X878195Y291722D01*
X878201Y291808D01*
X878216Y291894D01*
X878233Y292227D01*
X878243Y292352D01*
X878241Y292382D01*
X878243Y292418D01*
X878243Y322542D01*
X878238Y322628D01*
X878240Y322715D01*
X878218Y322943D01*
X878203Y323173D01*
X878187Y323258D01*
X878179Y323344D01*
X878127Y323568D01*
X878084Y323793D01*
X878057Y323876D01*
X878038Y323960D01*
X877927Y324274D01*
X877887Y324394D01*
X877875Y324421D01*
X877863Y324455D01*
X875623Y329862D01*
X875623Y350122D01*
X877863Y355529D01*
X877891Y355611D01*
X877926Y355690D01*
X877993Y355910D01*
X878067Y356127D01*
X878085Y356212D01*
X878110Y356295D01*
X878148Y356522D01*
X878195Y356746D01*
X878201Y356832D01*
X878216Y356918D01*
X878233Y357251D01*
X878243Y357376D01*
X878241Y357406D01*
X878243Y357442D01*
X878243Y381463D01*
X878236Y381582D01*
X878238Y381701D01*
X878216Y381897D01*
X878203Y382094D01*
X878181Y382211D01*
X878168Y382329D01*
X878121Y382521D01*
X878084Y382714D01*
X878047Y382828D01*
X878019Y382944D01*
X877949Y383128D01*
X877887Y383315D01*
X877836Y383423D01*
X877794Y383534D01*
X877701Y383708D01*
X877617Y383886D01*
X877552Y383987D01*
X877496Y384092D01*
X877382Y384252D01*
X877276Y384419D01*
X877199Y384510D01*
X877130Y384608D01*
X876960Y384796D01*
X876871Y384904D01*
X876828Y384943D01*
X876779Y384998D01*
X867172Y394605D01*
X867082Y394684D01*
X866999Y394770D01*
X866845Y394893D01*
X866697Y395023D01*
X866599Y395090D01*
X866505Y395164D01*
X866337Y395267D01*
X866174Y395377D01*
X866068Y395431D01*
X865966Y395494D01*
X865786Y395574D01*
X865610Y395663D01*
X865498Y395703D01*
X865389Y395752D01*
X865200Y395809D01*
X865015Y395876D01*
X864899Y395901D01*
X864784Y395936D01*
X864590Y395969D01*
X864398Y396011D01*
X864279Y396022D01*
X864161Y396042D01*
X863907Y396055D01*
X863768Y396068D01*
X863710Y396065D01*
X863637Y396069D01*
X832181Y396069D01*
X828505Y397592D01*
X791032Y435065D01*
X789509Y438741D01*
X789509Y516957D01*
X789502Y517076D01*
X789504Y517195D01*
X789482Y517391D01*
X789469Y517588D01*
X789447Y517705D01*
X789434Y517823D01*
X789387Y518015D01*
X789350Y518208D01*
X789313Y518322D01*
X789285Y518438D01*
X789215Y518622D01*
X789153Y518809D01*
X789102Y518917D01*
X789060Y519028D01*
X788967Y519202D01*
X788883Y519380D01*
X788818Y519481D01*
X788762Y519586D01*
X788648Y519746D01*
X788542Y519913D01*
X788465Y520004D01*
X788396Y520102D01*
X788226Y520290D01*
X788137Y520398D01*
X788094Y520437D01*
X788045Y520492D01*
X780202Y528335D01*
X780112Y528414D01*
X780029Y528500D01*
X779875Y528623D01*
X779727Y528753D01*
X779629Y528820D01*
X779535Y528894D01*
X779367Y528997D01*
X779204Y529107D01*
X779098Y529161D01*
X778996Y529224D01*
X778816Y529304D01*
X778640Y529393D01*
X778528Y529433D01*
X778419Y529482D01*
X778231Y529539D01*
X778045Y529606D01*
X777929Y529631D01*
X777814Y529666D01*
X777620Y529699D01*
X777428Y529741D01*
X777309Y529752D01*
X777191Y529772D01*
X776937Y529785D01*
X776798Y529798D01*
X776740Y529795D01*
X776667Y529799D01*
X713861Y529799D01*
X710185Y531322D01*
X695822Y545685D01*
X694299Y549361D01*
X694299Y631317D01*
X694292Y631436D01*
X694294Y631555D01*
X694272Y631751D01*
X694259Y631948D01*
X694237Y632065D01*
X694224Y632183D01*
X694177Y632375D01*
X694140Y632568D01*
X694103Y632682D01*
X694075Y632798D01*
X694005Y632982D01*
X693943Y633169D01*
X693892Y633277D01*
X693850Y633388D01*
X693757Y633562D01*
X693673Y633740D01*
X693608Y633841D01*
X693552Y633946D01*
X693438Y634106D01*
X693332Y634273D01*
X693255Y634364D01*
X693186Y634462D01*
X693016Y634650D01*
X692927Y634758D01*
X692884Y634797D01*
X692835Y634852D01*
X684312Y643375D01*
X684222Y643454D01*
X684139Y643540D01*
X683985Y643663D01*
X683837Y643793D01*
X683739Y643860D01*
X683645Y643934D01*
X683477Y644037D01*
X683314Y644147D01*
X683208Y644201D01*
X683106Y644264D01*
X682926Y644344D01*
X682750Y644433D01*
X682638Y644473D01*
X682529Y644522D01*
X682341Y644579D01*
X682155Y644646D01*
X682039Y644671D01*
X681924Y644706D01*
X681730Y644739D01*
X681538Y644781D01*
X681419Y644792D01*
X681301Y644812D01*
X681047Y644825D01*
X680908Y644838D01*
X680850Y644835D01*
X680777Y644839D01*
X560281Y644839D01*
X556605Y646362D01*
X547435Y655532D01*
X547296Y655654D01*
X547164Y655783D01*
X547059Y655863D01*
X546961Y655950D01*
X546807Y656054D01*
X546660Y656165D01*
X546546Y656230D01*
X546437Y656304D01*
X546272Y656388D01*
X546112Y656480D01*
X545991Y656531D01*
X545874Y656590D01*
X545699Y656652D01*
X545529Y656723D01*
X545402Y656758D01*
X545278Y656802D01*
X545098Y656842D01*
X544919Y656891D01*
X544789Y656910D01*
X544661Y656938D01*
X544477Y656954D01*
X544294Y656981D01*
X544162Y656983D01*
X544031Y656994D01*
X543846Y656987D01*
X543661Y656990D01*
X543531Y656976D01*
X543400Y656971D01*
X543217Y656941D01*
X543033Y656920D01*
X542905Y656889D01*
X542776Y656868D01*
X542599Y656815D01*
X542419Y656772D01*
X542296Y656725D01*
X542170Y656687D01*
X542001Y656613D01*
X541828Y656547D01*
X541712Y656485D01*
X541592Y656432D01*
X541434Y656336D01*
X541271Y656249D01*
X541164Y656173D01*
X541051Y656105D01*
X540906Y655990D01*
X540755Y655883D01*
X540641Y655780D01*
X540555Y655713D01*
X540479Y655635D01*
X540365Y655532D01*
X538095Y653262D01*
X534419Y651739D01*
X510843Y651739D01*
X510724Y651732D01*
X510605Y651734D01*
X510409Y651712D01*
X510212Y651699D01*
X510095Y651677D01*
X509977Y651664D01*
X509785Y651617D01*
X509592Y651580D01*
X509478Y651543D01*
X509362Y651515D01*
X509178Y651445D01*
X508991Y651383D01*
X508883Y651332D01*
X508772Y651290D01*
X508598Y651197D01*
X508420Y651113D01*
X508319Y651048D01*
X508214Y650992D01*
X508054Y650878D01*
X507887Y650772D01*
X507796Y650695D01*
X507698Y650626D01*
X507510Y650456D01*
X507402Y650367D01*
X507363Y650324D01*
X507308Y650275D01*
X504245Y647212D01*
X504166Y647122D01*
X504080Y647039D01*
X503957Y646885D01*
X503827Y646737D01*
X503760Y646639D01*
X503686Y646545D01*
X503583Y646377D01*
X503473Y646214D01*
X503419Y646108D01*
X503356Y646006D01*
X503276Y645826D01*
X503187Y645650D01*
X503147Y645538D01*
X503098Y645429D01*
X503041Y645240D01*
X502974Y645055D01*
X502949Y644939D01*
X502914Y644824D01*
X502881Y644630D01*
X502839Y644438D01*
X502828Y644319D01*
X502808Y644201D01*
X502795Y643947D01*
X502782Y643808D01*
X502785Y643750D01*
X502781Y643677D01*
X502781Y631307D01*
X502797Y631057D01*
X502806Y630806D01*
X502817Y630741D01*
X502821Y630676D01*
X502868Y630430D01*
X502909Y630182D01*
X502928Y630119D01*
X502940Y630055D01*
X503018Y629817D01*
X503090Y629577D01*
X503116Y629517D01*
X503137Y629454D01*
X503244Y629228D01*
X503345Y628999D01*
X503379Y628943D01*
X503407Y628883D01*
X503543Y628671D01*
X503672Y628458D01*
X503713Y628406D01*
X503748Y628351D01*
X503909Y628158D01*
X504064Y627962D01*
X504111Y627916D01*
X504153Y627866D01*
X504337Y627695D01*
X504516Y627520D01*
X504568Y627480D01*
X504617Y627436D01*
X504820Y627290D01*
X505020Y627138D01*
X505077Y627105D01*
X505130Y627067D01*
X505351Y626948D01*
X505568Y626823D01*
X505629Y626798D01*
X505686Y626767D01*
X505920Y626677D01*
X506151Y626580D01*
X506215Y626563D01*
X506276Y626539D01*
X506519Y626479D01*
X506761Y626412D01*
X506826Y626403D01*
X506890Y626387D01*
X507138Y626358D01*
X507386Y626323D01*
X507452Y626322D01*
X507517Y626314D01*
X507767Y626317D01*
X508019Y626313D01*
X508084Y626320D01*
X508150Y626321D01*
X508398Y626355D01*
X508647Y626383D01*
X508710Y626398D01*
X508776Y626407D01*
X509018Y626473D01*
X509261Y626532D01*
X509322Y626555D01*
X509386Y626572D01*
X509617Y626667D01*
X509852Y626757D01*
X509910Y626788D01*
X509970Y626813D01*
X510188Y626937D01*
X510409Y627055D01*
X510463Y627093D01*
X510520Y627125D01*
X510721Y627275D01*
X510925Y627420D01*
X510980Y627470D01*
X511026Y627504D01*
X511126Y627601D01*
X511315Y627772D01*
X512223Y628679D01*
X513181Y629375D01*
X513181Y615100D01*
X513181Y600825D01*
X512223Y601521D01*
X511205Y602538D01*
X511146Y602620D01*
X510958Y602847D01*
X510772Y603075D01*
X510756Y603090D01*
X510742Y603107D01*
X510528Y603307D01*
X510315Y603511D01*
X510297Y603524D01*
X510281Y603539D01*
X510044Y603711D01*
X509806Y603886D01*
X509787Y603897D01*
X509769Y603910D01*
X509511Y604050D01*
X509254Y604194D01*
X509234Y604202D01*
X509214Y604212D01*
X508940Y604320D01*
X508667Y604429D01*
X508646Y604435D01*
X508626Y604443D01*
X508340Y604515D01*
X508056Y604589D01*
X508034Y604592D01*
X508013Y604597D01*
X507719Y604633D01*
X507429Y604670D01*
X507407Y604670D01*
X507385Y604673D01*
X507090Y604671D01*
X506797Y604672D01*
X506775Y604669D01*
X506753Y604669D01*
X506461Y604630D01*
X506170Y604593D01*
X506148Y604588D01*
X506126Y604585D01*
X505842Y604510D01*
X505557Y604437D01*
X505537Y604429D01*
X505515Y604423D01*
X505244Y604313D01*
X504970Y604204D01*
X504950Y604193D01*
X504930Y604185D01*
X504674Y604041D01*
X504416Y603899D01*
X504398Y603886D01*
X504379Y603875D01*
X504144Y603700D01*
X503905Y603526D01*
X503889Y603511D01*
X503872Y603498D01*
X503661Y603295D01*
X503446Y603092D01*
X503432Y603075D01*
X503416Y603060D01*
X503232Y602832D01*
X503045Y602604D01*
X503033Y602585D01*
X503019Y602568D01*
X502865Y602318D01*
X502708Y602069D01*
X502698Y602047D01*
X502688Y602030D01*
X502656Y601960D01*
X499354Y598658D01*
X495088Y596891D01*
X490472Y596891D01*
X486206Y598658D01*
X483615Y601249D01*
X483476Y601372D01*
X483344Y601501D01*
X483239Y601580D01*
X483141Y601667D01*
X482987Y601771D01*
X482840Y601883D01*
X482726Y601948D01*
X482617Y602022D01*
X482452Y602106D01*
X482292Y602198D01*
X482171Y602248D01*
X482054Y602308D01*
X481879Y602370D01*
X481709Y602441D01*
X481582Y602476D01*
X481458Y602520D01*
X481278Y602560D01*
X481099Y602609D01*
X480969Y602627D01*
X480841Y602655D01*
X480657Y602672D01*
X480474Y602698D01*
X480342Y602700D01*
X480211Y602712D01*
X480026Y602705D01*
X479841Y602708D01*
X479711Y602693D01*
X479580Y602689D01*
X479397Y602658D01*
X479213Y602638D01*
X479085Y602607D01*
X478956Y602586D01*
X478779Y602533D01*
X478599Y602489D01*
X478476Y602442D01*
X478350Y602405D01*
X478181Y602330D01*
X478008Y602264D01*
X477892Y602202D01*
X477772Y602149D01*
X477614Y602054D01*
X477451Y601966D01*
X477344Y601891D01*
X477231Y601823D01*
X477086Y601708D01*
X476935Y601601D01*
X476821Y601498D01*
X476735Y601430D01*
X476659Y601352D01*
X476545Y601249D01*
X473953Y598658D01*
X469688Y596891D01*
X465072Y596891D01*
X460806Y598658D01*
X458215Y601249D01*
X458076Y601372D01*
X457944Y601501D01*
X457839Y601580D01*
X457741Y601667D01*
X457587Y601771D01*
X457440Y601883D01*
X457326Y601948D01*
X457217Y602022D01*
X457052Y602106D01*
X456892Y602198D01*
X456771Y602248D01*
X456654Y602308D01*
X456479Y602370D01*
X456309Y602441D01*
X456182Y602476D01*
X456058Y602520D01*
X455878Y602560D01*
X455699Y602609D01*
X455569Y602627D01*
X455441Y602655D01*
X455257Y602672D01*
X455074Y602698D01*
X454942Y602700D01*
X454811Y602712D01*
X454626Y602705D01*
X454441Y602708D01*
X454311Y602693D01*
X454180Y602689D01*
X453997Y602658D01*
X453813Y602638D01*
X453685Y602607D01*
X453556Y602586D01*
X453379Y602533D01*
X453199Y602489D01*
X453076Y602442D01*
X452950Y602405D01*
X452781Y602330D01*
X452608Y602264D01*
X452492Y602202D01*
X452372Y602149D01*
X452214Y602054D01*
X452051Y601966D01*
X451944Y601891D01*
X451831Y601823D01*
X451686Y601708D01*
X451535Y601601D01*
X451421Y601498D01*
X451335Y601430D01*
X451259Y601352D01*
X451145Y601249D01*
X448553Y598658D01*
X444288Y596891D01*
X439672Y596891D01*
X435406Y598658D01*
X432815Y601249D01*
X432676Y601372D01*
X432544Y601501D01*
X432439Y601580D01*
X432341Y601667D01*
X432187Y601771D01*
X432040Y601883D01*
X431926Y601948D01*
X431817Y602022D01*
X431652Y602106D01*
X431492Y602198D01*
X431371Y602248D01*
X431254Y602308D01*
X431079Y602370D01*
X430909Y602441D01*
X430782Y602476D01*
X430658Y602520D01*
X430478Y602560D01*
X430299Y602609D01*
X430169Y602627D01*
X430041Y602655D01*
X429857Y602672D01*
X429674Y602698D01*
X429542Y602700D01*
X429411Y602712D01*
X429226Y602705D01*
X429041Y602708D01*
X428911Y602693D01*
X428780Y602689D01*
X428597Y602658D01*
X428413Y602638D01*
X428285Y602607D01*
X428156Y602586D01*
X427979Y602533D01*
X427799Y602489D01*
X427676Y602442D01*
X427550Y602405D01*
X427381Y602330D01*
X427208Y602264D01*
X427092Y602202D01*
X426972Y602149D01*
X426814Y602054D01*
X426651Y601966D01*
X426544Y601891D01*
X426431Y601823D01*
X426286Y601708D01*
X426135Y601601D01*
X426021Y601498D01*
X425935Y601430D01*
X425859Y601352D01*
X425745Y601249D01*
X423153Y598658D01*
X418888Y596891D01*
X414272Y596891D01*
X410006Y598658D01*
X407415Y601249D01*
X407276Y601372D01*
X407144Y601501D01*
X407039Y601580D01*
X406941Y601667D01*
X406787Y601771D01*
X406640Y601883D01*
X406526Y601948D01*
X406417Y602022D01*
X406252Y602106D01*
X406092Y602198D01*
X405971Y602248D01*
X405854Y602308D01*
X405679Y602370D01*
X405509Y602441D01*
X405382Y602476D01*
X405258Y602520D01*
X405078Y602560D01*
X404899Y602609D01*
X404769Y602627D01*
X404641Y602655D01*
X404457Y602672D01*
X404274Y602698D01*
X404142Y602700D01*
X404011Y602712D01*
X403826Y602705D01*
X403641Y602708D01*
X403511Y602693D01*
X403380Y602689D01*
X403197Y602658D01*
X403013Y602638D01*
X402885Y602607D01*
X402756Y602586D01*
X402579Y602533D01*
X402399Y602489D01*
X402276Y602442D01*
X402150Y602405D01*
X401981Y602330D01*
X401808Y602264D01*
X401692Y602202D01*
X401572Y602149D01*
X401414Y602054D01*
X401251Y601966D01*
X401144Y601891D01*
X401031Y601823D01*
X400886Y601708D01*
X400735Y601601D01*
X400621Y601498D01*
X400535Y601430D01*
X400459Y601352D01*
X400345Y601249D01*
X397753Y598658D01*
X393488Y596891D01*
X388872Y596891D01*
X384606Y598658D01*
X382015Y601249D01*
X381876Y601372D01*
X381744Y601501D01*
X381639Y601580D01*
X381541Y601667D01*
X381387Y601771D01*
X381240Y601883D01*
X381126Y601948D01*
X381017Y602022D01*
X380852Y602106D01*
X380692Y602198D01*
X380571Y602248D01*
X380454Y602308D01*
X380279Y602370D01*
X380109Y602441D01*
X379982Y602476D01*
X379858Y602520D01*
X379678Y602560D01*
X379499Y602609D01*
X379369Y602627D01*
X379241Y602655D01*
X379057Y602672D01*
X378874Y602698D01*
X378742Y602700D01*
X378611Y602712D01*
X378426Y602705D01*
X378241Y602708D01*
X378111Y602693D01*
X377980Y602689D01*
X377797Y602658D01*
X377613Y602638D01*
X377485Y602607D01*
X377356Y602586D01*
X377179Y602533D01*
X376999Y602489D01*
X376876Y602442D01*
X376750Y602405D01*
X376581Y602330D01*
X376408Y602264D01*
X376292Y602202D01*
X376172Y602149D01*
X376014Y602054D01*
X375851Y601966D01*
X375744Y601891D01*
X375631Y601823D01*
X375486Y601708D01*
X375335Y601601D01*
X375221Y601498D01*
X375135Y601430D01*
X375059Y601352D01*
X374945Y601249D01*
X372353Y598658D01*
X368088Y596891D01*
X363472Y596891D01*
X359206Y598658D01*
X356615Y601249D01*
X356476Y601372D01*
X356344Y601501D01*
X356239Y601580D01*
X356141Y601667D01*
X355987Y601771D01*
X355840Y601883D01*
X355726Y601948D01*
X355617Y602022D01*
X355452Y602106D01*
X355292Y602198D01*
X355171Y602248D01*
X355054Y602308D01*
X354879Y602370D01*
X354709Y602441D01*
X354582Y602476D01*
X354458Y602520D01*
X354278Y602560D01*
X354099Y602609D01*
X353969Y602627D01*
X353841Y602655D01*
X353657Y602672D01*
X353474Y602698D01*
X353342Y602700D01*
X353211Y602712D01*
X353026Y602705D01*
X352841Y602708D01*
X352711Y602693D01*
X352580Y602689D01*
X352397Y602658D01*
X352213Y602638D01*
X352085Y602607D01*
X351956Y602586D01*
X351779Y602533D01*
X351599Y602489D01*
X351476Y602442D01*
X351350Y602405D01*
X351181Y602330D01*
X351008Y602264D01*
X350892Y602202D01*
X350772Y602149D01*
X350614Y602054D01*
X350451Y601966D01*
X350344Y601891D01*
X350231Y601823D01*
X350086Y601708D01*
X349935Y601601D01*
X349821Y601498D01*
X349735Y601430D01*
X349659Y601352D01*
X349545Y601249D01*
X346953Y598658D01*
X342688Y596891D01*
X338072Y596891D01*
X333806Y598658D01*
X330542Y601922D01*
X328775Y606188D01*
X328775Y624012D01*
X328894Y624299D01*
X328943Y624442D01*
X329002Y624583D01*
X329045Y624741D01*
X329098Y624897D01*
X329129Y625046D01*
X329169Y625192D01*
X329193Y625355D01*
X329226Y625516D01*
X329237Y625667D01*
X329259Y625818D01*
X329261Y625983D01*
X329274Y626146D01*
X329266Y626298D01*
X329269Y626450D01*
X329250Y626613D01*
X329242Y626777D01*
X329216Y626927D01*
X329199Y627078D01*
X329160Y627238D01*
X329131Y627400D01*
X329086Y627545D01*
X329050Y627693D01*
X328992Y627846D01*
X328942Y628003D01*
X328879Y628141D01*
X328825Y628283D01*
X328748Y628428D01*
X328679Y628577D01*
X328599Y628707D01*
X328527Y628841D01*
X328432Y628975D01*
X328345Y629114D01*
X328249Y629232D01*
X328161Y629356D01*
X328028Y629504D01*
X327947Y629605D01*
X327885Y629663D01*
X327810Y629747D01*
X319282Y638275D01*
X319192Y638354D01*
X319109Y638440D01*
X318955Y638563D01*
X318807Y638693D01*
X318709Y638760D01*
X318615Y638834D01*
X318447Y638937D01*
X318284Y639047D01*
X318178Y639101D01*
X318076Y639164D01*
X317896Y639244D01*
X317720Y639333D01*
X317608Y639373D01*
X317499Y639422D01*
X317310Y639479D01*
X317125Y639546D01*
X317009Y639571D01*
X316894Y639606D01*
X316700Y639639D01*
X316508Y639681D01*
X316389Y639692D01*
X316271Y639712D01*
X316017Y639725D01*
X315878Y639738D01*
X315820Y639735D01*
X315747Y639739D01*
X306230Y639739D01*
X306133Y639733D01*
X306035Y639735D01*
X305818Y639713D01*
X305600Y639699D01*
X305503Y639681D01*
X305406Y639671D01*
X305194Y639621D01*
X304979Y639580D01*
X304886Y639550D01*
X304790Y639527D01*
X304586Y639451D01*
X304378Y639383D01*
X304290Y639341D01*
X304198Y639307D01*
X304005Y639206D01*
X303807Y639113D01*
X303724Y639060D01*
X303638Y639014D01*
X303459Y638890D01*
X303275Y638772D01*
X303200Y638709D01*
X303119Y638653D01*
X302957Y638506D01*
X302790Y638367D01*
X302723Y638295D01*
X302650Y638229D01*
X302508Y638064D01*
X302359Y637903D01*
X302302Y637824D01*
X302239Y637749D01*
X302118Y637567D01*
X301991Y637390D01*
X301945Y637304D01*
X301891Y637222D01*
X301794Y637025D01*
X301691Y636834D01*
X301655Y636742D01*
X301612Y636654D01*
X301542Y636448D01*
X301463Y636244D01*
X301439Y636149D01*
X301408Y636056D01*
X301364Y635842D01*
X301311Y635630D01*
X301300Y635533D01*
X301280Y635437D01*
X301263Y635219D01*
X301238Y635003D01*
X301239Y634905D01*
X301232Y634807D01*
X301243Y634588D01*
X301245Y634370D01*
X301258Y634274D01*
X301263Y634176D01*
X301302Y633961D01*
X301331Y633744D01*
X301357Y633650D01*
X301374Y633553D01*
X301439Y633345D01*
X301496Y633134D01*
X301496Y633133D01*
X284962Y633133D01*
X268423Y633133D01*
X268426Y633145D01*
X268461Y633236D01*
X268514Y633448D01*
X268574Y633658D01*
X268589Y633754D01*
X268613Y633850D01*
X268638Y634066D01*
X268672Y634282D01*
X268675Y634380D01*
X268686Y634477D01*
X268684Y634696D01*
X268690Y634914D01*
X268680Y635012D01*
X268679Y635110D01*
X268649Y635326D01*
X268628Y635543D01*
X268606Y635639D01*
X268593Y635736D01*
X268536Y635946D01*
X268487Y636159D01*
X268453Y636251D01*
X268428Y636346D01*
X268345Y636548D01*
X268270Y636753D01*
X268225Y636840D01*
X268187Y636930D01*
X268079Y637120D01*
X267979Y637314D01*
X267923Y637395D01*
X267875Y637480D01*
X267744Y637655D01*
X267620Y637834D01*
X267555Y637907D01*
X267496Y637986D01*
X267344Y638143D01*
X267198Y638305D01*
X267124Y638369D01*
X267056Y638440D01*
X266885Y638576D01*
X266720Y638719D01*
X266639Y638773D01*
X266562Y638834D01*
X266376Y638948D01*
X266194Y639069D01*
X266106Y639112D01*
X266023Y639164D01*
X265823Y639253D01*
X265628Y639350D01*
X265535Y639382D01*
X265446Y639422D01*
X265237Y639486D01*
X265031Y639557D01*
X264935Y639577D01*
X264841Y639606D01*
X264626Y639642D01*
X264412Y639687D01*
X264314Y639695D01*
X264218Y639712D01*
X263918Y639727D01*
X263782Y639738D01*
X263743Y639737D01*
X263694Y639739D01*
X256151Y639739D01*
X255198Y640134D01*
X255085Y640172D01*
X254975Y640220D01*
X254786Y640275D01*
X254600Y640338D01*
X254483Y640362D01*
X254368Y640396D01*
X254173Y640426D01*
X253981Y640466D01*
X253862Y640475D01*
X253744Y640493D01*
X253547Y640499D01*
X253350Y640514D01*
X253231Y640508D01*
X253112Y640511D01*
X252916Y640492D01*
X252719Y640482D01*
X252601Y640461D01*
X252483Y640450D01*
X252291Y640406D01*
X252097Y640371D01*
X251983Y640336D01*
X251867Y640309D01*
X251628Y640224D01*
X251494Y640183D01*
X251441Y640158D01*
X251372Y640134D01*
X249139Y639209D01*
X241477Y639209D01*
X241379Y639203D01*
X241280Y639205D01*
X241063Y639183D01*
X240846Y639169D01*
X240749Y639151D01*
X240652Y639141D01*
X240439Y639091D01*
X240225Y639050D01*
X240131Y639019D01*
X240036Y638997D01*
X239832Y638921D01*
X239624Y638853D01*
X239535Y638811D01*
X239443Y638777D01*
X239250Y638676D01*
X239053Y638583D01*
X238970Y638530D01*
X238883Y638484D01*
X238705Y638360D01*
X238521Y638242D01*
X238445Y638179D01*
X238365Y638123D01*
X238203Y637976D01*
X238036Y637837D01*
X237969Y637765D01*
X237896Y637699D01*
X237754Y637533D01*
X237605Y637373D01*
X237548Y637294D01*
X237484Y637219D01*
X237364Y637037D01*
X237237Y636860D01*
X237191Y636773D01*
X237136Y636691D01*
X237040Y636495D01*
X236937Y636304D01*
X236901Y636212D01*
X236858Y636124D01*
X236788Y635918D01*
X236709Y635714D01*
X236685Y635619D01*
X236654Y635526D01*
X236610Y635312D01*
X236557Y635100D01*
X236546Y635003D01*
X236526Y634907D01*
X236509Y634689D01*
X236484Y634473D01*
X236485Y634374D01*
X236478Y634276D01*
X236489Y634058D01*
X236491Y633840D01*
X236504Y633743D01*
X236509Y633645D01*
X236548Y633430D01*
X236577Y633214D01*
X236599Y633133D01*
X219938Y633133D01*
X219754Y633122D01*
X219569Y633120D01*
X219439Y633102D01*
X219308Y633093D01*
X219126Y633059D01*
X218943Y633033D01*
X218816Y632999D01*
X218687Y632974D01*
X218511Y632917D01*
X218332Y632868D01*
X218211Y632819D01*
X218086Y632778D01*
X217919Y632698D01*
X217748Y632628D01*
X217634Y632563D01*
X217515Y632507D01*
X217359Y632407D01*
X217198Y632316D01*
X217093Y632237D01*
X216983Y632166D01*
X216840Y632047D01*
X216693Y631936D01*
X216692Y631936D01*
X216598Y631845D01*
X216497Y631761D01*
X216497Y631760D01*
X216371Y631625D01*
X216238Y631496D01*
X216156Y631393D01*
X216067Y631297D01*
X215959Y631147D01*
X215844Y631002D01*
X215775Y630890D01*
X215699Y630783D01*
X215611Y630621D01*
X215514Y630463D01*
X215460Y630343D01*
X215398Y630227D01*
X215331Y630055D01*
X215256Y629886D01*
X215218Y629760D01*
X215170Y629638D01*
X215126Y629458D01*
X215072Y629281D01*
X215050Y629151D01*
X215019Y629024D01*
X214997Y628841D01*
X214966Y628658D01*
X214958Y628504D01*
X214945Y628396D01*
X214947Y628287D01*
X214939Y628134D01*
X214939Y617973D01*
X211518Y617973D01*
X209939Y618223D01*
X208418Y618718D01*
X206993Y619444D01*
X205699Y620384D01*
X204568Y621515D01*
X203628Y622809D01*
X203337Y623379D01*
X203326Y623398D01*
X203317Y623417D01*
X203165Y623669D01*
X203015Y623923D01*
X203002Y623940D01*
X202991Y623958D01*
X202809Y624188D01*
X202627Y624422D01*
X202612Y624437D01*
X202598Y624454D01*
X202389Y624659D01*
X202179Y624868D01*
X202162Y624881D01*
X202147Y624896D01*
X201912Y625074D01*
X201679Y625254D01*
X201660Y625265D01*
X201643Y625278D01*
X201387Y625425D01*
X201133Y625573D01*
X201114Y625582D01*
X201095Y625593D01*
X200822Y625707D01*
X200552Y625822D01*
X200532Y625828D01*
X200511Y625836D01*
X200226Y625915D01*
X199944Y625995D01*
X199923Y625998D01*
X199902Y626004D01*
X199609Y626046D01*
X199319Y626090D01*
X199298Y626090D01*
X199276Y626093D01*
X198981Y626098D01*
X198687Y626105D01*
X198666Y626103D01*
X198644Y626103D01*
X198352Y626070D01*
X198059Y626040D01*
X198038Y626035D01*
X198016Y626033D01*
X197729Y625964D01*
X197443Y625897D01*
X197423Y625889D01*
X197402Y625884D01*
X197126Y625779D01*
X196850Y625677D01*
X196831Y625667D01*
X196811Y625659D01*
X196552Y625521D01*
X196290Y625384D01*
X196272Y625372D01*
X196253Y625362D01*
X196013Y625191D01*
X195772Y625023D01*
X195756Y625008D01*
X195738Y624996D01*
X195348Y624645D01*
X172991Y602288D01*
X169475Y598772D01*
X165799Y597249D01*
X149822Y597249D01*
X149703Y597242D01*
X149583Y597244D01*
X149387Y597222D01*
X149191Y597209D01*
X149074Y597187D01*
X148955Y597174D01*
X148763Y597127D01*
X148570Y597090D01*
X148456Y597053D01*
X148341Y597025D01*
X148157Y596955D01*
X147969Y596893D01*
X147861Y596842D01*
X147750Y596800D01*
X147576Y596707D01*
X147398Y596623D01*
X147297Y596558D01*
X147192Y596502D01*
X147032Y596388D01*
X146866Y596282D01*
X146774Y596205D01*
X146677Y596136D01*
X146488Y595966D01*
X146381Y595877D01*
X146341Y595834D01*
X146287Y595785D01*
X146147Y595645D01*
X137100Y595645D01*
X136915Y595634D01*
X136730Y595632D01*
X136600Y595614D01*
X136469Y595605D01*
X136288Y595570D01*
X136104Y595545D01*
X135978Y595511D01*
X135848Y595486D01*
X135672Y595428D01*
X135494Y595380D01*
X135373Y595330D01*
X135248Y595289D01*
X135080Y595210D01*
X134910Y595140D01*
X134795Y595075D01*
X134677Y595019D01*
X134521Y594919D01*
X134360Y594828D01*
X134255Y594749D01*
X134144Y594678D01*
X134002Y594559D01*
X133854Y594448D01*
X133760Y594357D01*
X133659Y594273D01*
X133533Y594137D01*
X133400Y594008D01*
X133318Y593906D01*
X133229Y593809D01*
X133121Y593659D01*
X133006Y593515D01*
X132937Y593402D01*
X132861Y593296D01*
X132773Y593133D01*
X132676Y592975D01*
X132623Y592855D01*
X132560Y592740D01*
X132494Y592567D01*
X132418Y592398D01*
X132380Y592273D01*
X132332Y592150D01*
X132288Y591970D01*
X132234Y591793D01*
X132212Y591664D01*
X132181Y591536D01*
X132159Y591353D01*
X132128Y591170D01*
X132120Y591017D01*
X132108Y590909D01*
X132109Y590800D01*
X132101Y590646D01*
X132101Y494451D01*
X130578Y490775D01*
X109395Y469592D01*
X105719Y468069D01*
X99939Y468069D01*
X99689Y468053D01*
X99439Y468044D01*
X99374Y468033D01*
X99309Y468029D01*
X99062Y467982D01*
X98815Y467941D01*
X98752Y467922D01*
X98688Y467910D01*
X98449Y467832D01*
X98210Y467760D01*
X98150Y467734D01*
X98087Y467713D01*
X97860Y467606D01*
X97632Y467505D01*
X97575Y467471D01*
X97516Y467443D01*
X97304Y467307D01*
X97090Y467178D01*
X97039Y467137D01*
X96984Y467102D01*
X96791Y466941D01*
X96595Y466786D01*
X96549Y466739D01*
X96498Y466697D01*
X96328Y466513D01*
X96153Y466334D01*
X96113Y466282D01*
X96068Y466233D01*
X95922Y466030D01*
X95771Y465830D01*
X95738Y465773D01*
X95700Y465720D01*
X95581Y465500D01*
X95456Y465282D01*
X95431Y465221D01*
X95400Y465164D01*
X95309Y464930D01*
X95213Y464699D01*
X95195Y464635D01*
X95172Y464574D01*
X95112Y464331D01*
X95045Y464089D01*
X95036Y464024D01*
X95020Y463960D01*
X94991Y463712D01*
X94956Y463463D01*
X94955Y463398D01*
X94947Y463333D01*
X94950Y463083D01*
X94946Y462831D01*
X94953Y462766D01*
X94954Y462700D01*
X94988Y462453D01*
X95016Y462203D01*
X95031Y462139D01*
X95040Y462074D01*
X95106Y461832D01*
X95165Y461589D01*
X95188Y461528D01*
X95205Y461464D01*
X95301Y461232D01*
X95390Y460998D01*
X95421Y460940D01*
X95446Y460880D01*
X95569Y460662D01*
X95687Y460441D01*
X95725Y460387D01*
X95758Y460330D01*
X95908Y460129D01*
X96053Y459925D01*
X96102Y459871D01*
X96137Y459824D01*
X96235Y459724D01*
X96405Y459535D01*
X96650Y459289D01*
X97590Y457995D01*
X97756Y457669D01*
X81280Y457669D01*
X64804Y457669D01*
X64970Y457995D01*
X65910Y459289D01*
X66155Y459535D01*
X66321Y459723D01*
X66492Y459907D01*
X66530Y459960D01*
X66573Y460009D01*
X66714Y460217D01*
X66860Y460420D01*
X66891Y460478D01*
X66928Y460532D01*
X67041Y460756D01*
X67160Y460976D01*
X67184Y461038D01*
X67214Y461096D01*
X67298Y461332D01*
X67388Y461566D01*
X67404Y461630D01*
X67426Y461692D01*
X67480Y461937D01*
X67540Y462180D01*
X67547Y462245D01*
X67562Y462309D01*
X67584Y462559D01*
X67613Y462807D01*
X67612Y462873D01*
X67618Y462939D01*
X67609Y463189D01*
X67606Y463440D01*
X67597Y463505D01*
X67595Y463570D01*
X67554Y463817D01*
X67520Y464066D01*
X67503Y464129D01*
X67492Y464194D01*
X67420Y464434D01*
X67355Y464676D01*
X67330Y464737D01*
X67311Y464800D01*
X67210Y465029D01*
X67114Y465260D01*
X67082Y465318D01*
X67055Y465378D01*
X66926Y465592D01*
X66802Y465810D01*
X66763Y465863D01*
X66729Y465919D01*
X66573Y466115D01*
X66423Y466316D01*
X66377Y466363D01*
X66336Y466414D01*
X66158Y466589D01*
X65983Y466770D01*
X65932Y466811D01*
X65885Y466857D01*
X65685Y467008D01*
X65489Y467164D01*
X65433Y467199D01*
X65381Y467238D01*
X65164Y467363D01*
X64950Y467494D01*
X64890Y467521D01*
X64833Y467553D01*
X64602Y467649D01*
X64373Y467752D01*
X64310Y467771D01*
X64249Y467796D01*
X64008Y467863D01*
X63768Y467936D01*
X63703Y467947D01*
X63640Y467964D01*
X63392Y468000D01*
X63145Y468042D01*
X63071Y468046D01*
X63014Y468054D01*
X62875Y468056D01*
X62621Y468069D01*
X50311Y468069D01*
X46635Y469592D01*
X26242Y489985D01*
X24719Y493661D01*
X24719Y570417D01*
X24712Y570536D01*
X24714Y570655D01*
X24692Y570851D01*
X24679Y571048D01*
X24657Y571165D01*
X24644Y571283D01*
X24597Y571475D01*
X24560Y571668D01*
X24523Y571782D01*
X24495Y571898D01*
X24425Y572082D01*
X24363Y572269D01*
X24312Y572377D01*
X24270Y572488D01*
X24177Y572662D01*
X24093Y572840D01*
X24028Y572941D01*
X23972Y573046D01*
X23858Y573207D01*
X23752Y573373D01*
X23675Y573464D01*
X23606Y573562D01*
X23436Y573751D01*
X23347Y573858D01*
X23304Y573897D01*
X23255Y573952D01*
X18695Y578512D01*
X18507Y578678D01*
X18323Y578848D01*
X18270Y578886D01*
X18221Y578930D01*
X18013Y579070D01*
X17810Y579216D01*
X17752Y579247D01*
X17697Y579284D01*
X17474Y579398D01*
X17254Y579517D01*
X17192Y579540D01*
X17134Y579570D01*
X16897Y579654D01*
X16664Y579744D01*
X16600Y579760D01*
X16538Y579782D01*
X16294Y579836D01*
X16050Y579896D01*
X15985Y579904D01*
X15921Y579918D01*
X15671Y579940D01*
X15423Y579969D01*
X15357Y579968D01*
X15291Y579974D01*
X15040Y579965D01*
X14790Y579962D01*
X14726Y579953D01*
X14660Y579951D01*
X14412Y579910D01*
X14164Y579876D01*
X14101Y579859D01*
X14036Y579848D01*
X13796Y579776D01*
X13554Y579711D01*
X13493Y579686D01*
X13430Y579667D01*
X13201Y579566D01*
X12970Y579471D01*
X12912Y579438D01*
X12852Y579412D01*
X12638Y579282D01*
X12420Y579158D01*
X12367Y579119D01*
X12311Y579085D01*
X12115Y578929D01*
X11914Y578779D01*
X11867Y578733D01*
X11816Y578693D01*
X11640Y578514D01*
X11460Y578339D01*
X11419Y578288D01*
X11373Y578241D01*
X11222Y578041D01*
X11066Y577845D01*
X11031Y577789D01*
X10992Y577737D01*
X10867Y577520D01*
X10736Y577306D01*
X10709Y577246D01*
X10677Y577189D01*
X10580Y576958D01*
X10478Y576729D01*
X10459Y576666D01*
X10433Y576606D01*
X10367Y576364D01*
X10294Y576124D01*
X10283Y576060D01*
X10266Y575996D01*
X10230Y575748D01*
X10188Y575501D01*
X10184Y575427D01*
X10176Y575370D01*
X10174Y575231D01*
X10161Y574977D01*
X10161Y362042D01*
X10174Y361835D01*
X10178Y361628D01*
X10194Y361520D01*
X10201Y361411D01*
X10240Y361208D01*
X10270Y361003D01*
X10299Y360898D01*
X10320Y360790D01*
X10384Y360593D01*
X10440Y360394D01*
X10482Y360294D01*
X10517Y360189D01*
X10605Y360002D01*
X10686Y359812D01*
X10740Y359717D01*
X10787Y359618D01*
X10899Y359443D01*
X11003Y359265D01*
X11069Y359178D01*
X11128Y359086D01*
X11261Y358927D01*
X11386Y358763D01*
X11463Y358685D01*
X11533Y358601D01*
X11685Y358460D01*
X11830Y358313D01*
X11916Y358245D01*
X11997Y358170D01*
X12164Y358050D01*
X12327Y357922D01*
X12421Y357866D01*
X12510Y357802D01*
X12692Y357704D01*
X12870Y357598D01*
X12970Y357554D01*
X13066Y357502D01*
X13259Y357427D01*
X13449Y357344D01*
X13554Y357313D01*
X13656Y357274D01*
X13857Y357224D01*
X14055Y357166D01*
X14164Y357148D01*
X14270Y357122D01*
X14475Y357098D01*
X14679Y357065D01*
X14789Y357062D01*
X14897Y357049D01*
X15104Y357051D01*
X15311Y357045D01*
X15420Y357055D01*
X15530Y357056D01*
X15734Y357084D01*
X15940Y357104D01*
X16063Y357130D01*
X16156Y357142D01*
X16274Y357175D01*
X16454Y357213D01*
X22717Y358891D01*
X28683Y358891D01*
X34447Y357346D01*
X39614Y354363D01*
X43833Y350144D01*
X46816Y344977D01*
X48361Y339213D01*
X48361Y333247D01*
X46816Y327483D01*
X43833Y322316D01*
X39614Y318097D01*
X34447Y315114D01*
X28683Y313569D01*
X22717Y313569D01*
X16454Y315247D01*
X16251Y315288D01*
X16050Y315338D01*
X15942Y315350D01*
X15834Y315372D01*
X15628Y315387D01*
X15423Y315411D01*
X15313Y315410D01*
X15204Y315418D01*
X14997Y315406D01*
X14790Y315404D01*
X14682Y315389D01*
X14573Y315383D01*
X14369Y315346D01*
X14164Y315318D01*
X14058Y315289D01*
X13951Y315269D01*
X13754Y315207D01*
X13554Y315153D01*
X13453Y315111D01*
X13348Y315078D01*
X13161Y314991D01*
X12970Y314912D01*
X12874Y314858D01*
X12775Y314812D01*
X12600Y314702D01*
X12420Y314600D01*
X12332Y314534D01*
X12240Y314476D01*
X12080Y314345D01*
X11914Y314221D01*
X11836Y314145D01*
X11751Y314075D01*
X11609Y313925D01*
X11460Y313781D01*
X11392Y313695D01*
X11317Y313616D01*
X11195Y313449D01*
X11066Y313287D01*
X11009Y313194D01*
X10944Y313105D01*
X10844Y312924D01*
X10736Y312748D01*
X10692Y312648D01*
X10639Y312552D01*
X10562Y312359D01*
X10478Y312171D01*
X10446Y312066D01*
X10406Y311964D01*
X10354Y311764D01*
X10294Y311566D01*
X10276Y311458D01*
X10249Y311352D01*
X10223Y311147D01*
X10188Y310943D01*
X10182Y310817D01*
X10170Y310725D01*
X10170Y310601D01*
X10161Y310418D01*
X10161Y52042D01*
X10174Y51835D01*
X10178Y51628D01*
X10194Y51520D01*
X10201Y51411D01*
X10240Y51208D01*
X10270Y51003D01*
X10299Y50898D01*
X10320Y50790D01*
X10384Y50593D01*
X10440Y50394D01*
X10482Y50294D01*
X10517Y50189D01*
X10605Y50002D01*
X10686Y49812D01*
X10740Y49717D01*
X10787Y49618D01*
X10899Y49443D01*
X11003Y49265D01*
X11069Y49178D01*
X11128Y49086D01*
X11261Y48927D01*
X11386Y48763D01*
X11463Y48685D01*
X11533Y48601D01*
X11685Y48460D01*
X11830Y48313D01*
X11916Y48245D01*
X11997Y48170D01*
X12164Y48050D01*
X12327Y47922D01*
X12421Y47866D01*
X12510Y47802D01*
X12692Y47704D01*
X12870Y47598D01*
X12970Y47554D01*
X13066Y47502D01*
X13259Y47427D01*
X13449Y47344D01*
X13554Y47313D01*
X13656Y47274D01*
X13857Y47224D01*
X14055Y47166D01*
X14164Y47148D01*
X14270Y47122D01*
X14475Y47098D01*
X14679Y47065D01*
X14789Y47062D01*
X14897Y47049D01*
X15104Y47051D01*
X15311Y47045D01*
X15420Y47055D01*
X15530Y47056D01*
X15734Y47084D01*
X15940Y47104D01*
X16063Y47130D01*
X16156Y47142D01*
X16274Y47175D01*
X16454Y47213D01*
X22717Y48891D01*
X28683Y48891D01*
X34447Y47346D01*
X39614Y44363D01*
X43833Y40144D01*
X46816Y34977D01*
X48361Y29213D01*
X48361Y23247D01*
X46801Y17426D01*
X46708Y17254D01*
X46676Y17172D01*
X46638Y17094D01*
X46563Y16877D01*
X46480Y16664D01*
X46459Y16579D01*
X46430Y16496D01*
X46383Y16272D01*
X46328Y16050D01*
X46318Y15964D01*
X46300Y15878D01*
X46282Y15650D01*
X46255Y15423D01*
X46256Y15335D01*
X46249Y15248D01*
X46260Y15019D01*
X46262Y14790D01*
X46274Y14704D01*
X46278Y14616D01*
X46317Y14390D01*
X46349Y14164D01*
X46371Y14080D01*
X46386Y13994D01*
X46454Y13774D01*
X46513Y13554D01*
X46547Y13473D01*
X46572Y13390D01*
X46667Y13181D01*
X46754Y12970D01*
X46797Y12893D01*
X46833Y12814D01*
X46953Y12619D01*
X47066Y12420D01*
X47119Y12350D01*
X47165Y12276D01*
X47308Y12098D01*
X47445Y11914D01*
X47506Y11851D01*
X47561Y11783D01*
X47726Y11625D01*
X47885Y11460D01*
X47954Y11406D01*
X48017Y11345D01*
X48200Y11209D01*
X48379Y11066D01*
X48454Y11020D01*
X48524Y10968D01*
X48723Y10856D01*
X48919Y10736D01*
X48999Y10701D01*
X49075Y10658D01*
X49286Y10572D01*
X49495Y10478D01*
X49579Y10452D01*
X49660Y10420D01*
X49881Y10361D01*
X50100Y10294D01*
X50187Y10280D01*
X50271Y10257D01*
X50498Y10227D01*
X50723Y10188D01*
X50822Y10183D01*
X50897Y10173D01*
X51032Y10172D01*
X51248Y10161D01*
X750152Y10161D01*
X750381Y10175D01*
G37*
%LPC*%
G36*
X78038Y322847D02*
X78038Y322847D01*
X73119Y324885D01*
X69355Y328649D01*
X67317Y333568D01*
X67317Y338892D01*
X69355Y343811D01*
X69445Y343901D01*
X69524Y343991D01*
X69610Y344074D01*
X69733Y344228D01*
X69863Y344375D01*
X69930Y344474D01*
X70004Y344567D01*
X70107Y344736D01*
X70217Y344899D01*
X70271Y345005D01*
X70334Y345107D01*
X70414Y345287D01*
X70503Y345462D01*
X70543Y345575D01*
X70592Y345684D01*
X70649Y345872D01*
X70716Y346058D01*
X70741Y346174D01*
X70776Y346289D01*
X70809Y346483D01*
X70851Y346675D01*
X70862Y346794D01*
X70882Y346912D01*
X70895Y347166D01*
X70908Y347305D01*
X70905Y347363D01*
X70909Y347436D01*
X70909Y385590D01*
X70904Y385676D01*
X70906Y385763D01*
X70884Y385991D01*
X70869Y386221D01*
X70853Y386306D01*
X70845Y386392D01*
X70793Y386616D01*
X70750Y386841D01*
X70723Y386924D01*
X70704Y387008D01*
X70593Y387322D01*
X70553Y387442D01*
X70541Y387469D01*
X70529Y387503D01*
X68289Y392910D01*
X68289Y413170D01*
X70211Y417809D01*
X73761Y421359D01*
X78400Y423281D01*
X83420Y423281D01*
X88059Y421359D01*
X90075Y419343D01*
X90214Y419221D01*
X90346Y419092D01*
X90451Y419013D01*
X90549Y418926D01*
X90703Y418822D01*
X90850Y418710D01*
X90964Y418645D01*
X91073Y418571D01*
X91238Y418487D01*
X91398Y418395D01*
X91519Y418345D01*
X91636Y418285D01*
X91811Y418223D01*
X91981Y418152D01*
X92108Y418117D01*
X92232Y418073D01*
X92412Y418033D01*
X92591Y417984D01*
X92721Y417966D01*
X92849Y417937D01*
X93033Y417921D01*
X93216Y417895D01*
X93348Y417893D01*
X93479Y417881D01*
X93664Y417888D01*
X93849Y417885D01*
X93979Y417899D01*
X94110Y417904D01*
X94293Y417934D01*
X94477Y417955D01*
X94605Y417986D01*
X94734Y418007D01*
X94911Y418060D01*
X95091Y418104D01*
X95214Y418150D01*
X95340Y418188D01*
X95509Y418263D01*
X95682Y418329D01*
X95798Y418391D01*
X95918Y418444D01*
X96076Y418539D01*
X96239Y418626D01*
X96346Y418702D01*
X96459Y418770D01*
X96604Y418885D01*
X96755Y418992D01*
X96869Y419095D01*
X96955Y419163D01*
X97031Y419241D01*
X97145Y419343D01*
X99161Y421359D01*
X103800Y423281D01*
X108820Y423281D01*
X113459Y421359D01*
X115475Y419343D01*
X115614Y419221D01*
X115746Y419092D01*
X115851Y419013D01*
X115949Y418926D01*
X116103Y418822D01*
X116250Y418710D01*
X116364Y418645D01*
X116473Y418571D01*
X116638Y418487D01*
X116798Y418395D01*
X116919Y418345D01*
X117036Y418285D01*
X117211Y418223D01*
X117381Y418152D01*
X117508Y418117D01*
X117632Y418073D01*
X117812Y418033D01*
X117991Y417984D01*
X118121Y417966D01*
X118249Y417937D01*
X118433Y417921D01*
X118616Y417895D01*
X118748Y417893D01*
X118879Y417881D01*
X119064Y417888D01*
X119249Y417885D01*
X119379Y417899D01*
X119510Y417904D01*
X119693Y417934D01*
X119877Y417955D01*
X120005Y417986D01*
X120134Y418007D01*
X120311Y418060D01*
X120491Y418104D01*
X120614Y418150D01*
X120740Y418188D01*
X120909Y418263D01*
X121082Y418329D01*
X121198Y418391D01*
X121318Y418444D01*
X121476Y418539D01*
X121639Y418626D01*
X121746Y418702D01*
X121859Y418770D01*
X122004Y418885D01*
X122155Y418992D01*
X122269Y419095D01*
X122355Y419163D01*
X122431Y419241D01*
X122545Y419343D01*
X124561Y421359D01*
X129200Y423281D01*
X134220Y423281D01*
X138859Y421359D01*
X140875Y419343D01*
X141014Y419221D01*
X141146Y419092D01*
X141251Y419013D01*
X141349Y418926D01*
X141503Y418822D01*
X141650Y418710D01*
X141764Y418645D01*
X141873Y418571D01*
X142038Y418487D01*
X142198Y418395D01*
X142319Y418345D01*
X142436Y418285D01*
X142611Y418223D01*
X142781Y418152D01*
X142908Y418117D01*
X143032Y418073D01*
X143212Y418033D01*
X143391Y417984D01*
X143521Y417966D01*
X143649Y417937D01*
X143833Y417921D01*
X144016Y417895D01*
X144148Y417893D01*
X144279Y417881D01*
X144464Y417888D01*
X144649Y417885D01*
X144779Y417899D01*
X144910Y417904D01*
X145093Y417934D01*
X145277Y417955D01*
X145405Y417986D01*
X145534Y418007D01*
X145711Y418060D01*
X145891Y418104D01*
X146014Y418150D01*
X146140Y418188D01*
X146309Y418263D01*
X146482Y418329D01*
X146598Y418391D01*
X146718Y418444D01*
X146876Y418539D01*
X147039Y418626D01*
X147146Y418702D01*
X147259Y418770D01*
X147404Y418885D01*
X147555Y418992D01*
X147669Y419095D01*
X147755Y419163D01*
X147831Y419241D01*
X147945Y419343D01*
X149961Y421359D01*
X154600Y423281D01*
X159620Y423281D01*
X164259Y421359D01*
X166275Y419343D01*
X166414Y419221D01*
X166546Y419092D01*
X166651Y419013D01*
X166749Y418926D01*
X166903Y418822D01*
X167050Y418710D01*
X167164Y418645D01*
X167273Y418571D01*
X167438Y418487D01*
X167598Y418395D01*
X167719Y418345D01*
X167836Y418285D01*
X168011Y418223D01*
X168181Y418152D01*
X168308Y418117D01*
X168432Y418073D01*
X168612Y418033D01*
X168791Y417984D01*
X168921Y417966D01*
X169049Y417937D01*
X169233Y417921D01*
X169416Y417895D01*
X169548Y417893D01*
X169679Y417881D01*
X169864Y417888D01*
X170049Y417885D01*
X170179Y417899D01*
X170310Y417904D01*
X170493Y417934D01*
X170677Y417955D01*
X170805Y417986D01*
X170934Y418007D01*
X171111Y418060D01*
X171291Y418104D01*
X171414Y418150D01*
X171540Y418188D01*
X171709Y418263D01*
X171882Y418329D01*
X171998Y418391D01*
X172118Y418444D01*
X172276Y418539D01*
X172439Y418626D01*
X172546Y418702D01*
X172659Y418770D01*
X172804Y418885D01*
X172955Y418992D01*
X173069Y419095D01*
X173155Y419163D01*
X173231Y419241D01*
X173345Y419343D01*
X175361Y421359D01*
X180000Y423281D01*
X185020Y423281D01*
X189659Y421359D01*
X191675Y419343D01*
X191814Y419221D01*
X191946Y419092D01*
X192051Y419013D01*
X192149Y418926D01*
X192303Y418822D01*
X192450Y418710D01*
X192564Y418645D01*
X192673Y418571D01*
X192838Y418487D01*
X192998Y418395D01*
X193119Y418345D01*
X193236Y418285D01*
X193411Y418223D01*
X193581Y418152D01*
X193708Y418117D01*
X193832Y418073D01*
X194012Y418033D01*
X194191Y417984D01*
X194321Y417966D01*
X194449Y417937D01*
X194633Y417921D01*
X194816Y417895D01*
X194948Y417893D01*
X195079Y417881D01*
X195264Y417888D01*
X195449Y417885D01*
X195579Y417899D01*
X195710Y417904D01*
X195893Y417934D01*
X196077Y417955D01*
X196205Y417986D01*
X196334Y418007D01*
X196511Y418060D01*
X196691Y418104D01*
X196814Y418150D01*
X196940Y418188D01*
X197109Y418263D01*
X197282Y418329D01*
X197398Y418391D01*
X197518Y418444D01*
X197676Y418539D01*
X197839Y418626D01*
X197946Y418702D01*
X198059Y418770D01*
X198204Y418885D01*
X198355Y418992D01*
X198469Y419095D01*
X198555Y419163D01*
X198631Y419241D01*
X198745Y419343D01*
X200761Y421359D01*
X205400Y423281D01*
X210420Y423281D01*
X215059Y421359D01*
X217075Y419343D01*
X217214Y419221D01*
X217346Y419092D01*
X217451Y419013D01*
X217549Y418926D01*
X217703Y418822D01*
X217850Y418710D01*
X217964Y418645D01*
X218073Y418571D01*
X218238Y418487D01*
X218398Y418395D01*
X218519Y418345D01*
X218636Y418285D01*
X218811Y418223D01*
X218981Y418152D01*
X219108Y418117D01*
X219232Y418073D01*
X219412Y418033D01*
X219591Y417984D01*
X219721Y417966D01*
X219849Y417937D01*
X220033Y417921D01*
X220216Y417895D01*
X220348Y417893D01*
X220479Y417881D01*
X220664Y417888D01*
X220849Y417885D01*
X220979Y417899D01*
X221110Y417904D01*
X221293Y417934D01*
X221477Y417955D01*
X221605Y417986D01*
X221734Y418007D01*
X221911Y418060D01*
X222091Y418104D01*
X222214Y418150D01*
X222340Y418188D01*
X222509Y418263D01*
X222682Y418329D01*
X222798Y418391D01*
X222918Y418444D01*
X223076Y418539D01*
X223239Y418626D01*
X223346Y418702D01*
X223459Y418770D01*
X223604Y418885D01*
X223755Y418992D01*
X223869Y419095D01*
X223955Y419163D01*
X224031Y419241D01*
X224145Y419343D01*
X226161Y421359D01*
X230800Y423281D01*
X235820Y423281D01*
X240459Y421359D01*
X242475Y419343D01*
X242614Y419221D01*
X242746Y419092D01*
X242851Y419013D01*
X242949Y418926D01*
X243103Y418822D01*
X243250Y418710D01*
X243364Y418645D01*
X243473Y418571D01*
X243638Y418487D01*
X243798Y418395D01*
X243919Y418345D01*
X244036Y418285D01*
X244211Y418223D01*
X244381Y418152D01*
X244508Y418117D01*
X244632Y418073D01*
X244812Y418033D01*
X244991Y417984D01*
X245121Y417966D01*
X245249Y417937D01*
X245433Y417921D01*
X245616Y417895D01*
X245748Y417893D01*
X245879Y417881D01*
X246064Y417888D01*
X246249Y417885D01*
X246379Y417899D01*
X246510Y417904D01*
X246693Y417934D01*
X246877Y417955D01*
X247005Y417986D01*
X247134Y418007D01*
X247311Y418060D01*
X247491Y418104D01*
X247614Y418150D01*
X247740Y418188D01*
X247909Y418263D01*
X248082Y418329D01*
X248198Y418391D01*
X248318Y418444D01*
X248476Y418539D01*
X248639Y418626D01*
X248746Y418702D01*
X248859Y418770D01*
X249004Y418885D01*
X249155Y418992D01*
X249269Y419095D01*
X249355Y419163D01*
X249431Y419241D01*
X249545Y419343D01*
X251561Y421359D01*
X256200Y423281D01*
X261220Y423281D01*
X265859Y421359D01*
X267875Y419343D01*
X268014Y419221D01*
X268146Y419092D01*
X268251Y419013D01*
X268349Y418926D01*
X268503Y418822D01*
X268650Y418710D01*
X268764Y418645D01*
X268873Y418571D01*
X269038Y418487D01*
X269198Y418395D01*
X269319Y418345D01*
X269436Y418285D01*
X269611Y418223D01*
X269781Y418152D01*
X269908Y418117D01*
X270032Y418073D01*
X270212Y418033D01*
X270391Y417984D01*
X270521Y417966D01*
X270649Y417937D01*
X270833Y417921D01*
X271016Y417895D01*
X271148Y417893D01*
X271279Y417881D01*
X271464Y417888D01*
X271649Y417885D01*
X271779Y417899D01*
X271910Y417904D01*
X272093Y417934D01*
X272277Y417955D01*
X272405Y417986D01*
X272534Y418007D01*
X272711Y418060D01*
X272891Y418104D01*
X273014Y418150D01*
X273140Y418188D01*
X273309Y418263D01*
X273482Y418329D01*
X273598Y418391D01*
X273718Y418444D01*
X273876Y418539D01*
X274039Y418626D01*
X274146Y418702D01*
X274259Y418770D01*
X274404Y418885D01*
X274555Y418992D01*
X274669Y419095D01*
X274755Y419163D01*
X274831Y419241D01*
X274945Y419343D01*
X276961Y421359D01*
X281600Y423281D01*
X286620Y423281D01*
X291259Y421359D01*
X293275Y419343D01*
X293414Y419221D01*
X293546Y419092D01*
X293651Y419013D01*
X293749Y418926D01*
X293903Y418822D01*
X294050Y418710D01*
X294164Y418645D01*
X294273Y418571D01*
X294438Y418487D01*
X294598Y418395D01*
X294719Y418345D01*
X294836Y418285D01*
X295011Y418223D01*
X295181Y418152D01*
X295308Y418117D01*
X295432Y418073D01*
X295612Y418033D01*
X295791Y417984D01*
X295921Y417966D01*
X296049Y417937D01*
X296233Y417921D01*
X296416Y417895D01*
X296548Y417893D01*
X296679Y417881D01*
X296864Y417888D01*
X297049Y417885D01*
X297179Y417899D01*
X297310Y417904D01*
X297493Y417934D01*
X297677Y417955D01*
X297805Y417986D01*
X297934Y418007D01*
X298111Y418060D01*
X298291Y418104D01*
X298414Y418150D01*
X298540Y418188D01*
X298709Y418263D01*
X298882Y418329D01*
X298998Y418391D01*
X299118Y418444D01*
X299276Y418539D01*
X299439Y418626D01*
X299546Y418702D01*
X299659Y418770D01*
X299804Y418885D01*
X299955Y418992D01*
X300069Y419095D01*
X300155Y419163D01*
X300231Y419241D01*
X300345Y419343D01*
X302361Y421359D01*
X307000Y423281D01*
X312020Y423281D01*
X316659Y421359D01*
X318675Y419343D01*
X318814Y419221D01*
X318946Y419092D01*
X319051Y419013D01*
X319149Y418926D01*
X319303Y418822D01*
X319450Y418710D01*
X319564Y418645D01*
X319673Y418571D01*
X319838Y418487D01*
X319998Y418395D01*
X320119Y418345D01*
X320236Y418285D01*
X320411Y418223D01*
X320581Y418152D01*
X320708Y418117D01*
X320832Y418073D01*
X321012Y418033D01*
X321191Y417984D01*
X321321Y417966D01*
X321449Y417937D01*
X321633Y417921D01*
X321816Y417895D01*
X321948Y417893D01*
X322079Y417881D01*
X322264Y417888D01*
X322449Y417885D01*
X322579Y417899D01*
X322710Y417904D01*
X322893Y417934D01*
X323077Y417955D01*
X323205Y417986D01*
X323334Y418007D01*
X323511Y418060D01*
X323691Y418104D01*
X323814Y418150D01*
X323940Y418188D01*
X324109Y418263D01*
X324282Y418329D01*
X324398Y418391D01*
X324518Y418444D01*
X324676Y418539D01*
X324839Y418626D01*
X324946Y418702D01*
X325059Y418770D01*
X325204Y418885D01*
X325355Y418992D01*
X325469Y419095D01*
X325555Y419163D01*
X325631Y419241D01*
X325745Y419343D01*
X327761Y421359D01*
X332400Y423281D01*
X337420Y423281D01*
X342059Y421359D01*
X344075Y419343D01*
X344214Y419221D01*
X344346Y419092D01*
X344451Y419013D01*
X344549Y418926D01*
X344703Y418822D01*
X344850Y418710D01*
X344964Y418645D01*
X345073Y418571D01*
X345238Y418487D01*
X345398Y418395D01*
X345519Y418345D01*
X345636Y418285D01*
X345811Y418223D01*
X345981Y418152D01*
X346108Y418117D01*
X346232Y418073D01*
X346412Y418033D01*
X346591Y417984D01*
X346721Y417966D01*
X346849Y417937D01*
X347033Y417921D01*
X347216Y417895D01*
X347348Y417893D01*
X347479Y417881D01*
X347664Y417888D01*
X347849Y417885D01*
X347979Y417899D01*
X348110Y417904D01*
X348293Y417934D01*
X348477Y417955D01*
X348605Y417986D01*
X348734Y418007D01*
X348911Y418060D01*
X349091Y418104D01*
X349214Y418150D01*
X349340Y418188D01*
X349509Y418263D01*
X349682Y418329D01*
X349798Y418391D01*
X349918Y418444D01*
X350076Y418539D01*
X350239Y418626D01*
X350346Y418702D01*
X350459Y418770D01*
X350604Y418885D01*
X350755Y418992D01*
X350869Y419095D01*
X350955Y419163D01*
X351031Y419241D01*
X351145Y419343D01*
X353161Y421359D01*
X357800Y423281D01*
X362820Y423281D01*
X367459Y421359D01*
X369475Y419343D01*
X369614Y419221D01*
X369746Y419092D01*
X369851Y419013D01*
X369949Y418926D01*
X370103Y418822D01*
X370250Y418710D01*
X370364Y418645D01*
X370473Y418571D01*
X370638Y418487D01*
X370798Y418395D01*
X370919Y418345D01*
X371036Y418285D01*
X371211Y418223D01*
X371381Y418152D01*
X371508Y418117D01*
X371632Y418073D01*
X371812Y418033D01*
X371991Y417984D01*
X372121Y417966D01*
X372249Y417937D01*
X372433Y417921D01*
X372616Y417895D01*
X372748Y417893D01*
X372879Y417881D01*
X373064Y417888D01*
X373249Y417885D01*
X373379Y417899D01*
X373510Y417904D01*
X373693Y417934D01*
X373877Y417955D01*
X374005Y417986D01*
X374134Y418007D01*
X374311Y418060D01*
X374491Y418104D01*
X374614Y418150D01*
X374740Y418188D01*
X374909Y418263D01*
X375082Y418329D01*
X375198Y418391D01*
X375318Y418444D01*
X375476Y418539D01*
X375639Y418626D01*
X375746Y418702D01*
X375859Y418770D01*
X376004Y418885D01*
X376155Y418992D01*
X376269Y419095D01*
X376355Y419163D01*
X376431Y419241D01*
X376545Y419343D01*
X378561Y421359D01*
X383200Y423281D01*
X388220Y423281D01*
X392859Y421359D01*
X394875Y419343D01*
X395014Y419221D01*
X395146Y419092D01*
X395251Y419013D01*
X395349Y418926D01*
X395503Y418822D01*
X395650Y418710D01*
X395764Y418645D01*
X395873Y418571D01*
X396038Y418487D01*
X396198Y418395D01*
X396319Y418345D01*
X396436Y418285D01*
X396611Y418223D01*
X396781Y418152D01*
X396908Y418117D01*
X397032Y418073D01*
X397212Y418033D01*
X397391Y417984D01*
X397521Y417966D01*
X397649Y417937D01*
X397833Y417921D01*
X398016Y417895D01*
X398148Y417893D01*
X398279Y417881D01*
X398464Y417888D01*
X398649Y417885D01*
X398779Y417899D01*
X398910Y417904D01*
X399093Y417934D01*
X399277Y417955D01*
X399405Y417986D01*
X399534Y418007D01*
X399711Y418060D01*
X399891Y418104D01*
X400014Y418150D01*
X400140Y418188D01*
X400309Y418263D01*
X400482Y418329D01*
X400598Y418391D01*
X400718Y418444D01*
X400876Y418539D01*
X401039Y418626D01*
X401146Y418702D01*
X401259Y418770D01*
X401404Y418885D01*
X401555Y418992D01*
X401669Y419095D01*
X401755Y419163D01*
X401831Y419241D01*
X401945Y419343D01*
X403961Y421359D01*
X408600Y423281D01*
X413620Y423281D01*
X418259Y421359D01*
X420275Y419343D01*
X420414Y419221D01*
X420546Y419092D01*
X420651Y419013D01*
X420749Y418926D01*
X420903Y418822D01*
X421050Y418710D01*
X421164Y418645D01*
X421273Y418571D01*
X421438Y418487D01*
X421598Y418395D01*
X421719Y418345D01*
X421836Y418285D01*
X422011Y418223D01*
X422181Y418152D01*
X422308Y418117D01*
X422432Y418073D01*
X422612Y418033D01*
X422791Y417984D01*
X422921Y417966D01*
X423049Y417937D01*
X423233Y417921D01*
X423416Y417895D01*
X423548Y417893D01*
X423679Y417881D01*
X423864Y417888D01*
X424049Y417885D01*
X424179Y417899D01*
X424310Y417904D01*
X424493Y417934D01*
X424677Y417955D01*
X424805Y417986D01*
X424934Y418007D01*
X425111Y418060D01*
X425291Y418104D01*
X425414Y418150D01*
X425540Y418188D01*
X425709Y418263D01*
X425882Y418329D01*
X425998Y418391D01*
X426118Y418444D01*
X426276Y418539D01*
X426439Y418626D01*
X426546Y418702D01*
X426659Y418770D01*
X426804Y418885D01*
X426955Y418992D01*
X427069Y419095D01*
X427155Y419163D01*
X427231Y419241D01*
X427345Y419343D01*
X429361Y421359D01*
X434000Y423281D01*
X439020Y423281D01*
X443659Y421359D01*
X445675Y419343D01*
X445814Y419221D01*
X445946Y419092D01*
X446051Y419013D01*
X446149Y418926D01*
X446303Y418822D01*
X446450Y418710D01*
X446564Y418645D01*
X446673Y418571D01*
X446838Y418487D01*
X446998Y418395D01*
X447119Y418345D01*
X447236Y418285D01*
X447411Y418223D01*
X447581Y418152D01*
X447708Y418117D01*
X447832Y418073D01*
X448012Y418033D01*
X448191Y417984D01*
X448321Y417966D01*
X448449Y417937D01*
X448633Y417921D01*
X448816Y417895D01*
X448948Y417893D01*
X449079Y417881D01*
X449264Y417888D01*
X449449Y417885D01*
X449579Y417899D01*
X449710Y417904D01*
X449893Y417934D01*
X450077Y417955D01*
X450205Y417986D01*
X450334Y418007D01*
X450511Y418060D01*
X450691Y418104D01*
X450814Y418150D01*
X450940Y418188D01*
X451109Y418263D01*
X451282Y418329D01*
X451398Y418391D01*
X451518Y418444D01*
X451676Y418539D01*
X451839Y418626D01*
X451946Y418702D01*
X452059Y418770D01*
X452204Y418885D01*
X452355Y418992D01*
X452469Y419095D01*
X452555Y419163D01*
X452631Y419241D01*
X452745Y419343D01*
X454761Y421359D01*
X459400Y423281D01*
X464420Y423281D01*
X469059Y421359D01*
X472609Y417809D01*
X474531Y413170D01*
X474531Y392910D01*
X472479Y387957D01*
X472393Y387829D01*
X472339Y387723D01*
X472276Y387621D01*
X472196Y387441D01*
X472107Y387266D01*
X472067Y387153D01*
X472018Y387044D01*
X471961Y386856D01*
X471895Y386670D01*
X471869Y386553D01*
X471834Y386439D01*
X471801Y386245D01*
X471759Y386053D01*
X471748Y385934D01*
X471728Y385816D01*
X471715Y385562D01*
X471702Y385423D01*
X471705Y385366D01*
X471701Y385292D01*
X471701Y347226D01*
X471708Y347107D01*
X471706Y346987D01*
X471728Y346791D01*
X471741Y346595D01*
X471763Y346478D01*
X471776Y346359D01*
X471823Y346168D01*
X471860Y345974D01*
X471897Y345861D01*
X471925Y345745D01*
X471995Y345561D01*
X472057Y345374D01*
X472108Y345266D01*
X472150Y345154D01*
X472243Y344981D01*
X472327Y344803D01*
X472392Y344702D01*
X472448Y344597D01*
X472562Y344436D01*
X472668Y344270D01*
X472745Y344178D01*
X472814Y344081D01*
X472984Y343893D01*
X473039Y343826D01*
X475083Y338892D01*
X475083Y333568D01*
X473045Y328649D01*
X469281Y324885D01*
X464362Y322847D01*
X459038Y322847D01*
X454119Y324885D01*
X452535Y326469D01*
X452396Y326591D01*
X452264Y326721D01*
X452159Y326800D01*
X452061Y326887D01*
X451907Y326991D01*
X451760Y327102D01*
X451646Y327168D01*
X451537Y327241D01*
X451372Y327325D01*
X451212Y327417D01*
X451091Y327468D01*
X450974Y327527D01*
X450799Y327589D01*
X450629Y327660D01*
X450502Y327695D01*
X450378Y327739D01*
X450198Y327779D01*
X450019Y327828D01*
X449889Y327847D01*
X449761Y327875D01*
X449577Y327891D01*
X449394Y327918D01*
X449262Y327920D01*
X449131Y327931D01*
X448946Y327925D01*
X448761Y327928D01*
X448631Y327913D01*
X448500Y327908D01*
X448317Y327878D01*
X448133Y327858D01*
X448005Y327827D01*
X447876Y327805D01*
X447699Y327752D01*
X447519Y327709D01*
X447396Y327662D01*
X447270Y327624D01*
X447101Y327550D01*
X446928Y327484D01*
X446812Y327422D01*
X446692Y327369D01*
X446534Y327273D01*
X446371Y327186D01*
X446264Y327110D01*
X446151Y327042D01*
X446006Y326927D01*
X445855Y326820D01*
X445741Y326718D01*
X445655Y326650D01*
X445579Y326572D01*
X445465Y326469D01*
X443881Y324885D01*
X438962Y322847D01*
X433638Y322847D01*
X428719Y324885D01*
X427135Y326469D01*
X426996Y326591D01*
X426864Y326721D01*
X426759Y326800D01*
X426661Y326887D01*
X426507Y326991D01*
X426360Y327102D01*
X426246Y327168D01*
X426137Y327241D01*
X425972Y327325D01*
X425812Y327417D01*
X425691Y327468D01*
X425574Y327527D01*
X425399Y327589D01*
X425229Y327660D01*
X425102Y327695D01*
X424978Y327739D01*
X424798Y327779D01*
X424619Y327828D01*
X424489Y327847D01*
X424361Y327875D01*
X424177Y327891D01*
X423994Y327918D01*
X423862Y327920D01*
X423731Y327931D01*
X423546Y327925D01*
X423361Y327928D01*
X423231Y327913D01*
X423100Y327908D01*
X422917Y327878D01*
X422733Y327858D01*
X422605Y327827D01*
X422476Y327805D01*
X422299Y327752D01*
X422119Y327709D01*
X421996Y327662D01*
X421870Y327624D01*
X421701Y327550D01*
X421528Y327484D01*
X421412Y327422D01*
X421292Y327369D01*
X421134Y327273D01*
X420971Y327186D01*
X420864Y327110D01*
X420751Y327042D01*
X420606Y326927D01*
X420455Y326820D01*
X420341Y326718D01*
X420255Y326650D01*
X420179Y326572D01*
X420065Y326469D01*
X418481Y324885D01*
X413562Y322847D01*
X408238Y322847D01*
X403319Y324885D01*
X401735Y326469D01*
X401596Y326591D01*
X401464Y326721D01*
X401359Y326800D01*
X401261Y326887D01*
X401107Y326991D01*
X400960Y327102D01*
X400846Y327168D01*
X400737Y327241D01*
X400572Y327325D01*
X400412Y327417D01*
X400291Y327468D01*
X400174Y327527D01*
X399999Y327589D01*
X399829Y327660D01*
X399702Y327695D01*
X399578Y327739D01*
X399398Y327779D01*
X399219Y327828D01*
X399089Y327847D01*
X398961Y327875D01*
X398777Y327891D01*
X398594Y327918D01*
X398462Y327920D01*
X398331Y327931D01*
X398146Y327925D01*
X397961Y327928D01*
X397831Y327913D01*
X397700Y327908D01*
X397517Y327878D01*
X397333Y327858D01*
X397205Y327827D01*
X397076Y327805D01*
X396899Y327752D01*
X396719Y327709D01*
X396596Y327662D01*
X396470Y327624D01*
X396301Y327550D01*
X396128Y327484D01*
X396012Y327422D01*
X395892Y327369D01*
X395734Y327273D01*
X395571Y327186D01*
X395464Y327110D01*
X395351Y327042D01*
X395206Y326927D01*
X395055Y326820D01*
X394941Y326718D01*
X394855Y326650D01*
X394779Y326572D01*
X394665Y326469D01*
X393081Y324885D01*
X388162Y322847D01*
X382838Y322847D01*
X377919Y324885D01*
X376335Y326469D01*
X376196Y326591D01*
X376064Y326721D01*
X375959Y326800D01*
X375861Y326887D01*
X375707Y326991D01*
X375560Y327102D01*
X375446Y327168D01*
X375337Y327241D01*
X375172Y327325D01*
X375012Y327417D01*
X374891Y327468D01*
X374774Y327527D01*
X374599Y327589D01*
X374429Y327660D01*
X374302Y327695D01*
X374178Y327739D01*
X373998Y327779D01*
X373819Y327828D01*
X373689Y327847D01*
X373561Y327875D01*
X373377Y327891D01*
X373194Y327918D01*
X373062Y327920D01*
X372931Y327931D01*
X372746Y327925D01*
X372561Y327928D01*
X372431Y327913D01*
X372300Y327908D01*
X372117Y327878D01*
X371933Y327858D01*
X371805Y327827D01*
X371676Y327805D01*
X371499Y327752D01*
X371319Y327709D01*
X371196Y327662D01*
X371070Y327624D01*
X370901Y327550D01*
X370728Y327484D01*
X370612Y327422D01*
X370492Y327369D01*
X370334Y327273D01*
X370171Y327186D01*
X370064Y327110D01*
X369951Y327042D01*
X369806Y326927D01*
X369655Y326820D01*
X369541Y326718D01*
X369455Y326650D01*
X369379Y326572D01*
X369265Y326469D01*
X367681Y324885D01*
X362762Y322847D01*
X357438Y322847D01*
X352519Y324885D01*
X350935Y326469D01*
X350796Y326591D01*
X350664Y326721D01*
X350559Y326800D01*
X350461Y326887D01*
X350307Y326991D01*
X350160Y327102D01*
X350046Y327168D01*
X349937Y327241D01*
X349772Y327325D01*
X349612Y327417D01*
X349491Y327468D01*
X349374Y327527D01*
X349199Y327589D01*
X349029Y327660D01*
X348902Y327695D01*
X348778Y327739D01*
X348598Y327779D01*
X348419Y327828D01*
X348289Y327847D01*
X348161Y327875D01*
X347977Y327891D01*
X347794Y327918D01*
X347662Y327920D01*
X347531Y327931D01*
X347346Y327925D01*
X347161Y327928D01*
X347031Y327913D01*
X346900Y327908D01*
X346717Y327878D01*
X346533Y327858D01*
X346405Y327827D01*
X346276Y327805D01*
X346099Y327752D01*
X345919Y327709D01*
X345796Y327662D01*
X345670Y327624D01*
X345501Y327550D01*
X345328Y327484D01*
X345212Y327422D01*
X345092Y327369D01*
X344934Y327273D01*
X344771Y327186D01*
X344664Y327110D01*
X344551Y327042D01*
X344406Y326927D01*
X344255Y326820D01*
X344141Y326718D01*
X344055Y326650D01*
X343979Y326572D01*
X343865Y326469D01*
X342281Y324885D01*
X337362Y322847D01*
X332038Y322847D01*
X327119Y324885D01*
X325535Y326469D01*
X325396Y326591D01*
X325264Y326721D01*
X325159Y326800D01*
X325061Y326887D01*
X324908Y326990D01*
X324760Y327102D01*
X324646Y327168D01*
X324537Y327241D01*
X324373Y327325D01*
X324212Y327417D01*
X324091Y327468D01*
X323974Y327527D01*
X323800Y327589D01*
X323629Y327660D01*
X323502Y327695D01*
X323378Y327739D01*
X323198Y327779D01*
X323019Y327828D01*
X322889Y327847D01*
X322761Y327875D01*
X322577Y327891D01*
X322394Y327918D01*
X322262Y327920D01*
X322131Y327931D01*
X321947Y327925D01*
X321762Y327928D01*
X321631Y327913D01*
X321500Y327908D01*
X321317Y327878D01*
X321133Y327858D01*
X321005Y327827D01*
X320876Y327805D01*
X320699Y327752D01*
X320519Y327709D01*
X320396Y327662D01*
X320270Y327624D01*
X320101Y327549D01*
X319928Y327484D01*
X319813Y327422D01*
X319692Y327369D01*
X319534Y327273D01*
X319371Y327186D01*
X319264Y327110D01*
X319151Y327042D01*
X319006Y326927D01*
X318855Y326820D01*
X318741Y326718D01*
X318656Y326650D01*
X318579Y326572D01*
X318465Y326469D01*
X316881Y324885D01*
X311962Y322847D01*
X306638Y322847D01*
X301719Y324885D01*
X300135Y326469D01*
X299996Y326591D01*
X299864Y326721D01*
X299759Y326800D01*
X299661Y326887D01*
X299507Y326991D01*
X299360Y327102D01*
X299246Y327168D01*
X299137Y327241D01*
X298972Y327325D01*
X298812Y327417D01*
X298691Y327468D01*
X298574Y327527D01*
X298399Y327589D01*
X298229Y327660D01*
X298102Y327695D01*
X297978Y327739D01*
X297798Y327779D01*
X297619Y327828D01*
X297489Y327847D01*
X297361Y327875D01*
X297177Y327891D01*
X296994Y327918D01*
X296862Y327920D01*
X296731Y327931D01*
X296546Y327925D01*
X296361Y327928D01*
X296231Y327913D01*
X296100Y327908D01*
X295917Y327878D01*
X295733Y327858D01*
X295605Y327827D01*
X295476Y327805D01*
X295299Y327752D01*
X295119Y327709D01*
X294996Y327662D01*
X294870Y327624D01*
X294701Y327550D01*
X294528Y327484D01*
X294412Y327422D01*
X294292Y327369D01*
X294134Y327273D01*
X293971Y327186D01*
X293864Y327110D01*
X293751Y327042D01*
X293606Y326927D01*
X293455Y326820D01*
X293341Y326718D01*
X293255Y326650D01*
X293179Y326572D01*
X293065Y326469D01*
X291481Y324885D01*
X286562Y322847D01*
X281238Y322847D01*
X276319Y324885D01*
X274735Y326469D01*
X274596Y326591D01*
X274464Y326721D01*
X274359Y326800D01*
X274261Y326887D01*
X274107Y326991D01*
X273960Y327102D01*
X273846Y327168D01*
X273737Y327241D01*
X273572Y327325D01*
X273412Y327417D01*
X273291Y327468D01*
X273174Y327527D01*
X272999Y327589D01*
X272829Y327660D01*
X272702Y327695D01*
X272578Y327739D01*
X272398Y327779D01*
X272219Y327828D01*
X272089Y327847D01*
X271961Y327875D01*
X271777Y327891D01*
X271594Y327918D01*
X271462Y327920D01*
X271331Y327931D01*
X271146Y327925D01*
X270961Y327928D01*
X270831Y327913D01*
X270700Y327908D01*
X270517Y327878D01*
X270333Y327858D01*
X270205Y327827D01*
X270076Y327805D01*
X269899Y327752D01*
X269719Y327709D01*
X269596Y327662D01*
X269470Y327624D01*
X269301Y327550D01*
X269128Y327484D01*
X269012Y327422D01*
X268892Y327369D01*
X268734Y327273D01*
X268571Y327186D01*
X268464Y327110D01*
X268351Y327042D01*
X268206Y326927D01*
X268055Y326820D01*
X267941Y326718D01*
X267855Y326650D01*
X267779Y326572D01*
X267665Y326469D01*
X266081Y324885D01*
X261162Y322847D01*
X255838Y322847D01*
X250919Y324885D01*
X249335Y326469D01*
X249196Y326591D01*
X249064Y326721D01*
X248959Y326800D01*
X248861Y326887D01*
X248707Y326991D01*
X248560Y327102D01*
X248446Y327168D01*
X248337Y327241D01*
X248172Y327325D01*
X248012Y327417D01*
X247891Y327468D01*
X247774Y327527D01*
X247599Y327589D01*
X247429Y327660D01*
X247302Y327695D01*
X247178Y327739D01*
X246998Y327779D01*
X246819Y327828D01*
X246689Y327847D01*
X246561Y327875D01*
X246377Y327891D01*
X246194Y327918D01*
X246062Y327920D01*
X245931Y327931D01*
X245746Y327925D01*
X245561Y327928D01*
X245431Y327913D01*
X245300Y327908D01*
X245117Y327878D01*
X244933Y327858D01*
X244805Y327827D01*
X244676Y327805D01*
X244499Y327752D01*
X244319Y327709D01*
X244196Y327662D01*
X244070Y327624D01*
X243901Y327550D01*
X243728Y327484D01*
X243612Y327422D01*
X243492Y327369D01*
X243334Y327273D01*
X243171Y327186D01*
X243064Y327110D01*
X242951Y327042D01*
X242806Y326927D01*
X242655Y326820D01*
X242541Y326718D01*
X242455Y326650D01*
X242379Y326572D01*
X242265Y326469D01*
X240681Y324885D01*
X235762Y322847D01*
X230438Y322847D01*
X225519Y324885D01*
X223935Y326469D01*
X223796Y326591D01*
X223664Y326721D01*
X223559Y326800D01*
X223461Y326887D01*
X223307Y326991D01*
X223160Y327102D01*
X223046Y327168D01*
X222937Y327241D01*
X222772Y327325D01*
X222612Y327417D01*
X222491Y327468D01*
X222374Y327527D01*
X222199Y327589D01*
X222029Y327660D01*
X221902Y327695D01*
X221778Y327739D01*
X221598Y327779D01*
X221419Y327828D01*
X221289Y327847D01*
X221161Y327875D01*
X220977Y327891D01*
X220794Y327918D01*
X220662Y327920D01*
X220531Y327931D01*
X220346Y327925D01*
X220161Y327928D01*
X220031Y327913D01*
X219900Y327908D01*
X219717Y327878D01*
X219533Y327858D01*
X219405Y327827D01*
X219276Y327805D01*
X219099Y327752D01*
X218919Y327709D01*
X218796Y327662D01*
X218670Y327624D01*
X218501Y327550D01*
X218328Y327484D01*
X218212Y327422D01*
X218092Y327369D01*
X217934Y327273D01*
X217771Y327186D01*
X217664Y327110D01*
X217551Y327042D01*
X217406Y326927D01*
X217255Y326820D01*
X217141Y326718D01*
X217055Y326650D01*
X216979Y326572D01*
X216865Y326469D01*
X215281Y324885D01*
X210362Y322847D01*
X205038Y322847D01*
X200119Y324885D01*
X198535Y326469D01*
X198396Y326591D01*
X198264Y326721D01*
X198159Y326800D01*
X198061Y326887D01*
X197907Y326991D01*
X197760Y327102D01*
X197646Y327168D01*
X197537Y327241D01*
X197372Y327325D01*
X197212Y327417D01*
X197091Y327468D01*
X196974Y327527D01*
X196799Y327589D01*
X196629Y327660D01*
X196502Y327695D01*
X196378Y327739D01*
X196198Y327779D01*
X196019Y327828D01*
X195889Y327847D01*
X195761Y327875D01*
X195577Y327891D01*
X195394Y327918D01*
X195262Y327920D01*
X195131Y327931D01*
X194946Y327925D01*
X194761Y327928D01*
X194631Y327913D01*
X194500Y327908D01*
X194317Y327878D01*
X194133Y327858D01*
X194005Y327827D01*
X193876Y327805D01*
X193699Y327752D01*
X193519Y327709D01*
X193396Y327662D01*
X193270Y327624D01*
X193101Y327550D01*
X192928Y327484D01*
X192812Y327422D01*
X192692Y327369D01*
X192534Y327273D01*
X192371Y327186D01*
X192264Y327110D01*
X192151Y327042D01*
X192006Y326927D01*
X191855Y326820D01*
X191741Y326718D01*
X191655Y326650D01*
X191579Y326572D01*
X191465Y326469D01*
X189881Y324885D01*
X184962Y322847D01*
X179638Y322847D01*
X174719Y324885D01*
X173135Y326469D01*
X172996Y326591D01*
X172864Y326721D01*
X172759Y326800D01*
X172661Y326887D01*
X172507Y326991D01*
X172360Y327102D01*
X172246Y327168D01*
X172137Y327241D01*
X171972Y327325D01*
X171812Y327417D01*
X171691Y327468D01*
X171574Y327527D01*
X171399Y327589D01*
X171229Y327660D01*
X171102Y327695D01*
X170978Y327739D01*
X170798Y327779D01*
X170619Y327828D01*
X170489Y327847D01*
X170361Y327875D01*
X170177Y327891D01*
X169994Y327918D01*
X169862Y327920D01*
X169731Y327931D01*
X169546Y327925D01*
X169361Y327928D01*
X169231Y327913D01*
X169100Y327908D01*
X168917Y327878D01*
X168733Y327858D01*
X168605Y327827D01*
X168476Y327805D01*
X168299Y327752D01*
X168119Y327709D01*
X167996Y327662D01*
X167870Y327624D01*
X167701Y327550D01*
X167528Y327484D01*
X167412Y327422D01*
X167292Y327369D01*
X167134Y327273D01*
X166971Y327186D01*
X166864Y327110D01*
X166751Y327042D01*
X166606Y326927D01*
X166455Y326820D01*
X166341Y326718D01*
X166255Y326650D01*
X166179Y326572D01*
X166065Y326469D01*
X164481Y324885D01*
X159562Y322847D01*
X154238Y322847D01*
X149319Y324885D01*
X147735Y326469D01*
X147596Y326591D01*
X147464Y326721D01*
X147359Y326800D01*
X147261Y326887D01*
X147107Y326991D01*
X146960Y327102D01*
X146846Y327168D01*
X146737Y327241D01*
X146572Y327325D01*
X146412Y327417D01*
X146291Y327468D01*
X146174Y327527D01*
X145999Y327589D01*
X145829Y327660D01*
X145702Y327695D01*
X145578Y327739D01*
X145398Y327779D01*
X145219Y327828D01*
X145089Y327847D01*
X144961Y327875D01*
X144777Y327891D01*
X144594Y327918D01*
X144462Y327920D01*
X144331Y327931D01*
X144146Y327925D01*
X143961Y327928D01*
X143831Y327913D01*
X143700Y327908D01*
X143517Y327878D01*
X143333Y327858D01*
X143205Y327827D01*
X143076Y327805D01*
X142899Y327752D01*
X142719Y327709D01*
X142596Y327662D01*
X142470Y327624D01*
X142301Y327550D01*
X142128Y327484D01*
X142012Y327422D01*
X141892Y327369D01*
X141734Y327273D01*
X141571Y327186D01*
X141464Y327110D01*
X141351Y327042D01*
X141206Y326927D01*
X141055Y326820D01*
X140941Y326718D01*
X140855Y326650D01*
X140779Y326572D01*
X140665Y326469D01*
X139081Y324885D01*
X134162Y322847D01*
X128838Y322847D01*
X123919Y324885D01*
X122335Y326469D01*
X122196Y326591D01*
X122064Y326721D01*
X121959Y326800D01*
X121861Y326887D01*
X121707Y326991D01*
X121560Y327102D01*
X121446Y327168D01*
X121337Y327241D01*
X121172Y327325D01*
X121012Y327417D01*
X120891Y327468D01*
X120774Y327527D01*
X120599Y327589D01*
X120429Y327660D01*
X120302Y327695D01*
X120178Y327739D01*
X119998Y327779D01*
X119819Y327828D01*
X119689Y327847D01*
X119561Y327875D01*
X119377Y327891D01*
X119194Y327918D01*
X119062Y327920D01*
X118931Y327931D01*
X118746Y327925D01*
X118561Y327928D01*
X118431Y327913D01*
X118300Y327908D01*
X118117Y327878D01*
X117933Y327858D01*
X117805Y327827D01*
X117676Y327805D01*
X117499Y327752D01*
X117319Y327709D01*
X117196Y327662D01*
X117070Y327624D01*
X116901Y327550D01*
X116728Y327484D01*
X116612Y327422D01*
X116492Y327369D01*
X116334Y327273D01*
X116171Y327186D01*
X116064Y327110D01*
X115951Y327042D01*
X115806Y326927D01*
X115655Y326820D01*
X115541Y326718D01*
X115455Y326650D01*
X115379Y326572D01*
X115265Y326469D01*
X113681Y324885D01*
X108762Y322847D01*
X103438Y322847D01*
X98519Y324885D01*
X96935Y326469D01*
X96796Y326591D01*
X96664Y326721D01*
X96559Y326800D01*
X96461Y326887D01*
X96307Y326991D01*
X96160Y327102D01*
X96046Y327168D01*
X95937Y327241D01*
X95772Y327325D01*
X95612Y327417D01*
X95491Y327468D01*
X95374Y327527D01*
X95199Y327589D01*
X95029Y327660D01*
X94902Y327695D01*
X94778Y327739D01*
X94598Y327779D01*
X94419Y327828D01*
X94289Y327847D01*
X94161Y327875D01*
X93977Y327891D01*
X93794Y327918D01*
X93662Y327920D01*
X93531Y327931D01*
X93346Y327925D01*
X93161Y327928D01*
X93031Y327913D01*
X92900Y327908D01*
X92717Y327878D01*
X92533Y327858D01*
X92405Y327827D01*
X92276Y327805D01*
X92099Y327752D01*
X91919Y327709D01*
X91796Y327662D01*
X91670Y327624D01*
X91501Y327550D01*
X91328Y327484D01*
X91212Y327422D01*
X91092Y327369D01*
X90934Y327273D01*
X90771Y327186D01*
X90664Y327110D01*
X90551Y327042D01*
X90406Y326927D01*
X90255Y326820D01*
X90141Y326718D01*
X90055Y326650D01*
X89979Y326572D01*
X89865Y326469D01*
X88281Y324885D01*
X83362Y322847D01*
X78038Y322847D01*
G37*
%LPD*%
%LPC*%
G36*
X772717Y313569D02*
X772717Y313569D01*
X766953Y315114D01*
X761786Y318097D01*
X757567Y322316D01*
X754584Y327483D01*
X753039Y333247D01*
X753039Y339213D01*
X754584Y344977D01*
X757567Y350144D01*
X761786Y354363D01*
X766953Y357346D01*
X772717Y358891D01*
X778683Y358891D01*
X784447Y357346D01*
X789614Y354363D01*
X793833Y350144D01*
X796816Y344977D01*
X798361Y339213D01*
X798361Y333247D01*
X796816Y327483D01*
X793833Y322316D01*
X789614Y318097D01*
X784447Y315114D01*
X778683Y313569D01*
X772717Y313569D01*
G37*
%LPD*%
%LPC*%
G36*
X919449Y665009D02*
X919449Y665009D01*
X919449Y681513D01*
X920009Y681282D01*
X921432Y680460D01*
X922736Y679459D01*
X923899Y678296D01*
X924900Y676992D01*
X925722Y675569D01*
X926351Y674050D01*
X926776Y672462D01*
X926991Y670832D01*
X926991Y665009D01*
X919449Y665009D01*
G37*
%LPD*%
%LPC*%
G36*
X919449Y655011D02*
X919449Y655011D01*
X926991Y655011D01*
X926991Y649188D01*
X926776Y647558D01*
X926351Y645970D01*
X925722Y644451D01*
X924900Y643028D01*
X923899Y641724D01*
X922736Y640561D01*
X921432Y639560D01*
X920009Y638738D01*
X919449Y638507D01*
X919449Y655011D01*
G37*
%LPD*%
%LPC*%
G36*
X901909Y665009D02*
X901909Y665009D01*
X901909Y670832D01*
X902124Y672462D01*
X902549Y674050D01*
X903178Y675569D01*
X904000Y676992D01*
X905001Y678296D01*
X906164Y679459D01*
X907468Y680460D01*
X908891Y681282D01*
X909451Y681513D01*
X909451Y665009D01*
X901909Y665009D01*
G37*
%LPD*%
%LPC*%
G36*
X901789Y85299D02*
X901789Y85299D01*
X901789Y91122D01*
X902004Y92752D01*
X902429Y94340D01*
X903058Y95859D01*
X903880Y97282D01*
X904881Y98586D01*
X906044Y99749D01*
X907348Y100750D01*
X908771Y101572D01*
X909331Y101803D01*
X909331Y85299D01*
X901789Y85299D01*
G37*
%LPD*%
%LPC*%
G36*
X908891Y638738D02*
X908891Y638738D01*
X907468Y639560D01*
X906164Y640561D01*
X905001Y641724D01*
X904000Y643028D01*
X903178Y644451D01*
X902549Y645970D01*
X902124Y647558D01*
X901909Y649188D01*
X901909Y655011D01*
X909451Y655011D01*
X909451Y638507D01*
X908891Y638738D01*
G37*
%LPD*%
%LPC*%
G36*
X224937Y617973D02*
X224937Y617973D01*
X224937Y623135D01*
X236414Y623135D01*
X236248Y622809D01*
X235308Y621515D01*
X234177Y620384D01*
X232883Y619444D01*
X231458Y618718D01*
X229937Y618223D01*
X228358Y617973D01*
X224937Y617973D01*
G37*
%LPD*%
%LPC*%
G36*
X289961Y617973D02*
X289961Y617973D01*
X289961Y623135D01*
X301438Y623135D01*
X301272Y622809D01*
X300332Y621515D01*
X299201Y620384D01*
X297907Y619444D01*
X296482Y618718D01*
X294961Y618223D01*
X293382Y617973D01*
X289961Y617973D01*
G37*
%LPD*%
%LPC*%
G36*
X86279Y442509D02*
X86279Y442509D01*
X86279Y447671D01*
X97756Y447671D01*
X97590Y447345D01*
X96650Y446051D01*
X95519Y444920D01*
X94225Y443980D01*
X92800Y443254D01*
X91279Y442759D01*
X89700Y442509D01*
X86279Y442509D01*
G37*
%LPD*%
%LPC*%
G36*
X276542Y617973D02*
X276542Y617973D01*
X274963Y618223D01*
X273442Y618718D01*
X272017Y619444D01*
X270723Y620384D01*
X269592Y621515D01*
X268652Y622809D01*
X268486Y623135D01*
X279963Y623135D01*
X279963Y617973D01*
X276542Y617973D01*
G37*
%LPD*%
%LPC*%
G36*
X72860Y442509D02*
X72860Y442509D01*
X71281Y442759D01*
X69760Y443254D01*
X68335Y443980D01*
X67041Y444920D01*
X65910Y446051D01*
X64970Y447345D01*
X64804Y447671D01*
X76281Y447671D01*
X76281Y442509D01*
X72860Y442509D01*
G37*
%LPD*%
%LPC*%
G36*
X848709Y360689D02*
X848709Y360689D01*
X848709Y363623D01*
X851643Y360689D01*
X848709Y360689D01*
G37*
%LPD*%
%LPC*%
G36*
X736987Y614229D02*
X736987Y614229D01*
X739921Y617163D01*
X739921Y614229D01*
X736987Y614229D01*
G37*
%LPD*%
%LPC*%
G36*
X584629Y426441D02*
X584629Y426441D01*
X587563Y426441D01*
X584629Y423507D01*
X584629Y426441D01*
G37*
%LPD*%
%LPC*%
G36*
X536229Y426441D02*
X536229Y426441D01*
X539163Y426441D01*
X536229Y423507D01*
X536229Y426441D01*
G37*
%LPD*%
%LPC*%
G36*
X835777Y360689D02*
X835777Y360689D01*
X838711Y363623D01*
X838711Y360689D01*
X835777Y360689D01*
G37*
%LPD*%
%LPC*%
G36*
X848709Y350691D02*
X848709Y350691D01*
X851643Y350691D01*
X848709Y347757D01*
X848709Y350691D01*
G37*
%LPD*%
%LPC*%
G36*
X571697Y426441D02*
X571697Y426441D01*
X574631Y426441D01*
X574631Y423507D01*
X571697Y426441D01*
G37*
%LPD*%
%LPC*%
G36*
X523297Y426441D02*
X523297Y426441D01*
X526231Y426441D01*
X526231Y423507D01*
X523297Y426441D01*
G37*
%LPD*%
%LPC*%
G36*
X835777Y350691D02*
X835777Y350691D01*
X838711Y350691D01*
X838711Y347757D01*
X835777Y350691D01*
G37*
%LPD*%
D10*
X744920Y583830D03*
X744920Y609230D03*
X795720Y583830D03*
X795720Y609230D03*
X579630Y431440D03*
X579630Y456840D03*
X531230Y431440D03*
X531230Y456840D03*
D11*
X340380Y608496D02*
X340380Y621704D01*
X365780Y621704D02*
X365780Y608496D01*
X391180Y608496D02*
X391180Y621704D01*
X416580Y621704D02*
X416580Y608496D01*
X441980Y608496D02*
X441980Y621704D01*
X467380Y621704D02*
X467380Y608496D01*
X492780Y608496D02*
X492780Y621704D01*
X518180Y621704D02*
X518180Y608496D01*
X543580Y608496D02*
X543580Y621704D01*
X568980Y621704D02*
X568980Y608496D01*
X594380Y608496D02*
X594380Y621704D01*
X619780Y621704D02*
X619780Y608496D01*
X645180Y608496D02*
X645180Y621704D01*
X670580Y621704D02*
X670580Y608496D01*
X670580Y684696D02*
X670580Y697904D01*
X645180Y697904D02*
X645180Y684696D01*
X619780Y684696D02*
X619780Y697904D01*
X594380Y697904D02*
X594380Y684696D01*
X568980Y684696D02*
X568980Y697904D01*
X543580Y697904D02*
X543580Y684696D01*
X518180Y684696D02*
X518180Y697904D01*
X492780Y697904D02*
X492780Y684696D01*
X467380Y684696D02*
X467380Y697904D01*
X441980Y697904D02*
X441980Y684696D01*
X416580Y684696D02*
X416580Y697904D01*
X391180Y697904D02*
X391180Y684696D01*
X365780Y684696D02*
X365780Y697904D01*
X340380Y697904D02*
X340380Y684696D01*
D12*
X744920Y686210D02*
X744920Y670970D01*
X770320Y670970D02*
X770320Y686210D01*
X795720Y686210D02*
X795720Y670970D01*
D13*
X579630Y513080D03*
X531370Y513080D03*
D12*
X227558Y673346D02*
X212318Y673346D01*
X212318Y628134D02*
X227558Y628134D01*
X277342Y673346D02*
X292582Y673346D01*
X292582Y628134D02*
X277342Y628134D01*
D14*
X141340Y607250D03*
X39740Y607250D03*
D12*
X888244Y282588D02*
X888244Y267348D01*
X933456Y267348D02*
X933456Y282588D01*
X888244Y332372D02*
X888244Y347612D01*
X933456Y347612D02*
X933456Y332372D01*
D15*
X843710Y355690D03*
X843710Y254090D03*
D16*
X39920Y691630D03*
X141520Y691630D03*
D17*
X80700Y336230D03*
X106100Y336230D03*
X131500Y336230D03*
X156900Y336230D03*
X182300Y336230D03*
X207700Y336230D03*
X233100Y336230D03*
X258500Y336230D03*
X283900Y336230D03*
X309300Y336230D03*
X334700Y336230D03*
X360100Y336230D03*
X385500Y336230D03*
X410900Y336230D03*
X436300Y336230D03*
X461700Y336230D03*
D12*
X461910Y395420D02*
X461910Y410660D01*
X436510Y410660D02*
X436510Y395420D01*
X411110Y395420D02*
X411110Y410660D01*
X385710Y410660D02*
X385710Y395420D01*
X360310Y395420D02*
X360310Y410660D01*
X334910Y410660D02*
X334910Y395420D01*
X309510Y395420D02*
X309510Y410660D01*
X284110Y410660D02*
X284110Y395420D01*
X258710Y395420D02*
X258710Y410660D01*
X233310Y410660D02*
X233310Y395420D01*
X207910Y395420D02*
X207910Y410660D01*
X182510Y410660D02*
X182510Y395420D01*
X157110Y395420D02*
X157110Y410660D01*
X131710Y410660D02*
X131710Y395420D01*
X106310Y395420D02*
X106310Y410660D01*
X80910Y410660D02*
X80910Y395420D01*
X73660Y452670D02*
X88900Y452670D01*
X88900Y478070D02*
X73660Y478070D01*
X73660Y503470D02*
X88900Y503470D01*
X88900Y528870D02*
X73660Y528870D01*
D18*
X853330Y90300D02*
X853330Y70300D01*
X914330Y70300D02*
X914330Y90300D01*
X894330Y128300D02*
X874330Y128300D01*
X853450Y650010D02*
X853450Y670010D01*
X914450Y670010D02*
X914450Y650010D01*
X894450Y708010D02*
X874450Y708010D01*
D19*
X159070Y627590D02*
X134310Y627590D01*
X39920Y656650D02*
X39920Y691630D01*
X27350Y649810D02*
X17190Y639650D01*
X33080Y649810D02*
X39920Y656650D01*
X33080Y649810D02*
X27350Y649810D01*
X33080Y649810D02*
X33080Y649800D01*
X39740Y643140D02*
X39740Y607250D01*
X39740Y643140D02*
X33080Y649800D01*
X715850Y539800D02*
X778340Y539800D01*
X782880Y539800D01*
X715850Y539800D02*
X704300Y551350D01*
X704300Y637530D01*
X795720Y557180D02*
X778340Y539800D01*
X794970Y706870D02*
X783150Y718690D01*
X714180Y718690D01*
X697400Y701910D01*
X697400Y665850D01*
X543900Y673210D02*
X532430Y661740D01*
X543900Y690980D02*
X543580Y691300D01*
X543900Y690980D02*
X543900Y673210D01*
X562270Y654840D01*
X794970Y679340D02*
X794970Y706870D01*
X794970Y679340D02*
X795720Y678590D01*
X795720Y583830D02*
X795720Y557180D01*
X687440Y654390D02*
X686990Y654840D01*
X687440Y654390D02*
X704300Y637530D01*
X686990Y654840D02*
X562270Y654840D01*
X687440Y654390D02*
X687440Y655890D01*
X697400Y665850D01*
X134310Y627590D02*
X122100Y615380D01*
X888244Y339992D02*
X888244Y274968D01*
X799510Y523170D02*
X782880Y539800D01*
X834170Y406070D02*
X869850Y406070D01*
X888244Y387676D01*
X888244Y339992D01*
X799510Y440730D02*
X799510Y523170D01*
X799510Y440730D02*
X834170Y406070D01*
X492780Y649890D02*
X480160Y662510D01*
X492780Y649890D02*
X492780Y615100D01*
X504630Y661740D02*
X532430Y661740D01*
X504630Y661740D02*
X492780Y649890D01*
X191800Y660320D02*
X159070Y627590D01*
X191800Y660320D02*
X191800Y690690D01*
X195930Y694820D01*
X319500Y687600D02*
X319500Y673600D01*
X330590Y662510D01*
X312280Y694820D02*
X195930Y694820D01*
X312280Y694820D02*
X319500Y687600D01*
X330590Y662510D02*
X480160Y662510D01*
X103730Y478070D02*
X81280Y478070D01*
X103730Y478070D02*
X122100Y496440D01*
X122100Y615380D01*
X81280Y478070D02*
X52300Y478070D01*
X34720Y495650D01*
X17190Y594160D02*
X17190Y639650D01*
X34720Y576630D02*
X34720Y495650D01*
X34720Y576630D02*
X17190Y594160D01*
X531370Y513080D02*
X531370Y456980D01*
X531230Y456840D01*
X543580Y563140D02*
X543580Y615100D01*
X531370Y550930D02*
X531370Y513080D01*
X531370Y550930D02*
X543580Y563140D01*
X579630Y513080D02*
X579630Y456840D01*
X568980Y562960D02*
X568980Y615100D01*
X579630Y552310D02*
X579630Y513080D01*
X579630Y552310D02*
X568980Y562960D01*
X645180Y522320D02*
X645180Y615100D01*
X645180Y522320D02*
X667280Y500220D01*
X703320Y500220D01*
X725790Y477750D01*
X725790Y226480D01*
X775450Y176820D01*
X843710Y192980D02*
X843710Y254090D01*
X827550Y176820D02*
X775450Y176820D01*
X827550Y176820D02*
X843710Y192980D01*
X827550Y176820D02*
X844680Y159690D01*
X933456Y274968D02*
X933456Y339992D01*
X936316Y60606D02*
X923750Y48040D01*
X889150Y48040D01*
X876790Y60400D02*
X876790Y97120D01*
X844680Y129230D01*
X844680Y159690D01*
X933456Y223478D02*
X936316Y220618D01*
X933456Y223478D02*
X933456Y274968D01*
X936316Y220618D02*
X936316Y60606D01*
X889150Y48040D02*
X876790Y60400D01*
X142500Y692500D02*
X142500Y726690D01*
X164850Y749040D01*
X142500Y692500D02*
X141520Y691630D01*
X932470Y30930D02*
X952230Y50690D01*
X952230Y692870D01*
X391180Y691300D02*
X391180Y723190D01*
X365330Y749040D02*
X164850Y749040D01*
X365330Y749040D02*
X391180Y723190D01*
X417750Y749760D01*
X895340Y749760D01*
X952230Y692870D01*
X853330Y80300D02*
X853330Y42180D01*
X864580Y30930D01*
X932470Y30930D01*
X89160Y580410D02*
X89160Y627904D01*
X125686Y664430D01*
X147680Y664430D01*
X365780Y691300D02*
X365780Y712390D01*
X347720Y730450D01*
X160500Y677250D02*
X147680Y664430D01*
X160500Y677250D02*
X160500Y714900D01*
X176050Y730450D02*
X347720Y730450D01*
X176050Y730450D02*
X160500Y714900D01*
X81280Y503470D02*
X59860Y503470D01*
X53260Y510070D01*
X53260Y555390D01*
X63270Y565400D02*
X74150Y565400D01*
X89160Y580410D01*
X63270Y565400D02*
X53260Y555390D01*
X340380Y691300D02*
X340380Y704810D01*
X332750Y712440D01*
X132040Y647780D02*
X105980Y621720D01*
X132040Y647780D02*
X155200Y647780D01*
X176300Y668880D01*
X176300Y701790D01*
X186950Y712440D01*
X332750Y712440D01*
X91780Y528870D02*
X81280Y528870D01*
X105980Y543070D02*
X105980Y621720D01*
X105980Y543070D02*
X91780Y528870D01*
X744920Y647290D02*
X744920Y678590D01*
X846610Y634920D02*
X853480Y641790D01*
X853480Y659980D01*
X853450Y660010D01*
X770380Y621830D02*
X744920Y647290D01*
X744920Y583830D02*
X763040Y583830D01*
X770380Y591170D01*
X770380Y621830D01*
X783470Y634920D02*
X846610Y634920D01*
X783470Y634920D02*
X770380Y621830D01*
X80910Y403040D02*
X80910Y336440D01*
X80700Y336230D01*
X106310Y336440D02*
X106310Y403040D01*
X106310Y336440D02*
X106100Y336230D01*
X131710Y336440D02*
X131710Y403040D01*
X131710Y336440D02*
X131500Y336230D01*
X157110Y336440D02*
X157110Y403040D01*
X157110Y336440D02*
X156900Y336230D01*
X182510Y336440D02*
X182510Y403040D01*
X182510Y336440D02*
X182300Y336230D01*
X207910Y336440D02*
X207910Y403040D01*
X207910Y336440D02*
X207700Y336230D01*
X233310Y336440D02*
X233310Y403040D01*
X233310Y336440D02*
X233100Y336230D01*
X258500Y336230D02*
X258500Y402830D01*
X258710Y403040D01*
X283900Y402830D02*
X283900Y336230D01*
X283900Y402830D02*
X284110Y403040D01*
X309510Y336440D02*
X309300Y336230D01*
X309510Y336440D02*
X309510Y403040D01*
X334700Y402830D02*
X334700Y336230D01*
X334700Y402830D02*
X334910Y403040D01*
X360100Y402830D02*
X360100Y336230D01*
X360100Y402830D02*
X360310Y403040D01*
X385500Y402830D02*
X385500Y336230D01*
X385500Y402830D02*
X385710Y403040D01*
X410900Y402830D02*
X410900Y336230D01*
X410900Y402830D02*
X411110Y403040D01*
X436300Y402830D02*
X436300Y336230D01*
X436300Y402830D02*
X436510Y403040D01*
X461700Y402830D02*
X461700Y336230D01*
X461700Y402830D02*
X461910Y403040D01*
X252910Y665030D02*
X261226Y673346D01*
X252910Y665030D02*
X244594Y673346D01*
X252910Y665030D02*
X252910Y654970D01*
X258140Y649740D01*
X252910Y654970D02*
X247150Y649210D01*
X205770Y649210D01*
X163810Y607250D01*
X340380Y615100D02*
X340380Y631320D01*
X321960Y649740D02*
X258140Y649740D01*
X321960Y649740D02*
X340380Y631320D01*
X163810Y607250D02*
X141340Y607250D01*
X219938Y673346D02*
X244594Y673346D01*
X261226Y673346D02*
X284962Y673346D01*
M02*
