G04 EAGLE Gerber RS-274X export*
G75*
%MOMM*%
%FSLAX34Y34*%
%LPD*%
%IN*%
%IPPOS*%
%AMOC8*
5,1,8,0,0,1.08239X$1,22.5*%
G01*
%ADD10C,0.254000*%


D10*
X0Y0D02*
X970000Y0D01*
X970000Y770000D01*
X0Y770000D01*
X0Y0D01*
X909450Y646010D02*
X919450Y646010D01*
X919450Y674010D01*
X909450Y674010D01*
X909450Y646010D01*
X870450Y703010D02*
X898450Y703010D01*
X898450Y713010D01*
X870450Y713010D01*
X870450Y703010D01*
X848450Y643510D02*
X858450Y643510D01*
X858450Y676510D01*
X848450Y676510D01*
X848450Y643510D01*
X909330Y66300D02*
X919330Y66300D01*
X919330Y94300D01*
X909330Y94300D01*
X909330Y66300D01*
X848330Y63800D02*
X858330Y63800D01*
X858330Y96800D01*
X848330Y96800D01*
X848330Y63800D01*
X870330Y123300D02*
X898330Y123300D01*
X898330Y133300D01*
X870330Y133300D01*
X870330Y123300D01*
X38200Y25739D02*
X38123Y24760D01*
X37969Y23790D01*
X37740Y22834D01*
X37436Y21900D01*
X37061Y20993D01*
X36615Y20118D01*
X36101Y19280D01*
X35524Y18485D01*
X34886Y17738D01*
X34192Y17044D01*
X33445Y16406D01*
X32650Y15829D01*
X31812Y15315D01*
X30937Y14869D01*
X30030Y14494D01*
X29096Y14190D01*
X28141Y13961D01*
X27170Y13807D01*
X26191Y13730D01*
X25209Y13730D01*
X24230Y13807D01*
X23260Y13961D01*
X22304Y14190D01*
X21370Y14494D01*
X20463Y14869D01*
X19588Y15315D01*
X18750Y15829D01*
X17955Y16406D01*
X17208Y17044D01*
X16514Y17738D01*
X15876Y18485D01*
X15299Y19280D01*
X14785Y20118D01*
X14339Y20993D01*
X13964Y21900D01*
X13660Y22834D01*
X13431Y23790D01*
X13277Y24760D01*
X13200Y25739D01*
X13200Y26721D01*
X13277Y27700D01*
X13431Y28671D01*
X13660Y29626D01*
X13964Y30560D01*
X14339Y31467D01*
X14785Y32342D01*
X15299Y33180D01*
X15876Y33975D01*
X16514Y34722D01*
X17208Y35416D01*
X17955Y36054D01*
X18750Y36631D01*
X19588Y37145D01*
X20463Y37591D01*
X21370Y37966D01*
X22304Y38270D01*
X23260Y38499D01*
X24230Y38653D01*
X25209Y38730D01*
X26191Y38730D01*
X27170Y38653D01*
X28141Y38499D01*
X29096Y38270D01*
X30030Y37966D01*
X30937Y37591D01*
X31812Y37145D01*
X32650Y36631D01*
X33445Y36054D01*
X34192Y35416D01*
X34886Y34722D01*
X35524Y33975D01*
X36101Y33180D01*
X36615Y32342D01*
X37061Y31467D01*
X37436Y30560D01*
X37740Y29626D01*
X37969Y28671D01*
X38123Y27700D01*
X38200Y26721D01*
X38200Y25739D01*
X788200Y25739D02*
X788123Y24760D01*
X787969Y23790D01*
X787740Y22834D01*
X787436Y21900D01*
X787061Y20993D01*
X786615Y20118D01*
X786101Y19280D01*
X785524Y18485D01*
X784886Y17738D01*
X784192Y17044D01*
X783445Y16406D01*
X782650Y15829D01*
X781812Y15315D01*
X780937Y14869D01*
X780030Y14494D01*
X779096Y14190D01*
X778141Y13961D01*
X777170Y13807D01*
X776191Y13730D01*
X775209Y13730D01*
X774230Y13807D01*
X773260Y13961D01*
X772304Y14190D01*
X771370Y14494D01*
X770463Y14869D01*
X769588Y15315D01*
X768750Y15829D01*
X767955Y16406D01*
X767208Y17044D01*
X766514Y17738D01*
X765876Y18485D01*
X765299Y19280D01*
X764785Y20118D01*
X764339Y20993D01*
X763964Y21900D01*
X763660Y22834D01*
X763431Y23790D01*
X763277Y24760D01*
X763200Y25739D01*
X763200Y26721D01*
X763277Y27700D01*
X763431Y28671D01*
X763660Y29626D01*
X763964Y30560D01*
X764339Y31467D01*
X764785Y32342D01*
X765299Y33180D01*
X765876Y33975D01*
X766514Y34722D01*
X767208Y35416D01*
X767955Y36054D01*
X768750Y36631D01*
X769588Y37145D01*
X770463Y37591D01*
X771370Y37966D01*
X772304Y38270D01*
X773260Y38499D01*
X774230Y38653D01*
X775209Y38730D01*
X776191Y38730D01*
X777170Y38653D01*
X778141Y38499D01*
X779096Y38270D01*
X780030Y37966D01*
X780937Y37591D01*
X781812Y37145D01*
X782650Y36631D01*
X783445Y36054D01*
X784192Y35416D01*
X784886Y34722D01*
X785524Y33975D01*
X786101Y33180D01*
X786615Y32342D01*
X787061Y31467D01*
X787436Y30560D01*
X787740Y29626D01*
X787969Y28671D01*
X788123Y27700D01*
X788200Y26721D01*
X788200Y25739D01*
X38200Y335739D02*
X38123Y334760D01*
X37969Y333790D01*
X37740Y332834D01*
X37436Y331900D01*
X37061Y330993D01*
X36615Y330118D01*
X36101Y329280D01*
X35524Y328485D01*
X34886Y327738D01*
X34192Y327044D01*
X33445Y326406D01*
X32650Y325829D01*
X31812Y325315D01*
X30937Y324869D01*
X30030Y324494D01*
X29096Y324190D01*
X28141Y323961D01*
X27170Y323807D01*
X26191Y323730D01*
X25209Y323730D01*
X24230Y323807D01*
X23260Y323961D01*
X22304Y324190D01*
X21370Y324494D01*
X20463Y324869D01*
X19588Y325315D01*
X18750Y325829D01*
X17955Y326406D01*
X17208Y327044D01*
X16514Y327738D01*
X15876Y328485D01*
X15299Y329280D01*
X14785Y330118D01*
X14339Y330993D01*
X13964Y331900D01*
X13660Y332834D01*
X13431Y333790D01*
X13277Y334760D01*
X13200Y335739D01*
X13200Y336721D01*
X13277Y337700D01*
X13431Y338671D01*
X13660Y339626D01*
X13964Y340560D01*
X14339Y341467D01*
X14785Y342342D01*
X15299Y343180D01*
X15876Y343975D01*
X16514Y344722D01*
X17208Y345416D01*
X17955Y346054D01*
X18750Y346631D01*
X19588Y347145D01*
X20463Y347591D01*
X21370Y347966D01*
X22304Y348270D01*
X23260Y348499D01*
X24230Y348653D01*
X25209Y348730D01*
X26191Y348730D01*
X27170Y348653D01*
X28141Y348499D01*
X29096Y348270D01*
X30030Y347966D01*
X30937Y347591D01*
X31812Y347145D01*
X32650Y346631D01*
X33445Y346054D01*
X34192Y345416D01*
X34886Y344722D01*
X35524Y343975D01*
X36101Y343180D01*
X36615Y342342D01*
X37061Y341467D01*
X37436Y340560D01*
X37740Y339626D01*
X37969Y338671D01*
X38123Y337700D01*
X38200Y336721D01*
X38200Y335739D01*
X788200Y335739D02*
X788123Y334760D01*
X787969Y333790D01*
X787740Y332834D01*
X787436Y331900D01*
X787061Y330993D01*
X786615Y330118D01*
X786101Y329280D01*
X785524Y328485D01*
X784886Y327738D01*
X784192Y327044D01*
X783445Y326406D01*
X782650Y325829D01*
X781812Y325315D01*
X780937Y324869D01*
X780030Y324494D01*
X779096Y324190D01*
X778141Y323961D01*
X777170Y323807D01*
X776191Y323730D01*
X775209Y323730D01*
X774230Y323807D01*
X773260Y323961D01*
X772304Y324190D01*
X771370Y324494D01*
X770463Y324869D01*
X769588Y325315D01*
X768750Y325829D01*
X767955Y326406D01*
X767208Y327044D01*
X766514Y327738D01*
X765876Y328485D01*
X765299Y329280D01*
X764785Y330118D01*
X764339Y330993D01*
X763964Y331900D01*
X763660Y332834D01*
X763431Y333790D01*
X763277Y334760D01*
X763200Y335739D01*
X763200Y336721D01*
X763277Y337700D01*
X763431Y338671D01*
X763660Y339626D01*
X763964Y340560D01*
X764339Y341467D01*
X764785Y342342D01*
X765299Y343180D01*
X765876Y343975D01*
X766514Y344722D01*
X767208Y345416D01*
X767955Y346054D01*
X768750Y346631D01*
X769588Y347145D01*
X770463Y347591D01*
X771370Y347966D01*
X772304Y348270D01*
X773260Y348499D01*
X774230Y348653D01*
X775209Y348730D01*
X776191Y348730D01*
X777170Y348653D01*
X778141Y348499D01*
X779096Y348270D01*
X780030Y347966D01*
X780937Y347591D01*
X781812Y347145D01*
X782650Y346631D01*
X783445Y346054D01*
X784192Y345416D01*
X784886Y344722D01*
X785524Y343975D01*
X786101Y343180D01*
X786615Y342342D01*
X787061Y341467D01*
X787436Y340560D01*
X787740Y339626D01*
X787969Y338671D01*
X788123Y337700D01*
X788200Y336721D01*
X788200Y335739D01*
M02*
