G04 EAGLE Gerber RS-274X export*
G75*
%MOMM*%
%FSLAX34Y34*%
%LPD*%
%INSoldermask Bottom*%
%IPPOS*%
%AMOC8*
5,1,8,0,0,1.08239X$1,22.5*%
G01*
%ADD10P,1.649562X8X112.500000*%
%ADD11C,1.524000*%
%ADD12C,1.727200*%
%ADD13C,1.524000*%
%ADD14P,1.649562X8X202.500000*%
%ADD15P,1.649562X8X292.500000*%
%ADD16P,1.649562X8X22.500000*%
%ADD17C,1.879600*%
%ADD18C,2.703200*%
%ADD19C,2.203200*%


D10*
X744920Y583830D03*
X744920Y609230D03*
X795720Y583830D03*
X795720Y609230D03*
X579630Y431440D03*
X579630Y456840D03*
X531230Y431440D03*
X531230Y456840D03*
D11*
X340380Y608496D02*
X340380Y621704D01*
X365780Y621704D02*
X365780Y608496D01*
X391180Y608496D02*
X391180Y621704D01*
X416580Y621704D02*
X416580Y608496D01*
X441980Y608496D02*
X441980Y621704D01*
X467380Y621704D02*
X467380Y608496D01*
X492780Y608496D02*
X492780Y621704D01*
X518180Y621704D02*
X518180Y608496D01*
X543580Y608496D02*
X543580Y621704D01*
X568980Y621704D02*
X568980Y608496D01*
X594380Y608496D02*
X594380Y621704D01*
X619780Y621704D02*
X619780Y608496D01*
X645180Y608496D02*
X645180Y621704D01*
X670580Y621704D02*
X670580Y608496D01*
X670580Y684696D02*
X670580Y697904D01*
X645180Y697904D02*
X645180Y684696D01*
X619780Y684696D02*
X619780Y697904D01*
X594380Y697904D02*
X594380Y684696D01*
X568980Y684696D02*
X568980Y697904D01*
X543580Y697904D02*
X543580Y684696D01*
X518180Y684696D02*
X518180Y697904D01*
X492780Y697904D02*
X492780Y684696D01*
X467380Y684696D02*
X467380Y697904D01*
X441980Y697904D02*
X441980Y684696D01*
X416580Y684696D02*
X416580Y697904D01*
X391180Y697904D02*
X391180Y684696D01*
X365780Y684696D02*
X365780Y697904D01*
X340380Y697904D02*
X340380Y684696D01*
D12*
X744920Y686210D02*
X744920Y670970D01*
X770320Y670970D02*
X770320Y686210D01*
X795720Y686210D02*
X795720Y670970D01*
D13*
X579630Y513080D03*
X531370Y513080D03*
D12*
X227558Y673346D02*
X212318Y673346D01*
X212318Y628134D02*
X227558Y628134D01*
X277342Y673346D02*
X292582Y673346D01*
X292582Y628134D02*
X277342Y628134D01*
D14*
X141340Y607250D03*
X39740Y607250D03*
D12*
X888244Y282588D02*
X888244Y267348D01*
X933456Y267348D02*
X933456Y282588D01*
X888244Y332372D02*
X888244Y347612D01*
X933456Y347612D02*
X933456Y332372D01*
D15*
X843710Y355690D03*
X843710Y254090D03*
D16*
X39920Y691630D03*
X141520Y691630D03*
D17*
X80700Y336230D03*
X106100Y336230D03*
X131500Y336230D03*
X156900Y336230D03*
X182300Y336230D03*
X207700Y336230D03*
X233100Y336230D03*
X258500Y336230D03*
X283900Y336230D03*
X309300Y336230D03*
X334700Y336230D03*
X360100Y336230D03*
X385500Y336230D03*
X410900Y336230D03*
X436300Y336230D03*
X461700Y336230D03*
D18*
X25700Y26230D03*
X775700Y26230D03*
X25700Y336230D03*
X775700Y336230D03*
D12*
X461910Y395420D02*
X461910Y410660D01*
X436510Y410660D02*
X436510Y395420D01*
X411110Y395420D02*
X411110Y410660D01*
X385710Y410660D02*
X385710Y395420D01*
X360310Y395420D02*
X360310Y410660D01*
X334910Y410660D02*
X334910Y395420D01*
X309510Y395420D02*
X309510Y410660D01*
X284110Y410660D02*
X284110Y395420D01*
X258710Y395420D02*
X258710Y410660D01*
X233310Y410660D02*
X233310Y395420D01*
X207910Y395420D02*
X207910Y410660D01*
X182510Y410660D02*
X182510Y395420D01*
X157110Y395420D02*
X157110Y410660D01*
X131710Y410660D02*
X131710Y395420D01*
X106310Y395420D02*
X106310Y410660D01*
X80910Y410660D02*
X80910Y395420D01*
X73660Y452670D02*
X88900Y452670D01*
X88900Y478070D02*
X73660Y478070D01*
X73660Y503470D02*
X88900Y503470D01*
X88900Y528870D02*
X73660Y528870D01*
D19*
X853330Y90300D02*
X853330Y70300D01*
X914330Y70300D02*
X914330Y90300D01*
X894330Y128300D02*
X874330Y128300D01*
X853450Y650010D02*
X853450Y670010D01*
X914450Y670010D02*
X914450Y650010D01*
X894450Y708010D02*
X874450Y708010D01*
M02*
